<svg xmlns="http://www.w3.org/2000/svg" viewBox="-594 572.8 465.2 463.3" enable-background="new -594 572.8 465.2 463.3"><style type="text/css">.st0{fill:#D8ECDA;}</style><path id="_behance" class="st0" d="M-361.3 1035.9c-64 0-128-.3-192 .2-18.7.1-36.7-14-40.4-33.2-.5-2.6-.2-5.3-.2-8v-382.5c0-13.7 6.1-24.5 17.2-32.4 7-5 14.7-7.2 23.3-7.2h384.5c8.4 0 16.1 2.1 22.8 7 10.7 7.9 17.2 18.2 17.2 32 0 128.2-.1 256.3.1 384.5 0 18.3-14.6 36.2-33.6 39.4-2.4.4-5 .2-7.5.2h-191.4zm-165.3-129.3c1.1.1 1.9.2 2.7.2 18.3 0 36.6.2 55 0 18.3-.3 36.6 1.3 54.8-1 5.9-.8 11.8-1.9 17.4-3.7 10.8-3.5 19.5-10.2 26.5-19.3 6.9-9 10.9-19 12.1-30 .7-6.7.6-13.5-.7-20.3-2.9-15-10.7-26.2-24.3-33.2-1.8-.9-3.6-1.9-5.8-3 3-2 5.7-3.5 7.9-5.4 3.2-2.8 6.4-5.8 9.1-9.1 6.2-7.8 7.3-17.3 7.8-26.7.3-5.2-.7-10.6-1.9-15.7-2.8-11.7-8.9-21.5-19.2-28-10.4-6.6-22.1-10.2-34.3-10.4-34.3-.4-68.6-.1-102.9-.1-1.3 0-2.6.1-4.1.2-.1 68.5-.1 136.7-.1 205.5zm331.6-68.8c.3-10.4.6-20.1-1.1-29.6-1.7-9.8-4.4-19.3-10-27.8-4.6-7-9.7-13.4-16.5-18.3-11.5-8.5-24.7-11.8-38.5-13-9.9-.9-19.8.1-29.5 2.7-16 4.3-28.5 13.3-37.9 26.6-7.5 10.7-11.1 23.1-12.1 35.8-.8 10.9-1.1 21.9.6 32.8 1.5 9.6 4.4 18.7 9.3 27.1 2.4 3.9 5.3 7.7 8.7 10.8 3.7 3.5 8.2 6.2 12.4 9 11.8 7.8 25.1 10.9 39 11.8 7.6.5 15.2-.4 22.7-1.8 9.2-1.8 17.9-4.9 25.6-10.2 5.3-3.7 10.1-7.9 14.3-13 4.1-5 7-10.5 9.6-16.2.9-1.8.9-4 1.4-6.4h-39.3c-3.7 6.1-8.3 11.3-15.2 13.9-2.6 1-5.4 1.5-8.1 2.1-7.9 1.8-15.6.4-22.8-2.6-11-4.5-17.2-13.2-19.5-24.7-.6-2.8-.7-5.7-1.1-9.1 36.3.1 71.9.1 108 .1zm-114.7-108.3c1.1.1 1.7.3 2.3.3 26.5 0 52.9-.1 79.4-.2.1 0 .3-.1.4-.2l.7-.7c-.2-6.2.3-12.8-.3-19.5-.9-.1-1.6-.3-2.2-.3l-79.4.1c-.1 0-.3.1-.4.2-.1.1-.2.2-.5.6v19.7zm-170.2 114.4v-23.5c0-4.2.4-4.6 4.6-4.6 14.3 0 28.6-.4 42.9.1 7.5.3 15.1 1.4 21.8 5.6 4.2 2.6 7 6.4 8.3 10.8 3.2 10.7 1.7 21.1-5.1 30.1-2.8 3.8-7.3 5.9-11.7 7.1-4.9 1.3-10.1 2-15.1 2.1-13.5.3-26.9.1-40.4.1h-1.5c-3-.2-3.5-.6-3.7-3.5-.1-1 0-2 0-3-.1-7-.1-14.1-.1-21.3zm.2-62c-.1-2-.2-3.3-.2-4.6v-36c0-5.4.1-5.4 5.7-5.5h7.5c7 0 14 .1 21 0 8-.1 15.9.7 23.7 2.1 6.9 1.2 12.6 4.5 15.2 11.4 3.4 9 2.5 20.4-6.2 27.1-1.2.9-2.4 1.8-3.8 2.3-5.6 2-11.3 3.4-17.5 3.3-13.3-.3-26.7-.1-40-.1h-5.4zm244.2 29.8h-66.1c.9-8.6 4.2-15.9 9.6-22.1 4.3-4.9 10.1-7.8 16.5-8.5 6.4-.7 12.9-.9 19.2 1.1 10.6 3.5 17.2 10.8 20.3 21.3.7 2.5 2 5.1.5 8.2z"/></svg>