<?xml version="1.0" encoding="utf-8"?>
<!-- Generator: Adobe Illustrator 19.1.0, SVG Export Plug-In . SVG Version: 6.00 Build 0)  -->
<svg version="1.1" id="Layer_1" xmlns="http://www.w3.org/2000/svg" xmlns:xlink="http://www.w3.org/1999/xlink" x="0px" y="0px"
	 viewBox="0 0 945.3 747.4" style="enable-background:new 0 0 945.3 747.4;" xml:space="preserve">
<style type="text/css">
	.st0{fill:#231F20;}
	.st1{fill:#E8B21B;}
	.st2{fill:#F9BD5E;}
	.st3{fill:#8DCC40;}
	.st4{fill:#E14700;}
	.st5{fill:#96633F;}
	.st6{fill:#FFFFFF;}
</style>
<polygon class="st0" points="413.2,747.4 335.1,747.4 335.1,722.4 388.2,722.4 388.2,604.1 413.2,604.1 "/>
<polygon class="st0" points="529.8,747.4 607.9,747.4 607.9,722.4 554.8,722.4 554.8,604.1 529.8,604.1 "/>
<path class="st0" d="M878.1,447v-20c25.1,0,47.1-20.4,47.1-45.5v-69.7h20v69.7C945.3,417.6,914.3,447,878.1,447z"/>
<path class="st0" d="M67.1,447v-20C42.1,427,20,406.6,20,381.5v-69.7H0l0,69.7C0,417.6,31,447,67.1,447z"/>
<polygon class="st1" points="587,393.2 734,393.2 654,456.2 "/>
<path class="st2" d="M707.9,274.7c-32.7,0-65.5,0-98.2,0c-101.7,0-203.5,0-305.2,0c-59.4,0-118.9,0-178.3,0
	c-21.9,0-34.5-17.4-27.4-38.3C123.8,162.9,168.3,104,232.4,60c38.2-26.2,80.1-43.8,125.5-53.1c22.7-4.7,45.7-7,69-6.8
	C455.9,0.2,485,0.8,514,0.2c44.7-0.8,87.7,7,129.3,23.1c49.3,19.1,91.9,48.1,128,86.8c34.9,37.3,60.2,80.4,75.9,129
	c5.8,17.9-7.5,35.6-26.4,35.6C783.1,274.7,745.5,274.7,707.9,274.7z"/>
<path class="st2" d="M472.6,480c116.1,0,232.1,0,348.2,0c10.2,0,14.5,2.7,15,12.7c0.8,18.4,2.4,36.9-2.2,55.1
	C825,581.3,794.6,605,760,605c-75.9,0.1-151.8-0.1-227.8-0.1c-114.9,0-229.7,0.1-344.6,0.1c-45.4,0-79.1-34-78.8-79.5
	c0.1-9.4,0-18.8,0-28.2c0-2.3,0.3-4.7,0.7-7c1.5-7.2,5.3-10.3,12.7-10.3c29.2,0,58.4,0,87.7,0C297.5,480,385,480,472.6,480z"/>
<path class="st3" d="M481.1,386.4c-117.4,0-234.8,0-352.2,0c-13.2,0-22.7-8.8-22.9-22.2c-0.3-20.2-0.3-40.3,0-60.5
	c0.2-13.8,9.1-22.6,22.9-22.7c32.2-0.2,64.5,0,96.7,0c8,0,312.1,0.3,432.2,0.3c18.7-0.4,127.8-0.4,157.2-0.3
	c14.9,0,23.9,8.8,24,23.7c0.1,19.8,0.1,39.6,0,59.4c-0.1,12.8-9.6,22.3-22.3,22.3c-95.2,0-190.5,0-285.7,0
	C529.6,386.3,482.8,386.4,481.1,386.4z"/>
<path class="st4" d="M481.1,343.2c-117.4,0-234.8,0-352.2,0c-13.2,0-22.7-5.3-22.9-13.2c-0.3-12-0.3-24,0-35.9
	c0.2-8.2,9.1-13.4,22.9-13.5c32.2-0.1,64.5,0,96.7,0c8,0,312.1,0.2,432.2,0.2c18.7-0.2,127.8-0.2,157.2-0.2c14.9,0,23.9,5.2,24,14.1
	c0.1,11.8,0.1,23.6,0,35.3c-0.1,7.6-9.6,13.2-22.3,13.2c-95.2,0-190.5,0-285.7,0C529.6,343.2,482.8,343.2,481.1,343.2z"/>
<path class="st5" d="M473.6,474.2c-42.1,0-84.3,0-126.4,0c-80.9,0-161.9,0.1-242.8,0.2c-18.3,0-32.6-9.8-37.1-26.6
	c-4.9-18.3-1.2-37.3,14.3-47.8c6.4-4.3,13.5-6.6,21.2-6.6c159.9,0,319.8,0.3,479.7-0.3c13.8,0,23.7,3.2,32.6,13.6
	c9.2,10.6,19.8,20.1,29.8,30c8.2,8.1,15.7,8,23.9-0.2c13.4-13.4,26.7-26.9,40.2-40.2c1.6-1.5,4.3-2.7,6.5-2.7
	c42.3-0.2,84.6-0.2,127-0.1c21,0,36.9,16.5,37.4,37.5c0.3,13.6-2.5,25.6-13.4,34.8c-7.3,6.2-15.7,8.8-25.1,8.8
	c-63.8-0.1-127.6-0.1-191.4-0.2c-46.5,0-93,0.1-139.6,0.1c-12.3,0-24.5,0-36.8,0C473.6,474.3,473.6,474.3,473.6,474.2z"/>
<path class="st6" d="M740.8,154.7c-7.1-0.6-12.3-3.5-12.8-7.6c-0.6-4.2,4.1-8.8,11-9.8c3.5-0.5,7.5-0.6,10.8,0.6
	c2.4,0.8,5.2,3.7,5.6,6.1c0.3,2-1.9,5.4-3.9,6.8C748.3,152.7,744.3,153.4,740.8,154.7z"/>
<path class="st6" d="M271.6,86.4c8.7,0.9,14.4,3.1,17.9,9.3c2.4,4.3,1,7.9-3.6,9.5c-7,2.3-13.1-0.4-17.8-5.1c-2.1-2.1-3.9-6.6-3.1-9
	C265.8,88.6,270.2,87.4,271.6,86.4z"/>
<path class="st6" d="M495.9,221.1c0.3,0,0.7,0,1,0c4.4,0.5,9.2,1.1,10.2,6.3c0.9,4.9-2.9,7.5-6.8,9.4c-5,2.4-10.2,3.2-15.5,0.9
	c-5.6-2.4-6.8-7.6-2-11.4c3.6-2.9,8.3-4.3,12.6-6.4C495.5,220.4,495.7,220.8,495.9,221.1z"/>
<path class="st6" d="M352.4,252.2c-3.6-1.4-7.4-2.2-10.6-4.1c-4.5-2.8-4.3-7.5-0.1-10.7c5.6-4.3,15.6-4.4,21.3-0.1
	c4.7,3.5,4.7,8.5-0.4,11.3C359.6,250.2,356.1,250.9,352.4,252.2z"/>
<path class="st6" d="M635.5,213.2c6.8,0.9,12.2,4.3,12.5,8.4c0.3,4.2-4.2,8.7-10.7,9.4c-4,0.4-8.4,0.2-12.2-1.1
	c-5.8-2-6.5-8.3-1.4-11.7C627.2,215.9,631.5,214.8,635.5,213.2z"/>
<path class="st6" d="M325.8,159c-6.5-1.2-11.5-3.3-15.3-7.7c-3.6-4.2-2.5-8.7,2.6-10.9c6.3-2.7,17.6,0.8,20.9,6.9
	c1,1.8,1.6,5.4,0.6,6.4C332.2,155.9,328.8,157.3,325.8,159z"/>
<path class="st6" d="M486.9,187.6c-3.5-1.4-7.5-2.3-10.7-4.5c-4.9-3.2-4.4-8.4,0.7-11.2c6.5-3.5,13.2-3.4,19.6,0.4
	c5.6,3.4,5.7,9.1-0.1,12.2C493.8,185.9,490.6,186.5,486.9,187.6z"/>
<path class="st6" d="M460.1,37.9c-3.9-1.8-7.7-3-10.8-5.2c-3.4-2.4-3.2-6.1-0.2-9c5.4-5.3,17-5.7,22.8-0.8c3.8,3.3,4.2,7.3,0,10
	C468.5,35.1,464.4,36.1,460.1,37.9z"/>
<path class="st6" d="M578.8,55.3c-3.5-1.2-7-1.9-10-3.6c-5-2.8-5-8.1-0.5-11.4c5.4-4.1,15.9-4,21.3,0c4.2,3.2,4.2,8.5-0.5,11.1
	C586,53.2,582.4,54,578.8,55.3z"/>
<path class="st6" d="M443.3,108.6c-3.6-1.7-8-3.1-11.4-5.6c-3.7-2.7-3.1-6.8,0.5-9.7c5.7-4.5,17.3-3.7,22.4,1.4
	c3.5,3.5,3.2,8-1.2,10.4C450.8,106.6,447.4,107.2,443.3,108.6z"/>
<path class="st6" d="M668.6,87c7.5,0.9,13,4.2,13.3,8.7c0.3,4.2-5.2,8.9-12.1,9.2c-3.8,0.2-8.1-0.7-11.6-2.3
	c-5.5-2.5-5.6-8.8-0.3-11.8C661.1,88.9,665,88.2,668.6,87z"/>
<path class="st6" d="M593.1,132.4c-7.5-0.9-12.4-3.6-12.9-7.8c-0.5-4.2,3.3-8.6,10.3-9.8c4.2-0.7,9-0.1,13,1.4
	c5.4,2,5.9,8.3,0.9,11.5C601,129.9,596.9,130.9,593.1,132.4z"/>
<path class="st6" d="M208.3,183c-7.1-0.5-12.7-2.2-16.3-7.8c-2.4-3.8-1.4-7.1,2.6-9.1c6.7-3.4,17.9-0.4,22,6
	c2.4,3.8,1.4,7.6-2.8,9.4C211.8,182.4,209.6,182.7,208.3,183z"/>
<path class="st6" d="M366.6,34.1c4.3,2,8.8,3.6,12.6,6.2c1.7,1.2,3,4.8,2.5,6.9c-0.5,2.1-3.2,4.5-5.3,5.1
	c-5.8,1.6-11.7,0.8-16.7-2.9c-2.9-2.1-5.7-4.6-4.4-8.7c1.2-3.9,4.4-5.1,8.2-5.3c0.8,0,1.7-0.1,2.5-0.1
	C366.3,34.9,366.5,34.5,366.6,34.1z"/>
<path class="st6" d="M767,251.6c-4.2-1.5-8-2.4-11.2-4.3c-4.3-2.6-4.2-7.1-0.4-10.4c5.6-4.8,16.9-4.7,22.4,0.1
	c3.3,2.9,3.7,6.9,0.2,9.4C774.8,248.7,770.8,249.9,767,251.6z"/>
<circle class="st0" cx="400.7" cy="311.4" r="24.5"/>
<circle class="st0" cx="543.3" cy="311.4" r="24.5"/>
<circle class="st6" cx="412.6" cy="302.1" r="5.9"/>
<circle class="st6" cx="555.2" cy="302.1" r="5.9"/>
<path d="M429.5,347.2c0,0,13.7,35.4,43.3,36c29.5,0.6,43.3-36,43.3-36H429.5z"/>
</svg>
