<svg xmlns="http://www.w3.org/2000/svg" viewBox="0 0 945.3 747.4" enable-background="new 0 0 945.3 747.4"><style type="text/css">.st0{fill:#231F20;} .st1{fill:#E8B21B;} .st2{fill:#F9BD5E;} .st3{fill:#8DCC40;} .st4{fill:#E14700;} .st5{fill:#96633F;} .st6{fill:#FFFFFF;}</style><path class="st0" d="M413.2 747.4h-78.1v-25h53.1v-118.3h25zm116.6 0h78.1v-25h-53.1v-118.3h-25zm348.3-300.4v-20c25.1 0 47.1-20.4 47.1-45.5v-69.7h20v69.7c.1 36.1-30.9 65.5-67.1 65.5zm-811 0v-20c-25 0-47.1-20.4-47.1-45.5v-69.7h-20v69.7c0 36.1 31 65.5 67.1 65.5z"/><path class="st1" d="M587 393.2h147l-80 63z"/><path class="st2" d="M707.9 274.7h-581.7c-21.9 0-34.5-17.4-27.4-38.3 25-73.5 69.5-132.4 133.6-176.4 38.2-26.2 80.1-43.8 125.5-53.1 22.7-4.7 45.7-7 69-6.8 29 .1 58.1.7 87.1.1 44.7-.8 87.7 7 129.3 23.1 49.3 19.1 91.9 48.1 128 86.8 34.9 37.3 60.2 80.4 75.9 129 5.8 17.9-7.5 35.6-26.4 35.6h-112.9zm-235.3 205.3h348.2c10.2 0 14.5 2.7 15 12.7.8 18.4 2.4 36.9-2.2 55.1-8.6 33.5-39 57.2-73.6 57.2-75.9.1-151.8-.1-227.8-.1l-344.6.1c-45.4 0-79.1-34-78.8-79.5.1-9.4 0-18.8 0-28.2 0-2.3.3-4.7.7-7 1.5-7.2 5.3-10.3 12.7-10.3h350.4z"/><path class="st3" d="M481.1 386.4h-352.2c-13.2 0-22.7-8.8-22.9-22.2-.3-20.2-.3-40.3 0-60.5.2-13.8 9.1-22.6 22.9-22.7 32.2-.2 64.5 0 96.7 0 8 0 312.1.3 432.2.3 18.7-.4 127.8-.4 157.2-.3 14.9 0 23.9 8.8 24 23.7.1 19.8.1 39.6 0 59.4-.1 12.8-9.6 22.3-22.3 22.3h-285.7c-1.4-.1-48.2 0-49.9 0z"/><path class="st4" d="M481.1 343.2h-352.2c-13.2 0-22.7-5.3-22.9-13.2-.3-12-.3-24 0-35.9.2-8.2 9.1-13.4 22.9-13.5 32.2-.1 64.5 0 96.7 0 8 0 312.1.2 432.2.2 18.7-.2 127.8-.2 157.2-.2 14.9 0 23.9 5.2 24 14.1.1 11.8.1 23.6 0 35.3-.1 7.6-9.6 13.2-22.3 13.2h-335.6z"/><path class="st5" d="M473.6 474.2h-126.4c-80.9 0-161.9.1-242.8.2-18.3 0-32.6-9.8-37.1-26.6-4.9-18.3-1.2-37.3 14.3-47.8 6.4-4.3 13.5-6.6 21.2-6.6 159.9 0 319.8.3 479.7-.3 13.8 0 23.7 3.2 32.6 13.6 9.2 10.6 19.8 20.1 29.8 30 8.2 8.1 15.7 8 23.9-.2 13.4-13.4 26.7-26.9 40.2-40.2 1.6-1.5 4.3-2.7 6.5-2.7 42.3-.2 84.6-.2 127-.1 21 0 36.9 16.5 37.4 37.5.3 13.6-2.5 25.6-13.4 34.8-7.3 6.2-15.7 8.8-25.1 8.8l-191.4-.2c-46.5 0-93 .1-139.6.1h-36.8v-.3z"/><path class="st6" d="M740.8 154.7c-7.1-.6-12.3-3.5-12.8-7.6-.6-4.2 4.1-8.8 11-9.8 3.5-.5 7.5-.6 10.8.6 2.4.8 5.2 3.7 5.6 6.1.3 2-1.9 5.4-3.9 6.8-3.2 1.9-7.2 2.6-10.7 3.9zm-469.2-68.3c8.7.9 14.4 3.1 17.9 9.3 2.4 4.3 1 7.9-3.6 9.5-7 2.3-13.1-.4-17.8-5.1-2.1-2.1-3.9-6.6-3.1-9 .8-2.5 5.2-3.7 6.6-4.7zm224.3 134.7h1c4.4.5 9.2 1.1 10.2 6.3.9 4.9-2.9 7.5-6.8 9.4-5 2.4-10.2 3.2-15.5.9-5.6-2.4-6.8-7.6-2-11.4 3.6-2.9 8.3-4.3 12.6-6.4.1.5.3.9.5 1.2zm-143.5 31.1c-3.6-1.4-7.4-2.2-10.6-4.1-4.5-2.8-4.3-7.5-.1-10.7 5.6-4.3 15.6-4.4 21.3-.1 4.7 3.5 4.7 8.5-.4 11.3-3 1.6-6.5 2.3-10.2 3.6zm283.1-39c6.8.9 12.2 4.3 12.5 8.4.3 4.2-4.2 8.7-10.7 9.4-4 .4-8.4.2-12.2-1.1-5.8-2-6.5-8.3-1.4-11.7 3.5-2.3 7.8-3.4 11.8-5zm-309.7-54.2c-6.5-1.2-11.5-3.3-15.3-7.7-3.6-4.2-2.5-8.7 2.6-10.9 6.3-2.7 17.6.8 20.9 6.9 1 1.8 1.6 5.4.6 6.4-2.4 2.2-5.8 3.6-8.8 5.3zm161.1 28.6c-3.5-1.4-7.5-2.3-10.7-4.5-4.9-3.2-4.4-8.4.7-11.2 6.5-3.5 13.2-3.4 19.6.4 5.6 3.4 5.7 9.1-.1 12.2-2.6 1.4-5.8 2-9.5 3.1zm-26.8-149.7c-3.9-1.8-7.7-3-10.8-5.2-3.4-2.4-3.2-6.1-.2-9 5.4-5.3 17-5.7 22.8-.8 3.8 3.3 4.2 7.3 0 10-3.4 2.2-7.5 3.2-11.8 5zm118.7 17.4c-3.5-1.2-7-1.9-10-3.6-5-2.8-5-8.1-.5-11.4 5.4-4.1 15.9-4 21.3 0 4.2 3.2 4.2 8.5-.5 11.1-3.1 1.8-6.7 2.6-10.3 3.9zm-135.5 53.3c-3.6-1.7-8-3.1-11.4-5.6-3.7-2.7-3.1-6.8.5-9.7 5.7-4.5 17.3-3.7 22.4 1.4 3.5 3.5 3.2 8-1.2 10.4-2.8 1.5-6.2 2.1-10.3 3.5zm225.3-21.6c7.5.9 13 4.2 13.3 8.7.3 4.2-5.2 8.9-12.1 9.2-3.8.2-8.1-.7-11.6-2.3-5.5-2.5-5.6-8.8-.3-11.8 3.2-1.9 7.1-2.6 10.7-3.8zm-75.5 45.4c-7.5-.9-12.4-3.6-12.9-7.8-.5-4.2 3.3-8.6 10.3-9.8 4.2-.7 9-.1 13 1.4 5.4 2 5.9 8.3.9 11.5-3.4 2.2-7.5 3.2-11.3 4.7zm-384.8 50.6c-7.1-.5-12.7-2.2-16.3-7.8-2.4-3.8-1.4-7.1 2.6-9.1 6.7-3.4 17.9-.4 22 6 2.4 3.8 1.4 7.6-2.8 9.4-2 .9-4.2 1.2-5.5 1.5zm158.3-148.9c4.3 2 8.8 3.6 12.6 6.2 1.7 1.2 3 4.8 2.5 6.9-.5 2.1-3.2 4.5-5.3 5.1-5.8 1.6-11.7.8-16.7-2.9-2.9-2.1-5.7-4.6-4.4-8.7 1.2-3.9 4.4-5.1 8.2-5.3l2.5-.1c.3-.4.5-.8.6-1.2zm400.4 217.5c-4.2-1.5-8-2.4-11.2-4.3-4.3-2.6-4.2-7.1-.4-10.4 5.6-4.8 16.9-4.7 22.4.1 3.3 2.9 3.7 6.9.2 9.4-3.2 2.3-7.2 3.5-11 5.2z"/><circle class="st0" cx="400.7" cy="311.4" r="24.5"/><circle class="st0" cx="543.3" cy="311.4" r="24.5"/><circle class="st6" cx="412.6" cy="302.1" r="5.9"/><circle class="st6" cx="555.2" cy="302.1" r="5.9"/><path d="M429.5 347.2s13.7 35.4 43.3 36c29.5.6 43.3-36 43.3-36h-86.6z"/></svg>