<svg xmlns="http://www.w3.org/2000/svg" viewBox="0 0 1215.2 1146" enable-background="new 0 0 1215.2 1146"><style type="text/css">.st0{opacity:0.8;fill:#4D4D4D;} .st1{fill:#C69C6D;} .st2{fill:#592B12;} .st3{fill:#FFFFFF;} .st4{fill:#006837;} .st5{fill:#93278F;} .st6{fill:#9E005D;} .st7{fill:#F15A24;} .st8{fill:#0071BC;} .st9{fill:#FCEE21;} .st10{fill:none;stroke:#000000;stroke-width:7;stroke-miterlimit:10;}</style><ellipse class="st0" cx="643.5" cy="1059" rx="224.8" ry="87.1"/><path class="st1" d="M657.4 44c-233.6 0-422.9 182.7-422.9 408s189.4 408 422.9 408 422.9-182.7 422.9-408-189.4-408-422.9-408zm-48.6 524.4c-59.7 0-108.1-48.4-108.1-108.1s48.4-108.1 108.1-108.1c59.7 0 108.1 48.4 108.1 108.1s-48.4 108.1-108.1 108.1z"/><path d="M704 849.6l4.7 185.2c.3 10.1 6.7 18.9 16.2 22.3 19.9 7.1 53.9 16.7 73.2 8.4 2.8-1.2 4.4-4.2 3.7-7.1-.9-4.1-4.5-9.9-16-14.1-12.7-4.7-27.5-12.2-36.6-17.1-5.1-2.7-7.8-8.6-6.5-14.2l44.1-192.1-82.8 28.7zm-475.6-436.4s-95.1-65.2-103.1-104.2c-7.4-36.2-106.4-20.7-120.4-18.3-1.7.3-3.3 1.3-4.2 2.8-2 3.4-1.4 10.4 21.6 20.5 27.6 12.2 57.1 18.2 67.3 20 1.7.3 3.5.4 5.2.5 3.5.2 12.6 2.8 23.5 22.8 14 25.6 111.3 145.2 111.3 145.2l-1.2-89.3z"/><path class="st1" d="M632.4 557c-46.6 0-84.4-43.7-84.4-97.5s37.8-97.5 84.4-97.5c17.1 0 32.9 5.8 46.2 15.9-18.9-16.1-43.3-25.7-70-25.7-59.7 0-108.1 48.4-108.1 108.1 0 59.7 48.4 108.1 108.1 108.1 42.2 0 78.8-24.2 96.6-59.5-14.7 28.8-41.8 48.1-72.8 48.1z"/><path d="M986.8 413.2s95.1-65.2 103.1-104.2c7.4-36.2 106.4-20.7 120.4-18.3 1.7.3 3.3 1.3 4.2 2.8 2 3.4 1.4 10.4-21.6 20.5-27.6 12.2-57.1 18.2-67.3 20-1.7.3-3.5.4-5.2.5-3.5.2-12.6 2.8-23.5 22.8-14 25.6-111.3 145.2-111.3 145.2l1.2-89.3z"/><path class="st2" d="M620.6 45.2c-217.6 0-394 182.1-394 406.8s176.4 406.8 394 406.8 394-182.1 394-406.8-176.4-406.8-394-406.8zm-12 523.2c-59.7 0-108.1-48.4-108.1-108.1s48.4-108.1 108.1-108.1c59.7 0 108.1 48.4 108.1 108.1s-48.3 108.1-108.1 108.1z"/><path class="st3" d="M391.725 247.445l7.726-3.776 20.418 41.776-7.726 3.776z"/><path class="st4" d="M575.946 249.321l2.798 8.132-43.97 15.131-2.798-8.132zm197.074 310.714l2.798 8.132-43.97 15.131-2.798-8.132z"/><path class="st5" d="M731.259 242.238l5.741 6.403-34.619 31.043-5.741-6.403z"/><path class="st6" d="M851.218 285.384l4.899 7.068-38.218 26.491-4.899-7.068z"/><path class="st7" d="M775.798 432.839l6.439-5.701 30.825 34.815-6.439 5.701zm-388.625-53.445l6.439-5.701 30.825 34.815-6.439 5.701z"/><path class="st6" d="M823.949 708.405l5.188 6.859-37.088 28.049-5.188-6.859z"/><path class="st8" d="M707.389 663.335l6.609 5.502-29.751 35.735-6.609-5.502z"/><path class="st9" d="M444.04 559.638l8.505 1.28-6.919 45.984-8.505-1.28z"/><path class="st4" d="M310.719 631.275l7.614-3.998 21.618 41.171-7.614 3.998z"/><path class="st6" d="M349.525 489.744l3.233 7.969-43.087 17.479-3.233-7.969z"/><path class="st7" d="M513.01 683.948l4.164 7.524-40.683 22.515-4.164-7.524z"/><path class="st5" d="M604.011 754.984l5.156 6.883-37.219 27.877-5.156-6.883z"/><path class="st9" d="M932.519 366.768l4.362 7.411-40.074 23.585-4.362-7.411z"/><path class="st3" d="M908.836 517.36l4.236 7.485-40.469 22.901-4.236-7.485z"/><path d="M586.8 857.3l-4.7 177.6c-.3 10.1-6.7 18.9-16.2 22.3-19.9 7.1-53.9 16.7-73.2 8.4-2.8-1.2-4.4-4.2-3.7-7.1.9-4.1 4.5-9.9 16-14.1 12.7-4.7 27.5-12.2 36.6-17.1 5.1-2.7 7.8-8.6 6.5-14.2l-38.1-170.6 76.8 14.8z"/><path class="st10" d="M481.3 23.2s32.1-44.4 70 0m110.3 0s32.1-44.4 70 0"/><ellipse cx="517.1" cy="118.6" rx="69.7" ry="88.5"/><ellipse class="st3" cx="517.1" cy="134.4" rx="64.2" ry="72.7"/><circle cx="520.9" cy="144.9" r="34.5"/><circle class="st3" cx="527" cy="131" r="9.9"/><ellipse cx="696.6" cy="118.6" rx="69.7" ry="88.5"/><ellipse class="st3" cx="696.6" cy="134.4" rx="64.2" ry="72.7"/><circle cx="700.4" cy="144.9" r="34.5"/><circle class="st3" cx="706.5" cy="131" r="9.9"/><path class="st8" d="M284.567 338.377l7.717-3.796 20.525 41.724-7.717 3.796z"/></svg>