<?xml version="1.0" encoding="utf-8"?>
<!-- Generator: Adobe Illustrator 19.1.0, SVG Export Plug-In . SVG Version: 6.00 Build 0)  -->
<svg version="1.1" id="Layer_1" xmlns="http://www.w3.org/2000/svg" xmlns:xlink="http://www.w3.org/1999/xlink" x="0px" y="0px"
	 viewBox="0 0 1215.2 1146" style="enable-background:new 0 0 1215.2 1146;" xml:space="preserve">
<style type="text/css">
	.st0{opacity:0.8;fill:#4D4D4D;}
	.st1{fill:#C69C6D;}
	.st2{fill:#592B12;}
	.st3{fill:#FFFFFF;}
	.st4{fill:#006837;}
	.st5{fill:#93278F;}
	.st6{fill:#9E005D;}
	.st7{fill:#F15A24;}
	.st8{fill:#0071BC;}
	.st9{fill:#FCEE21;}
	.st10{fill:none;stroke:#000000;stroke-width:7;stroke-miterlimit:10;}
</style>
<ellipse class="st0" cx="643.5" cy="1059" rx="224.8" ry="87.1"/>
<path class="st1" d="M657.4,44c-233.6,0-422.9,182.7-422.9,408s189.4,408,422.9,408s422.9-182.7,422.9-408S890.9,44,657.4,44z
	 M608.8,568.4c-59.7,0-108.1-48.4-108.1-108.1s48.4-108.1,108.1-108.1c59.7,0,108.1,48.4,108.1,108.1S668.5,568.4,608.8,568.4z"/>
<path d="M704,849.6l4.7,185.2c0.3,10.1,6.7,18.9,16.2,22.3c19.9,7.1,53.9,16.7,73.2,8.4c2.8-1.2,4.4-4.2,3.7-7.1
	c-0.9-4.1-4.5-9.9-16-14.1c-12.7-4.7-27.5-12.2-36.6-17.1c-5.1-2.7-7.8-8.6-6.5-14.2l44.1-192.1L704,849.6z"/>
<path d="M228.4,413.2c0,0-95.1-65.2-103.1-104.2c-7.4-36.2-106.4-20.7-120.4-18.3c-1.7,0.3-3.3,1.3-4.2,2.8
	c-2,3.4-1.4,10.4,21.6,20.5c27.6,12.2,57.1,18.2,67.3,20c1.7,0.3,3.5,0.4,5.2,0.5c3.5,0.2,12.6,2.8,23.5,22.8
	c14,25.6,111.3,145.2,111.3,145.2L228.4,413.2z"/>
<path class="st1" d="M632.4,557c-46.6,0-84.4-43.7-84.4-97.5s37.8-97.5,84.4-97.5c17.1,0,32.9,5.8,46.2,15.9
	c-18.9-16.1-43.3-25.7-70-25.7c-59.7,0-108.1,48.4-108.1,108.1c0,59.7,48.4,108.1,108.1,108.1c42.2,0,78.8-24.2,96.6-59.5
	C690.5,537.7,663.4,557,632.4,557z"/>
<path d="M986.8,413.2c0,0,95.1-65.2,103.1-104.2c7.4-36.2,106.4-20.7,120.4-18.3c1.7,0.3,3.3,1.3,4.2,2.8c2,3.4,1.4,10.4-21.6,20.5
	c-27.6,12.2-57.1,18.2-67.3,20c-1.7,0.3-3.5,0.4-5.2,0.5c-3.5,0.2-12.6,2.8-23.5,22.8c-14,25.6-111.3,145.2-111.3,145.2L986.8,413.2
	z"/>
<path class="st2" d="M620.6,45.2c-217.6,0-394,182.1-394,406.8s176.4,406.8,394,406.8s394-182.1,394-406.8S838.2,45.2,620.6,45.2z
	 M608.6,568.4c-59.7,0-108.1-48.4-108.1-108.1s48.4-108.1,108.1-108.1c59.7,0,108.1,48.4,108.1,108.1S668.4,568.4,608.6,568.4z"/>
<rect x="401.5" y="243.2" transform="matrix(0.8984 -0.4391 0.4391 0.8984 -75.772 205.2529)" class="st3" width="8.6" height="46.5"/>
<rect x="551" y="237.7" transform="matrix(0.3254 0.9456 -0.9456 0.3254 621.4196 -349.0518)" class="st4" width="8.6" height="46.5"/>
<rect x="748.1" y="548.4" transform="matrix(0.3254 0.9456 -0.9456 0.3254 1048.1554 -325.8181)" class="st4" width="8.6" height="46.5"/>
<rect x="712.5" y="237.7" transform="matrix(0.6676 0.7445 -0.7445 0.6676 432.5612 -446.907)" class="st5" width="8.6" height="46.5"/>
<rect x="830.3" y="278.9" transform="matrix(0.5697 0.8219 -0.8219 0.5697 607.4239 -555.9285)" class="st6" width="8.6" height="46.5"/>
<rect x="790.1" y="424.1" transform="matrix(0.7487 -0.6629 0.6629 0.7487 -96.8853 639.0727)" class="st7" width="8.6" height="46.5"/>
<rect x="401.5" y="370.7" transform="matrix(0.7487 -0.6629 0.6629 0.7487 -159.1673 368.0049)" class="st7" width="8.6" height="46.5"/>
<rect x="803.7" y="702.6" transform="matrix(0.6032 0.7976 -0.7976 0.6032 899.5513 -356.4348)" class="st6" width="8.6" height="46.5"/>
<rect x="691.5" y="660.7" transform="matrix(0.7685 0.6398 -0.6398 0.7685 598.6868 -286.8343)" class="st8" width="8.6" height="46.5"/>
<rect x="440.5" y="560" transform="matrix(0.9889 0.1488 -0.1488 0.9889 91.758 -59.6922)" class="st9" width="8.6" height="46.5"/>
<rect x="321" y="626.6" transform="matrix(0.8854 -0.4649 0.4649 0.8854 -264.8006 225.7163)" class="st4" width="8.6" height="46.5"/>
<rect x="325.3" y="479.3" transform="matrix(0.3759 0.9266 -0.9266 0.3759 671.364 8.1526)" class="st6" width="8.6" height="46.5"/>
<rect x="490.4" y="675.7" transform="matrix(0.4842 0.8749 -0.8749 0.4842 866.7283 -72.2768)" class="st7" width="8.6" height="46.5"/>
<rect x="583.7" y="749.1" transform="matrix(0.5995 0.8004 -0.8004 0.5995 853.6622 -161.2952)" class="st5" width="8.6" height="46.5"/>
<rect x="910.4" y="359" transform="matrix(0.5072 0.8618 -0.8618 0.5072 780.1506 -599.8997)" class="st9" width="8.6" height="46.5"/>
<rect x="886.4" y="509.3" transform="matrix(0.4925 0.8703 -0.8703 0.4925 915.5278 -504.9042)" class="st3" width="8.6" height="46.5"/>
<path d="M586.8,857.3l-4.7,177.6c-0.3,10.1-6.7,18.9-16.2,22.3c-19.9,7.1-53.9,16.7-73.2,8.4c-2.8-1.2-4.4-4.2-3.7-7.1
	c0.9-4.1,4.5-9.9,16-14.1c12.7-4.7,27.5-12.2,36.6-17.1c5.1-2.7,7.8-8.6,6.5-14.2L510,842.5L586.8,857.3z"/>
<path class="st10" d="M481.3,23.2c0,0,32.1-44.4,70,0"/>
<path class="st10" d="M661.6,23.2c0,0,32.1-44.4,70,0"/>
<ellipse cx="517.1" cy="118.6" rx="69.7" ry="88.5"/>
<ellipse class="st3" cx="517.1" cy="134.4" rx="64.2" ry="72.7"/>
<circle cx="520.9" cy="144.9" r="34.5"/>
<circle class="st3" cx="527" cy="131" r="9.9"/>
<ellipse cx="696.6" cy="118.6" rx="69.7" ry="88.5"/>
<ellipse class="st3" cx="696.6" cy="134.4" rx="64.2" ry="72.7"/>
<circle cx="700.4" cy="144.9" r="34.5"/>
<circle class="st3" cx="706.5" cy="131" r="9.9"/>
<rect x="294.4" y="334.1" transform="matrix(0.8973 -0.4414 0.4414 0.8973 -127.0702 168.537)" class="st8" width="8.6" height="46.5"/>
</svg>
