<?xml version="1.0" encoding="utf-8"?>
<!-- Generator: Adobe Illustrator 19.2.0, SVG Export Plug-In . SVG Version: 6.00 Build 0)  -->
<svg version="1.1" xmlns="http://www.w3.org/2000/svg" xmlns:xlink="http://www.w3.org/1999/xlink" x="0px" y="0px"
	 viewBox="0 0 196.8 196.8" style="enable-background:new 0 0 196.8 196.8;" xml:space="preserve">
<style type="text/css">
	.st0{clip-path:url(#SVGID_2_);}
	.st1{clip-path:url(#SVGID_4_);}
	.st2{clip-path:url(#SVGID_6_);}
	.st3{fill:#4D4D4E;}
	.st4{fill:#999999;}
	.st5{fill:#CCCCCC;}
	.st6{fill:#E57755;}
	.st7{fill:#F2F2F2;}
	.st8{clip-path:url(#SVGID_8_);}
	.st9{clip-path:url(#SVGID_10_);}
	.st10{fill:#C9E9E6;}
	.st11{fill:#96D5D0;}
	.st12{display:none;fill:#194A68;}
	.st13{fill:#FFFFFF;}
	.st14{fill:#E6E6E6;}
	.st15{fill:none;stroke:#38AB96;stroke-width:5;stroke-miterlimit:10;}
	.st16{fill:#276CA3;}
	.st17{fill:#38AB96;}
	.st18{clip-path:url(#SVGID_12_);}
	.st19{opacity:0.3;}
	.st20{clip-path:url(#SVGID_14_);}
</style>
<g id="Branding_Board">
	<g id="rBl9e8_1_">
		
			<image style="overflow:visible;" width="1280" height="800" id="rBl9e8_2_" xlink:href="6167D29ACEC5F8CD.png"  transform="matrix(0.186 0 0 0.186 1455.744 266.9457)">
		</image>
	</g>
	<g>
		<defs>
			<rect id="SVGID_1_" x="1281.3" y="191.2" width="206.1" height="223.8"/>
		</defs>
		<clipPath id="SVGID_2_">
			<use xlink:href="#SVGID_1_"  style="overflow:visible;"/>
		</clipPath>
		<g id="CNdWnx_1_" class="st0">
			
				<image style="overflow:visible;" width="600" height="847" id="CNdWnx_2_" xlink:href="6167D29ACEC5F8D7.png"  transform="matrix(0.3438 0 0 0.3438 1281.1471 156.1301)">
			</image>
		</g>
	</g>
	<g id="_x35_H447k_1_">
		
			<image style="overflow:visible;" width="576" height="1024" id="_x35_H447k_2_" xlink:href="6167D29ACEC5F8D9.png"  transform="matrix(0.3578 0 0 0.3578 1899.7588 -376.2779)">
		</image>
	</g>
	<g id="pK7I4I_1_">
		
			<image style="overflow:visible;" width="224" height="225" id="pK7I4I_2_" xlink:href="6167D29ACEC5F8DA.png"  transform="matrix(0.9131 0 0 0.9131 1693.9165 210.2754)">
		</image>
	</g>
	<g id="BNX0it_1_">
		
			<image style="overflow:visible;" width="600" height="372" id="BNX0it_2_" xlink:href="6167D29ACEC5F8DB.png"  transform="matrix(0.3466 0 0 0.3466 1071.5406 -375.6463)">
		</image>
	</g>
	<g id="TaS6Xa_1_">
		
			<image style="overflow:visible;" width="399" height="434" id="TaS6Xa_2_" xlink:href="6167D29ACEC5F8DF.png"  transform="matrix(0.5212 0 0 0.5212 1279.4888 -375.6463)">
		</image>
	</g>
	<g id="CVLGhx_1_">
		
			<image style="overflow:visible;" width="1000" height="632" id="CVLGhx_2_" xlink:href="6167D29ACEC5F8D8.png"  transform="matrix(0.208 0 0 0.208 1279.4014 55.9727)">
		</image>
	</g>
	<g id="y8Kbdr_1_">
		
			<image style="overflow:visible;" width="1440" height="900" id="y8Kbdr_2_" xlink:href="6167D29ACEC5F8C6.png"  transform="matrix(0.1456 0 0 0.1456 1071.6791 284.7158)">
		</image>
	</g>
	<g id="L7sTO9_1_">
		
			<image style="overflow:visible;" width="452" height="750" id="L7sTO9_2_" xlink:href="6167D29ACEC5F8C7.png"  transform="matrix(0.4205 0 0 0.4205 2105.4734 -376.6471)">
		</image>
	</g>
	<g>
		<defs>
			
				<rect id="SVGID_3_" x="2080.1" y="213.3" transform="matrix(-1.346658e-10 1 -1 -1.346658e-10 2509.1748 -1891.5984)" width="240.5" height="191.1"/>
		</defs>
		<clipPath id="SVGID_4_">
			<use xlink:href="#SVGID_3_"  style="overflow:visible;"/>
		</clipPath>
		<g id="uWDeA2_1_" class="st1">
			
				<image style="overflow:visible;" width="474" height="843" id="uWDeA2_2_" xlink:href="1401705FE29CF616.png"  transform="matrix(-6.834700e-11 0.5074 -0.5074 -6.834700e-11 2393.1289 188.5249)">
			</image>
		</g>
	</g>
	<g>
		<defs>
			<rect id="SVGID_5_" x="1900.7" y="211.5" width="204.2" height="204.2"/>
		</defs>
		<clipPath id="SVGID_6_">
			<use xlink:href="#SVGID_5_"  style="overflow:visible;"/>
		</clipPath>
		<g id="uUzMJq_1_" class="st2">
			
				<image style="overflow:visible;" width="450" height="470" id="uUzMJq_2_" xlink:href="1401705FE29CF612.png"  transform="matrix(0.4538 0 0 0.4538 1900.704 211.5433)">
			</image>
		</g>
	</g>
	<g id="ahy5YA_1_">
		
			<image style="overflow:visible;" width="580" height="800" id="ahy5YA_2_" xlink:href="1401705FE29CF60D.png"  transform="matrix(0.3555 0 0 0.3555 1693.5632 -375.6463)">
		</image>
	</g>
	<g id="KWKo3U_1_">
		
			<image style="overflow:visible;" width="500" height="728" id="KWKo3U_2_" xlink:href="1401705FE29CF60E.png"  transform="matrix(0.4143 0 0 0.4143 1693.0872 -91.3316)">
		</image>
	</g>
	<g id="pcscVK_1_">
		
			<image style="overflow:visible;" width="550" height="425" id="pcscVK_2_" xlink:href="1401705FE29CF60C.png"  transform="matrix(0.3796 0 0 0.3796 1071.6791 119.2021)">
		</image>
	</g>
	<g id="CS3WvC_1_">
		
			<image style="overflow:visible;" width="540" height="363" id="CS3WvC_2_" xlink:href="1401705FE29CF632.png"  transform="matrix(0.3535 0 0 0.3535 2104.6663 65.2221)">
		</image>
	</g>
	<g id="Lpn1Uo_1_">
		
			<image style="overflow:visible;" width="600" height="599" id="Lpn1Uo_2_" xlink:href="1401705FE29CF635.png"  transform="matrix(0.3519 0 0 0.3519 1277.28 -151.3338)">
		</image>
	</g>
	<g id="ltYyZX_1_">
		
			<image style="overflow:visible;" width="540" height="442" id="ltYyZX_2_" xlink:href="1401705FE29CF636.png"  transform="matrix(0.3542 0 0 0.3542 2104.2712 -91.3316)">
		</image>
	</g>
	<g id="BwYJCZ_1_">
		
			<image style="overflow:visible;" width="706" height="1059" id="BwYJCZ_2_" xlink:href="1401705FE29CF634.png"  transform="matrix(0.2904 0 0 0.2904 1900.0632 -91.3316)">
		</image>
	</g>
	<g>
		<rect x="1486.8" y="-127.2" class="st3" width="207.1" height="228.4"/>
		<path class="st4" d="M1620.1-56.5c-0.4-0.2-0.8-0.4-1.2-0.6c0.4-0.4,1.9-2.4-0.1-6.6c0,0-1.6-3-2.1-0.2c0,0-0.4,2.8-4.8,5.3
			c-0.9,0-1.5,0-1.5,0c-8.5,0-16,4.5-20.1,11.3c-4.1-6.8-11.6-11.3-20.1-11.3c-0.1,0-1.1,0-2.4,0.1c-4.1-2.5-4.5-5.2-4.5-5.2
			c-0.5-2.7-2.1,0.2-2.1,0.2c-2,4.2-0.5,6.1-0.1,6.6c-0.5,0.2-0.9,0.4-1.4,0.7c-7.7,3.9-13,11.8-13,21.1c0,13,10.5,23.5,23.5,23.5
			c8.5,0,16-4.5,20.1-11.3c4.1,6.8,11.6,11.3,20.1,11.3c13,0,23.5-10.5,23.5-23.5C1633.9-44.6,1628.3-52.8,1620.1-56.5z"/>
		<path d="M1575.8-72.8V-86c0-1.9,0.7-3.8,2-5.2c1.9-2.1,5.6-4.3,12.8-4.3c7.2,0,10.9,2.2,12.8,4.3c1.3,1.4,1.9,3.3,1.9,5.2v13.3
			l4.1-2c0.8-0.4,1.9-0.1,2.4,0.7l0,0c0.5,0.8,0.3,1.8-0.4,2.4c-7,6-30.1,7.9-41.8,0.2c-0.8-0.5-0.9-1.7-0.4-2.5l0,0
			c0.5-0.8,1.5-1.1,2.4-0.7L1575.8-72.8z"/>
		<path class="st4" d="M1578.2-13.5c0,0,8.6-4.6,12.2-13.9c0,0,4,10,12.2,13.7c0,0,0.3,26.3,4.3,39.4c0,0-15.6,7.2-33,0
			C1573.9,25.7,1579.2,6.8,1578.2-13.5z"/>
		<path class="st5" d="M1631.2-24.1c0,0-9.2,17.6-28.6,10.4c0,0-2.5,26.6,6.9,45.9C1609.6,32.1,1636,23.1,1631.2-24.1z"/>
		<path class="st5" d="M1549.6-24.1c0,0,9.2,17.6,28.6,10.4c0,0,2.5,26.6-7,45.9C1571.3,32.1,1544.8,23.1,1549.6-24.1z"/>
		<path class="st6" d="M1578.3,31.3L1578.3,31.3c-0.7,0-1.2-0.6-1.2-1.2v-5c0-0.7,0.6-1.2,1.2-1.2l0,0c0.7,0,1.2,0.6,1.2,1.2v5
			C1579.6,30.8,1579,31.3,1578.3,31.3z"/>
		<path class="st6" d="M1585.5,31.3L1585.5,31.3c-0.7,0-1.2-0.6-1.2-1.2v-5.2c0-0.7,0.6-1.2,1.2-1.2l0,0c0.7,0,1.2,0.6,1.2,1.2v5.2
			C1586.8,30.8,1586.2,31.3,1585.5,31.3z"/>
		<path class="st6" d="M1582,34.1L1582,34.1c-0.7,0-1.2-0.6-1.2-1.2V25c0-0.7,0.6-1.2,1.2-1.2l0,0c0.7,0,1.2,0.6,1.2,1.2v7.8
			C1583.2,33.5,1582.7,34.1,1582,34.1z"/>
		<path class="st6" d="M1594.9,31.3L1594.9,31.3c-0.7,0-1.2-0.6-1.2-1.2v-5.2c0-0.7,0.6-1.2,1.2-1.2l0,0c0.7,0,1.2,0.6,1.2,1.2v5.2
			C1596.1,30.8,1595.6,31.3,1594.9,31.3z"/>
		<path class="st6" d="M1602.1,31.3L1602.1,31.3c-0.7,0-1.2-0.6-1.2-1.2v-5c0-0.7,0.6-1.2,1.2-1.2l0,0c0.7,0,1.2,0.6,1.2,1.2v5
			C1603.4,30.8,1602.8,31.3,1602.1,31.3z"/>
		<path class="st6" d="M1598.6,34.1L1598.6,34.1c-0.7,0-1.2-0.6-1.2-1.2V25c0-0.7,0.6-1.2,1.2-1.2l0,0c0.7,0,1.2,0.6,1.2,1.2v7.8
			C1599.8,33.5,1599.3,34.1,1598.6,34.1z"/>
		<circle class="st7" cx="1569.7" cy="-34.7" r="10.3"/>
		<circle class="st7" cx="1611.3" cy="-34.9" r="10.3"/>
		<circle cx="1569.7" cy="-34.7" r="4.7"/>
		<path class="st7" d="M1569.8-38c0.7,0.3,2.3,1.2,3.4,2.7c0.1,0.1,0.2,0,0.2-0.1c-0.1-0.9-0.5-3.2-3.6-2.9
			C1569.7-38.2,1569.7-38,1569.8-38z"/>
		<circle cx="1611.3" cy="-34.7" r="4.7"/>
		<path class="st7" d="M1611.4-38c0.7,0.3,2.3,1.2,3.4,2.7c0.1,0.1,0.2,0,0.2-0.1c-0.1-0.9-0.5-3.2-3.6-2.9
			C1611.3-38.2,1611.3-38,1611.4-38z"/>
		<path d="M1606.6-48c-3.8,0-7.5,0.9-10.9,2.6c-1.7,0.8-3.5,1.6-5.1,1.6c-0.1,0-0.2,0-0.3,0c-0.1,0-0.2-0.1-0.3,0
			c-1.6,0-3.4-0.8-5.1-1.6c-3.4-1.7-7.1-2.6-10.9-2.6h-23.5v6.3c0,0,2.9,0.4,3.3,4.1c0.4,3.7,0.6,16.1,14.9,16.2
			c14.4,0.1,17.5-14.5,17.5-14.5s1.1-4.2,3.6-4.2c0.1,0,0.2,0,0.3,0c0.1,0,0.2,0,0.3,0c2.6,0,3.6,4.2,3.6,4.2s3.2,14.6,17.5,14.5
			c14.4-0.1,14.5-12.4,14.9-16.2c0.4-3.7,3.3-4.1,3.3-4.1V-48H1606.6z M1581.2-28.4c-2.9,3.8-6.8,5.5-13.4,5.5
			c-3.8,0-6.6-1.6-8.5-3.5c-2.6-2.5-3.9-6-3.9-9.6v-4.2c0-1.7,0.7-3.3,2.1-4.4c0,0,0.1,0,0.1-0.1c1.6-1.3,3.6-2,5.7-2
			c2.6,0,7.8,0,12.7,0c0.9,0,1.7,0.1,2.4,0.2c3.7,0.7,6.3,4,6.3,7.7C1584.6-35,1583.4-31.4,1581.2-28.4z M1625.1-36.1
			c0,3.6-1.4,7.1-3.9,9.6c-1.9,1.9-4.7,3.5-8.5,3.5c-6.6,0-10.5-1.7-13.4-5.5c-2.3-3-3.4-6.6-3.4-10.3v0c0-3.7,2.6-7,6.3-7.7
			c0.7-0.1,1.5-0.2,2.4-0.2c5,0,10.1,0,12.7,0c2.1,0,4.1,0.7,5.7,2c0,0,0.1,0,0.1,0.1c1.3,1.1,2.1,2.7,2.1,4.4V-36.1z"/>
		<rect x="1551.7" y="-46.7" class="st7" width="3" height="1.6"/>
		
			<rect x="1625.8" y="-46.7" transform="matrix(-1 -4.498414e-11 4.498414e-11 -1 3254.5732 -91.7767)" class="st7" width="3" height="1.6"/>
		<path class="st6" d="M1594.7-25.9c0-0.9-0.8-1.7-1.7-1.7h-2.9h-0.2h-2.9c-0.9,0-1.7,0.7-1.7,1.7c0,2.7,4.2,6.4,5,7.1
			C1590.3-18.8,1594.6-23.2,1594.7-25.9z"/>
		<path d="M1609.8-14.6c-4.7-3.4-10.1-11.7-19.5-4.6c-9.1-7-14.4,1.3-19.1,4.7c-4.8,3.4-10.1,0.8-10.1,0.8s3.8,8,14,8
			c9.3,0,14.3-7.8,15.2-9.2c1,1.6,6.3,9.2,15.5,9.2c10.2,0,14-8,14-8S1614.6-11.2,1609.8-14.6z"/>
		<rect x="1545.8" y="47.4" style="fill:none;" width="88.9" height="16.6"/>
		<text transform="matrix(1 0 0 1 1553.6879 59.492)" class="st5" style="font-family:'Impact'; font-size:15.3252px;">#RESPECTIT</text>
		<path class="st4" d="M1577.9-57.3c0,0,12.2-3.5,24.8,0c0,0-6.7,3-12.4,10C1590.3-47.3,1585.2-53.5,1577.9-57.3z"/>
	</g>
	<g>
		<defs>
			<rect id="SVGID_7_" x="1486.4" y="-376.6" width="207.7" height="249.4"/>
		</defs>
		<clipPath id="SVGID_8_">
			<use xlink:href="#SVGID_7_"  style="overflow:visible;"/>
		</clipPath>
		<g id="yEozXW_1_" class="st8">
			
				<image style="overflow:visible;" width="500" height="595" id="yEozXW_2_" xlink:href="1401705FE29CF63C.png"  transform="matrix(0.45 0 0 0.45 1477.6969 -385.4691)">
			</image>
		</g>
	</g>
	<g id="WffNKq_1_">
		
			<image style="overflow:visible;" width="1280" height="1024" id="WffNKq_2_" xlink:href="1401705FE29CF656.png"  transform="matrix(0.1618 0 0 0.1618 1486.7688 101.2276)">
		</image>
	</g>
	<g id="_x33_a3NCk_1_">
		
			<image style="overflow:visible;" width="500" height="500" id="_x33_a3NCk_2_" xlink:href="1401705FE29CF659.png"  transform="matrix(0.4168 0 0 0.4168 1071.1823 -246.7185)">
		</image>
	</g>
	<g>
		<defs>
			<rect id="SVGID_9_" x="1071.5" y="-39.3" width="207.7" height="158.5"/>
		</defs>
		<clipPath id="SVGID_10_">
			<use xlink:href="#SVGID_9_"  style="overflow:visible;"/>
		</clipPath>
		<g id="EexyyP_1_" class="st9">
			
				<image style="overflow:visible;" width="600" height="600" id="EexyyP_2_" xlink:href="1401705FE29CF65A.png"  transform="matrix(0.3462 0 0 0.3462 1071.6791 -64.845)">
			</image>
		</g>
	</g>
</g>
<g id="Cover_page">
	<circle class="st10" cx="98.4" cy="98.4" r="98.4"/>
	<path class="st11" d="M77.9,194.6c-61.1-13.8-74-68.8-74-68.8l88.6-74l64,51.6l-14.3,17.2l0,20.7c0,2-0.8,3.9-2.2,5.3l-58.3,48.7
		C81.7,195.3,81.4,195.4,77.9,194.6z"/>
	<path class="st12" d="M158.3,101.3l-16.1,19l0,24.1l-52.6,51.9c0,0-63.9-2.1-85.5-70.1l72-60.6l22.4-11.9L158.3,101.3z"/>
	<rect x="405.5" y="-376.6" class="st10" width="612" height="792.4"/>
	<polygon class="st13" points="916.8,129.9 724.8,240.8 532.9,129.9 532.9,-91.8 724.8,-202.6 916.8,-91.8 	"/>
	<rect x="532.9" y="5.4" style="fill:none;" width="383.9" height="28.7"/>
	<text transform="matrix(1 0 0 1 564.4588 32.0316)" class="st14" style="font-family:'Phosphate-Inline'; font-size:40px;">Branding Board</text>
	<line class="st15" x1="405.5" y1="-356.3" x2="1017.5" y2="-356.3"/>
	<line class="st15" x1="405.5" y1="395.8" x2="1017.5" y2="395.8"/>
	<rect x="855.5" y="297.3" style="fill:none;" width="149" height="80.4"/>
	<text transform="matrix(1 0 0 1 888.1043 311.3237)"><tspan x="0" y="0" class="st16" style="font-family:'FuturaStd-Book'; font-size:17px;">Graphic Design</tspan><tspan x="42.6" y="20.4" class="st16" style="font-family:'FuturaStd-Book'; font-size:17px;">Rob Smith </tspan><tspan x="-13.7" y="40.8" class="st16" style="font-family:'FuturaStd-Book'; font-size:17px;">Shaayaan Jameel</tspan><tspan x="13.3" y="61.2" class="st16" style="font-family:'FuturaStd-Book'; font-size:17px;">09/28/2015</tspan></text>
	<rect x="32.2" y="-362.7" class="st10" width="76.5" height="76.5"/>
	<rect x="-44.3" y="-362.7" class="st14" width="76.5" height="76.5"/>
	<rect x="108.7" y="-362.7" class="st17" width="76.5" height="76.5"/>
	<rect x="185.2" y="-362.7" class="st16" width="76.5" height="76.5"/>
	<rect x="108.7" y="-265" class="st17" width="76.5" height="76.5"/>
	<rect x="185.2" y="-265" class="st16" width="76.5" height="76.5"/>
	<rect x="32.2" y="-265" class="st10" width="76.5" height="76.5"/>
	<g>
		<path class="st13" d="M108.3,147.1c0-9.8,0-19.2,0-28.9c-6.5,0-12.9,0-19.7,0c0,9.5,0,19,0,28.9c-1.3,0-2.3,0-3.2,0
			c-8.2,0-16.3,0-24.5,0c-4.3,0-6.1-1.8-6.2-6c-0.1-11.3-0.1-22.6,0-33.9c0-1,0.7-2.2,1.4-2.9c14-11.6,28-23.2,42.2-34.9
			c5.6,4.6,11.3,9.2,16.9,13.8c8.4,6.9,16.8,13.8,25.1,20.9c0.9,0.8,1.7,2.4,1.7,3.6c0.1,11,0.1,22,0.1,33c0,4.6-1.8,6.4-6.3,6.4
			C126.8,147.1,117.7,147.1,108.3,147.1z"/>
		<path class="st13" d="M98.3,62.7C83.5,75.1,68.8,87.4,54.1,99.6c-2.5,2.1-4.9,4.1-7.4,6.2c-1.7,1.5-3.2,1.5-4.7-0.3
			c-6.1-7.4-6.4-6.2,0.7-12.1c16.6-13.8,33.1-27.7,49.7-41.4c3.6-3,8.3-2.9,12,0.1c5.9,4.9,11.8,9.8,18.4,15.3c0-3.2,0-5.7,0-8.3
			c0-9,0-9,9.2-9c2.1,0,4.3,0.1,6.4,0c2.8-0.1,3.8,1.1,3.8,3.8c-0.1,9,0,18.1-0.1,27.1c0,1.9,0.6,3,2,4.2c4.6,3.7,9.1,7.6,13.7,11.3
			c2,1.6,2.1,3.1,0.5,4.9c-1,1.2-2,2.4-3,3.6c-2.2,2.6-3,2.7-5.7,0.4C132.7,91.2,98.7,62.9,98.3,62.7z"/>
	</g>
	<g>
		<defs>
			<rect id="SVGID_11_" x="301" y="-52.1" width="75" height="133.1"/>
		</defs>
		<clipPath id="SVGID_12_">
			<use xlink:href="#SVGID_11_"  style="overflow:visible;"/>
		</clipPath>
		<g class="st18">
			<path class="st19" d="M318,81c0-16.8,0-32.9,0-49.5c-11.2,0-22.1,0-33.7,0c0,16.2,0,32.6,0,49.5c-2.3,0-3.9,0-5.6,0
				c-14,0-28,0.1-42,0c-7.4-0.1-10.5-3-10.5-10.3c-0.1-19.3-0.1-38.7,0.1-58c0-1.7,1.1-3.8,2.4-4.9c23.9-19.9,47.9-39.7,72.3-59.8
				c9.7,7.9,19.3,15.8,28.9,23.7c14.4,11.9,28.8,23.7,43,35.8c1.6,1.4,2.9,4,3,6.1c0.2,18.8,0.2,37.7,0.1,56.5c0,7.8-3,10.9-10.9,11
				C349.7,81,334.2,81,318,81z"/>
		</g>
	</g>
	<g>
		<defs>
			<rect id="SVGID_13_" x="300.8" y="-85.9" width="104.7" height="98.1"/>
		</defs>
		<clipPath id="SVGID_14_">
			<use xlink:href="#SVGID_13_"  style="overflow:visible;"/>
		</clipPath>
		<g class="st20">
			<path class="st19" d="M300.8-63.5c-25.3,21.2-50.5,42.2-75.7,63.2c-4.2,3.5-8.5,7-12.6,10.6c-2.9,2.5-5.4,2.6-8-0.5
				c-10.4-12.6-11-10.6,1.3-20.8c28.4-23.6,56.7-47.4,85.1-71c6.2-5.2,14.2-5,20.6,0.2c10.1,8.4,20.2,16.8,31.5,26.2
				c0-5.5,0-9.8,0-14.2c0-15.5,0-15.5,15.7-15.5c3.7,0,7.3,0.1,11,0c4.7-0.2,6.5,1.9,6.5,6.6c-0.1,15.5,0.1,31-0.1,46.5
				c0,3.2,1,5.2,3.4,7.1c7.9,6.4,15.6,13,23.5,19.4c3.4,2.7,3.6,5.3,0.8,8.4c-1.8,2-3.4,4.1-5.1,6.1c-3.8,4.5-5.1,4.6-9.7,0.7
				C359.9-14.7,301.5-63.2,300.8-63.5z"/>
		</g>
	</g>
</g>
</svg>
