<svg xmlns="http://www.w3.org/2000/svg" xmlns:xlink="http://www.w3.org/1999/xlink" viewBox="0 0 196.8 196.8" enable-background="new 0 0 196.8 196.8"><style type="text/css">.st0{clip-path:url(#SVGID_2_);} .st1{clip-path:url(#SVGID_4_);} .st2{clip-path:url(#SVGID_6_);} .st3{fill:#4D4D4E;} .st4{fill:#999999;} .st5{fill:#CCCCCC;} .st6{fill:#E57755;} .st7{fill:#F2F2F2;} .st8{clip-path:url(#SVGID_8_);} .st9{clip-path:url(#SVGID_10_);} .st10{fill:#C9E9E6;} .st11{fill:#96D5D0;} .st12{display:none;fill:#194A68;} .st13{fill:#FFFFFF;} .st14{fill:#E6E6E6;} .st15{fill:none;stroke:#38AB96;stroke-width:5;stroke-miterlimit:10;} .st16{fill:#276CA3;} .st17{fill:#38AB96;} .st18{clip-path:url(#SVGID_12_);} .st19{opacity:0.3;} .st20{clip-path:url(#SVGID_14_);}</style><g id="Branding_Board"><image width="1280" height="800" id="rBl9e8_2_" xlink:href="6167D29ACEC5F8CD.png" transform="matrix(.186 0 0 .186 1455.744 266.946)" overflow="visible"/><defs><path id="SVGID_1_" d="M1281.3 191.2h206.1v223.8h-206.1z"/></defs><clipPath id="SVGID_2_"><use xlink:href="#SVGID_1_" overflow="visible"/></clipPath><image width="600" height="847" id="CNdWnx_2_" xlink:href="6167D29ACEC5F8D7.png" transform="matrix(.344 0 0 .344 1281.147 156.13)" overflow="visible" class="st0"/><image width="576" height="1024" id="_x35_H447k_2_" xlink:href="6167D29ACEC5F8D9.png" transform="matrix(.358 0 0 .358 1899.759 -376.278)" overflow="visible"/><image width="224" height="225" id="pK7I4I_2_" xlink:href="6167D29ACEC5F8DA.png" transform="matrix(.913 0 0 .913 1693.917 210.275)" overflow="visible"/><image width="600" height="372" id="BNX0it_2_" xlink:href="6167D29ACEC5F8DB.png" transform="matrix(.347 0 0 .347 1071.541 -375.646)" overflow="visible"/><image width="399" height="434" id="TaS6Xa_2_" xlink:href="6167D29ACEC5F8DF.png" transform="matrix(.521 0 0 .521 1279.489 -375.646)" overflow="visible"/><image width="1000" height="632" id="CVLGhx_2_" xlink:href="6167D29ACEC5F8D8.png" transform="matrix(.208 0 0 .208 1279.401 55.973)" overflow="visible"/><image width="1440" height="900" id="y8Kbdr_2_" xlink:href="6167D29ACEC5F8C6.png" transform="matrix(.146 0 0 .146 1071.679 284.716)" overflow="visible"/><image width="452" height="750" id="L7sTO9_2_" xlink:href="6167D29ACEC5F8C7.png" transform="matrix(.42 0 0 .42 2105.473 -376.647)" overflow="visible"/><defs><path id="SVGID_3_" d="M2295.875 188.502v240.5h-191.1v-240.5z"/></defs><clipPath id="SVGID_4_"><use xlink:href="#SVGID_3_" overflow="visible"/></clipPath><image width="474" height="843" id="uWDeA2_2_" xlink:href="1401705FE29CF616.png" transform="matrix(0 .507 -.507 0 2393.129 188.525)" overflow="visible" class="st1"/><defs><path id="SVGID_5_" d="M1900.7 211.5h204.2v204.2h-204.2z"/></defs><clipPath id="SVGID_6_"><use xlink:href="#SVGID_5_" overflow="visible"/></clipPath><image width="450" height="470" id="uUzMJq_2_" xlink:href="1401705FE29CF612.png" transform="matrix(.454 0 0 .454 1900.704 211.543)" overflow="visible" class="st2"/><image width="580" height="800" id="ahy5YA_2_" xlink:href="1401705FE29CF60D.png" transform="matrix(.355 0 0 .355 1693.563 -375.646)" overflow="visible"/><image width="500" height="728" id="KWKo3U_2_" xlink:href="1401705FE29CF60E.png" transform="matrix(.414 0 0 .414 1693.087 -91.332)" overflow="visible"/><image width="550" height="425" id="pcscVK_2_" xlink:href="1401705FE29CF60C.png" transform="matrix(.38 0 0 .38 1071.679 119.202)" overflow="visible"/><image width="540" height="363" id="CS3WvC_2_" xlink:href="1401705FE29CF632.png" transform="matrix(.353 0 0 .353 2104.666 65.222)" overflow="visible"/><image width="600" height="599" id="Lpn1Uo_2_" xlink:href="1401705FE29CF635.png" transform="matrix(.352 0 0 .352 1277.28 -151.334)" overflow="visible"/><image width="540" height="442" id="ltYyZX_2_" xlink:href="1401705FE29CF636.png" transform="matrix(.354 0 0 .354 2104.271 -91.332)" overflow="visible"/><image width="706" height="1059" id="BwYJCZ_2_" xlink:href="1401705FE29CF634.png" transform="matrix(.29 0 0 .29 1900.063 -91.332)" overflow="visible"/><path class="st3" d="M1486.8-127.2h207.1v228.4h-207.1z"/><path class="st4" d="M1620.1-56.5l-1.2-.6c.4-.4 1.9-2.4-.1-6.6 0 0-1.6-3-2.1-.2 0 0-.4 2.8-4.8 5.3h-1.5c-8.5 0-16 4.5-20.1 11.3-4.1-6.8-11.6-11.3-20.1-11.3-.1 0-1.1 0-2.4.1-4.1-2.5-4.5-5.2-4.5-5.2-.5-2.7-2.1.2-2.1.2-2 4.2-.5 6.1-.1 6.6-.5.2-.9.4-1.4.7-7.7 3.9-13 11.8-13 21.1 0 13 10.5 23.5 23.5 23.5 8.5 0 16-4.5 20.1-11.3 4.1 6.8 11.6 11.3 20.1 11.3 13 0 23.5-10.5 23.5-23.5 0-9.5-5.6-17.7-13.8-21.4z"/><path d="M1575.8-72.8v-13.2c0-1.9.7-3.8 2-5.2 1.9-2.1 5.6-4.3 12.8-4.3 7.2 0 10.9 2.2 12.8 4.3 1.3 1.4 1.9 3.3 1.9 5.2v13.3l4.1-2c.8-.4 1.9-.1 2.4.7.5.8.3 1.8-.4 2.4-7 6-30.1 7.9-41.8.2-.8-.5-.9-1.7-.4-2.5s1.5-1.1 2.4-.7l4.2 1.8z"/><path class="st4" d="M1578.2-13.5s8.6-4.6 12.2-13.9c0 0 4 10 12.2 13.7 0 0 .3 26.3 4.3 39.4 0 0-15.6 7.2-33 0 0 0 5.3-18.9 4.3-39.2z"/><path class="st5" d="M1631.2-24.1s-9.2 17.6-28.6 10.4c0 0-2.5 26.6 6.9 45.9.1-.1 26.5-9.1 21.7-56.3zm-81.6 0s9.2 17.6 28.6 10.4c0 0 2.5 26.6-7 45.9.1-.1-26.4-9.1-21.6-56.3z"/><path class="st6" d="M1578.3 31.3c-.7 0-1.2-.6-1.2-1.2v-5c0-.7.6-1.2 1.2-1.2.7 0 1.2.6 1.2 1.2v5c.1.7-.5 1.2-1.2 1.2zm7.2 0c-.7 0-1.2-.6-1.2-1.2v-5.2c0-.7.6-1.2 1.2-1.2.7 0 1.2.6 1.2 1.2v5.2c.1.7-.5 1.2-1.2 1.2zm-3.5 2.8c-.7 0-1.2-.6-1.2-1.2v-7.9c0-.7.6-1.2 1.2-1.2.7 0 1.2.6 1.2 1.2v7.8c0 .7-.5 1.3-1.2 1.3zm12.9-2.8c-.7 0-1.2-.6-1.2-1.2v-5.2c0-.7.6-1.2 1.2-1.2.7 0 1.2.6 1.2 1.2v5.2c0 .7-.5 1.2-1.2 1.2zm7.2 0c-.7 0-1.2-.6-1.2-1.2v-5c0-.7.6-1.2 1.2-1.2.7 0 1.2.6 1.2 1.2v5c.1.7-.5 1.2-1.2 1.2zm-3.5 2.8c-.7 0-1.2-.6-1.2-1.2v-7.9c0-.7.6-1.2 1.2-1.2.7 0 1.2.6 1.2 1.2v7.8c0 .7-.5 1.3-1.2 1.3z"/><circle class="st7" cx="1569.7" cy="-34.7" r="10.3"/><circle class="st7" cx="1611.3" cy="-34.9" r="10.3"/><circle cx="1569.7" cy="-34.7" r="4.7"/><path class="st7" d="M1569.8-38c.7.3 2.3 1.2 3.4 2.7.1.1.2 0 .2-.1-.1-.9-.5-3.2-3.6-2.9-.1.1-.1.3 0 .3z"/><circle cx="1611.3" cy="-34.7" r="4.7"/><path class="st7" d="M1611.4-38c.7.3 2.3 1.2 3.4 2.7.1.1.2 0 .2-.1-.1-.9-.5-3.2-3.6-2.9-.1.1-.1.3 0 .3z"/><path d="M1606.6-48c-3.8 0-7.5.9-10.9 2.6-1.7.8-3.5 1.6-5.1 1.6h-.3c-.1 0-.2-.1-.3 0-1.6 0-3.4-.8-5.1-1.6-3.4-1.7-7.1-2.6-10.9-2.6h-23.5v6.3s2.9.4 3.3 4.1c.4 3.7.6 16.1 14.9 16.2 14.4.1 17.5-14.5 17.5-14.5s1.1-4.2 3.6-4.2h.6c2.6 0 3.6 4.2 3.6 4.2s3.2 14.6 17.5 14.5c14.4-.1 14.5-12.4 14.9-16.2.4-3.7 3.3-4.1 3.3-4.1v-6.3h-23.1zm-25.4 19.6c-2.9 3.8-6.8 5.5-13.4 5.5-3.8 0-6.6-1.6-8.5-3.5-2.6-2.5-3.9-6-3.9-9.6v-4.2c0-1.7.7-3.3 2.1-4.4 0 0 .1 0 .1-.1 1.6-1.3 3.6-2 5.7-2h12.7c.9 0 1.7.1 2.4.2 3.7.7 6.3 4 6.3 7.7-.1 3.8-1.3 7.4-3.5 10.4zm43.9-7.7c0 3.6-1.4 7.1-3.9 9.6-1.9 1.9-4.7 3.5-8.5 3.5-6.6 0-10.5-1.7-13.4-5.5-2.3-3-3.4-6.6-3.4-10.3 0-3.7 2.6-7 6.3-7.7.7-.1 1.5-.2 2.4-.2h12.7c2.1 0 4.1.7 5.7 2 0 0 .1 0 .1.1 1.3 1.1 2.1 2.7 2.1 4.4v4.1z"/><path class="st7" d="M1551.7-46.7h3v1.6h-3zm77.073 1.623h-3v-1.6h3z"/><path class="st6" d="M1594.7-25.9c0-.9-.8-1.7-1.7-1.7h-6c-.9 0-1.7.7-1.7 1.7 0 2.7 4.2 6.4 5 7.1 0 0 4.3-4.4 4.4-7.1z"/><path d="M1609.8-14.6c-4.7-3.4-10.1-11.7-19.5-4.6-9.1-7-14.4 1.3-19.1 4.7-4.8 3.4-10.1.8-10.1.8s3.8 8 14 8c9.3 0 14.3-7.8 15.2-9.2 1 1.6 6.3 9.2 15.5 9.2 10.2 0 14-8 14-8s-5.2 2.5-10-.9z"/><path d="M1545.8 47.4h88.9v16.6h-88.9z" fill="none"/><text transform="translate(1553.688 59.492)" class="st5" font-family="Impact" font-size="15.325">#RESPECTIT</text><path class="st4" d="M1577.9-57.3s12.2-3.5 24.8 0c0 0-6.7 3-12.4 10 0 0-5.1-6.2-12.4-10z"/><defs><path id="SVGID_7_" d="M1486.4-376.6h207.7v249.4h-207.7z"/></defs><clipPath id="SVGID_8_"><use xlink:href="#SVGID_7_" overflow="visible"/></clipPath><image width="500" height="595" id="yEozXW_2_" xlink:href="1401705FE29CF63C.png" transform="matrix(.45 0 0 .45 1477.697 -385.469)" overflow="visible" class="st8"/><image width="1280" height="1024" id="WffNKq_2_" xlink:href="1401705FE29CF656.png" transform="matrix(.162 0 0 .162 1486.769 101.228)" overflow="visible"/><image width="500" height="500" id="_x33_a3NCk_2_" xlink:href="1401705FE29CF659.png" transform="matrix(.417 0 0 .417 1071.182 -246.719)" overflow="visible"/><defs><path id="SVGID_9_" d="M1071.5-39.3h207.7v158.5h-207.7z"/></defs><clipPath id="SVGID_10_"><use xlink:href="#SVGID_9_" overflow="visible"/></clipPath><image width="600" height="600" id="EexyyP_2_" xlink:href="1401705FE29CF65A.png" transform="matrix(.346 0 0 .346 1071.679 -64.845)" overflow="visible" class="st9"/></g><g id="Cover_page"><circle class="st10" cx="98.4" cy="98.4" r="98.4"/><path class="st11" d="M77.9 194.6c-61.1-13.8-74-68.8-74-68.8l88.6-74 64 51.6-14.3 17.2v20.7c0 2-.8 3.9-2.2 5.3l-58.3 48.7s-.3.1-3.8-.7z"/><path class="st12" d="M158.3 101.3l-16.1 19v24.1l-52.6 51.9s-63.9-2.1-85.5-70.1l72-60.6 22.4-11.9 59.8 47.6z"/><path class="st10" d="M405.5-376.6h612v792.4h-612z"/><path class="st13" d="M916.8 129.9l-192 110.9-191.9-110.9v-221.7l191.9-110.8 192 110.8z"/><path d="M532.9 5.4h383.9v28.7h-383.9z" fill="none"/><text transform="translate(564.459 32.032)" class="st14" font-family="Phosphate-Inline" font-size="40">Branding Board</text><path class="st15" d="M405.5-356.3h612m-612 752.1h612"/><path d="M855.5 297.3h149v80.4h-149z" fill="none"/><text transform="translate(888.104 311.324)"><tspan x="0" y="0" class="st16" font-family="FuturaStd-Book" font-size="17">Graphic Design</tspan><tspan x="42.6" y="20.4" class="st16" font-family="FuturaStd-Book" font-size="17">Rob Smith</tspan><tspan x="-13.7" y="40.8" class="st16" font-family="FuturaStd-Book" font-size="17">Shaayaan Jameel</tspan><tspan x="13.3" y="61.2" class="st16" font-family="FuturaStd-Book" font-size="17">09/28/2015</tspan></text><path class="st10" d="M32.2-362.7h76.5v76.5h-76.5z"/><path class="st14" d="M-44.3-362.7h76.5v76.5h-76.5z"/><path class="st17" d="M108.7-362.7h76.5v76.5h-76.5z"/><path class="st16" d="M185.2-362.7h76.5v76.5h-76.5z"/><path class="st17" d="M108.7-265h76.5v76.5h-76.5z"/><path class="st16" d="M185.2-265h76.5v76.5h-76.5z"/><path class="st10" d="M32.2-265h76.5v76.5h-76.5z"/><path class="st13" d="M108.3 147.1v-28.9h-19.7v28.9h-27.7c-4.3 0-6.1-1.8-6.2-6-.1-11.3-.1-22.6 0-33.9 0-1 .7-2.2 1.4-2.9 14-11.6 28-23.2 42.2-34.9l16.9 13.8c8.4 6.9 16.8 13.8 25.1 20.9.9.8 1.7 2.4 1.7 3.6.1 11 .1 22 .1 33 0 4.6-1.8 6.4-6.3 6.4h-27.5zm-10-84.4c-14.8 12.4-29.5 24.7-44.2 36.9l-7.4 6.2c-1.7 1.5-3.2 1.5-4.7-.3-6.1-7.4-6.4-6.2.7-12.1 16.6-13.8 33.1-27.7 49.7-41.4 3.6-3 8.3-2.9 12 .1 5.9 4.9 11.8 9.8 18.4 15.3v-8.3c0-9 0-9 9.2-9 2.1 0 4.3.1 6.4 0 2.8-.1 3.8 1.1 3.8 3.8l-.1 27.1c0 1.9.6 3 2 4.2l13.7 11.3c2 1.6 2.1 3.1.5 4.9l-3 3.6c-2.2 2.6-3 2.7-5.7.4-16.9-14.2-50.9-42.5-51.3-42.7z"/><defs><path id="SVGID_11_" d="M301-52.1h75v133.1h-75z"/></defs><clipPath id="SVGID_12_"><use xlink:href="#SVGID_11_" overflow="visible"/></clipPath><path class="st19" d="M318 81v-49.5h-33.7v49.5h-5.6c-14 0-28 .1-42 0-7.4-.1-10.5-3-10.5-10.3-.1-19.3-.1-38.7.1-58 0-1.7 1.1-3.8 2.4-4.9 23.9-19.9 47.9-39.7 72.3-59.8 9.7 7.9 19.3 15.8 28.9 23.7 14.4 11.9 28.8 23.7 43 35.8 1.6 1.4 2.9 4 3 6.1.2 18.8.2 37.7.1 56.5 0 7.8-3 10.9-10.9 11-15.4-.1-30.9-.1-47.1-.1z"/><defs><path id="SVGID_13_" d="M300.8-85.9h104.7v98.1h-104.7z"/></defs><clipPath id="SVGID_14_"><use xlink:href="#SVGID_13_" overflow="visible"/></clipPath><path class="st19" d="M300.8-63.5c-25.3 21.2-50.5 42.2-75.7 63.2-4.2 3.5-8.5 7-12.6 10.6-2.9 2.5-5.4 2.6-8-.5-10.4-12.6-11-10.6 1.3-20.8l85.1-71c6.2-5.2 14.2-5 20.6.2 10.1 8.4 20.2 16.8 31.5 26.2v-14.2c0-15.5 0-15.5 15.7-15.5 3.7 0 7.3.1 11 0 4.7-.2 6.5 1.9 6.5 6.6-.1 15.5.1 31-.1 46.5 0 3.2 1 5.2 3.4 7.1l23.5 19.4c3.4 2.7 3.6 5.3.8 8.4-1.8 2-3.4 4.1-5.1 6.1-3.8 4.5-5.1 4.6-9.7.7-29.1-24.2-87.5-72.7-88.2-73z"/></g></svg>