<svg xmlns="http://www.w3.org/2000/svg" width="196.8" height="196.8" viewBox="0 0 196.8 196.8"><style type="text/css">.st0{fill:#C9E9E6;} .st1{fill:#96D5D0;} .st2{display:none;fill:#194A68;} .st3{fill:#FFFFFF;}</style><circle class="st0" cx="98.4" cy="98.4" r="98.4"/><path class="st1" d="M77.9 194.6c-61.1-13.8-74-68.8-74-68.8l88.6-74 64 51.6-14.3 17.2v20.7c0 2-.8 3.9-2.2 5.3l-58.3 48.7s-.3.1-3.8-.7z"/><path class="st2" d="M158.3 101.3l-16.1 19v24.1l-52.6 51.9s-63.9-2.1-85.5-70.1l72-60.6 22.4-11.9 59.8 47.6z"/><path class="st3" d="M108.3 147.1v-28.9h-19.7v28.9h-27.7c-4.3 0-6.1-1.8-6.2-6-.1-11.3-.1-22.6 0-33.9 0-1 .7-2.2 1.4-2.9 14-11.6 28-23.2 42.2-34.9l16.9 13.8c8.4 6.9 16.8 13.8 25.1 20.9.9.8 1.7 2.4 1.7 3.6.1 11 .1 22 .1 33 0 4.6-1.8 6.4-6.3 6.4h-27.5zm-10-84.4c-14.8 12.4-29.5 24.7-44.2 36.9l-7.4 6.2c-1.7 1.5-3.2 1.5-4.7-.3-6.1-7.4-6.4-6.2.7-12.1 16.6-13.8 33.1-27.7 49.7-41.4 3.6-3 8.3-2.9 12 .1 5.9 4.9 11.8 9.8 18.4 15.3v-8.3c0-9 0-9 9.2-9 2.1 0 4.3.1 6.4 0 2.8-.1 3.8 1.1 3.8 3.8l-.1 27.1c0 1.9.6 3 2 4.2l13.7 11.3c2 1.6 2.1 3.1.5 4.9l-3 3.6c-2.2 2.6-3 2.7-5.7.4-16.9-14.2-50.9-42.5-51.3-42.7z"/></svg>