<?xml version="1.0" encoding="utf-8"?>
<!-- Generator: Adobe Illustrator 19.2.0, SVG Export Plug-In . SVG Version: 6.00 Build 0)  -->
<svg version="1.1" id="Layer_1" xmlns="http://www.w3.org/2000/svg" xmlns:xlink="http://www.w3.org/1999/xlink" x="0px" y="0px"
	 width="196.8px" height="196.8px" viewBox="0 0 196.8 196.8" style="enable-background:new 0 0 196.8 196.8;" xml:space="preserve"
	>
<style type="text/css">
	.st0{fill:#C9E9E6;}
	.st1{fill:#96D5D0;}
	.st2{display:none;fill:#194A68;}
	.st3{fill:#FFFFFF;}
</style>
<circle class="st0" cx="98.4" cy="98.4" r="98.4"/>
<path class="st1" d="M77.9,194.6c-61.1-13.8-74-68.8-74-68.8l88.6-74l64,51.6l-14.3,17.2v20.7c0,2-0.8,3.9-2.2,5.3l-58.3,48.7
	C81.7,195.3,81.4,195.4,77.9,194.6z"/>
<path class="st2" d="M158.3,101.3l-16.1,19v24.1l-52.6,51.9c0,0-63.9-2.1-85.5-70.1l72-60.6l22.4-11.9L158.3,101.3L158.3,101.3z"/>
<path class="st3" d="M108.3,147.1v-28.9H88.6v28.9H60.9c-4.3,0-6.1-1.8-6.2-6c-0.1-11.3-0.1-22.6,0-33.9c0-1,0.7-2.2,1.4-2.9
	c14-11.6,28-23.2,42.2-34.9l16.9,13.8c8.4,6.9,16.8,13.8,25.1,20.9c0.9,0.8,1.7,2.4,1.7,3.6c0.1,11,0.1,22,0.1,33
	c0,4.6-1.8,6.4-6.3,6.4H108.3z M98.3,62.7C83.5,75.1,68.8,87.4,54.1,99.6l-7.4,6.2c-1.7,1.5-3.2,1.5-4.7-0.3
	c-6.1-7.4-6.4-6.2,0.7-12.1C59.3,79.6,75.8,65.7,92.4,52c3.6-3,8.3-2.9,12,0.1c5.9,4.9,11.8,9.8,18.4,15.3v-8.3c0-9,0-9,9.2-9
	c2.1,0,4.3,0.1,6.4,0c2.8-0.1,3.8,1.1,3.8,3.8L142.1,81c0,1.9,0.6,3,2,4.2l13.7,11.3c2,1.6,2.1,3.1,0.5,4.9l-3,3.6
	c-2.2,2.6-3,2.7-5.7,0.4C132.7,91.2,98.7,62.9,98.3,62.7L98.3,62.7z"/>
</svg>
