<?xml version="1.0" encoding="utf-8"?>
<!-- Generator: Adobe Illustrator 19.1.0, SVG Export Plug-In . SVG Version: 6.00 Build 0)  -->
<svg version="1.1" id="Layer_1" xmlns="http://www.w3.org/2000/svg" xmlns:xlink="http://www.w3.org/1999/xlink" x="0px" y="0px"
	 viewBox="-522 496.8 463.2 463.5" style="enable-background:new -522 496.8 463.2 463.5;" xml:space="preserve">
<style type="text/css">
	.st0{fill:#FFFFFF;}
</style>
<path id="instagram" class="st0" d="M-290.4,960.3h-178.4c-14.8,0-27.4-5.4-37.8-15.8c-8.5-8.5-13.6-18.9-15-31
	c-0.3-2.7-0.4-5.5-0.4-8.3V550.1c0-14.7,5.5-27.3,15.8-37.7c9-9,20-14.1,32.7-15.3c1.7-0.2,3.5-0.3,5.2-0.3h355.7
	c14.9,0,27.7,5.3,38.2,15.8c8.9,8.9,14,19.7,15.3,32.2c0.2,1.8,0.3,3.6,0.3,5.4v356.5c0,13.1-4.3,24.6-12.7,34.5
	c-8.5,10.1-19.4,16.1-32.4,18.3c-2.8,0.5-5.8,0.6-8.6,0.6h-99.9C-238.4,960.3-264.4,960.3-290.4,960.3z M-152.2,693.2
	c10,42.5,3.5,81.9-21.6,117.5s-59.9,55.5-103.3,60c-26.1,2.7-51.1-1.9-74.7-13.3c-24.2-11.6-43.8-28.5-58.2-51.1
	c-22.4-35-28.2-72.8-18.5-113.1h-40V889c-0.1,7.9,5.4,15.7,14.7,17.4c1.6,0.3,3.2,0.2,4.9,0.2h317c0.8,0,1.7,0.1,2.5,0
	c1.4-0.2,2.9-0.3,4.3-0.7c7.7-2.2,12.8-9,12.8-17.1V693C-125.8,693.2-139,693.2-152.2,693.2L-152.2,693.2z M-201.4,728.7
	c0-49-39.6-89.1-89.1-89c-50,0-89,40.7-89,88.9c0,49.3,40.2,89.1,89,89.1C-242.2,817.8-201.4,778.7-201.4,728.7z M-112.2,595.2v-27
	c-0.1-9.7-7.9-17.6-17.6-17.6c-17.9-0.1-35.8-0.1-53.7,0c-9.7,0-17.6,7.9-17.6,17.6c-0.1,17.9-0.1,35.8,0,53.7
	c0,9.7,7.9,17.6,17.6,17.6h53.7c1.5,0,3-0.2,4.5-0.6c7.8-2.1,13.1-9,13.2-17C-112.2,613-112.2,604.1-112.2,595.2z"/>
</svg>
