<svg xmlns="http://www.w3.org/2000/svg" viewBox="-89 58.2 431.1 497.8" enable-background="new -89 58.2 431.1 497.8"><style type="text/css">.st0{fill:#276CA3;} .st1{fill:#D8ECDA;}</style><path class="st0" d="M342.1 431.6l-215.5 124.4-215.6-124.4v-248.9l215.6-124.5 215.5 124.5v248.9z"/><path class="st1" d="M31.1 278h7.2v49.5h23.7v6h-30.9v-55.5zm83 27.2c0 19.1-11.6 29.2-25.8 29.2-14.7 0-24.9-11.4-24.9-28.2 0-17.6 10.9-29.1 25.8-29.1 15.1 0 24.9 11.6 24.9 28.1zm-43 .9c0 11.9 6.4 22.5 17.7 22.5 11.4 0 17.8-10.5 17.8-23 0-11-5.8-22.6-17.7-22.6-11.9-.1-17.8 10.9-17.8 23.1zm94.5 24.9c-3.2 1.2-9.5 3-17 3-8.4 0-15.3-2.1-20.7-7.3-4.8-4.6-7.7-12-7.7-20.7.1-16.5 11.4-28.6 30-28.6 6.4 0 11.4 1.4 13.8 2.6l-1.7 5.8c-3-1.3-6.7-2.4-12.3-2.4-13.5 0-22.3 8.4-22.3 22.3 0 14.1 8.5 22.4 21.4 22.4 4.7 0 7.9-.7 9.5-1.5v-16.5h-11.3v-5.8h18.3v26.7zm58.4-25.8c0 19.1-11.6 29.2-25.8 29.2-14.7 0-24.9-11.4-24.9-28.2 0-17.6 10.9-29.1 25.8-29.1 15.1 0 24.9 11.6 24.9 28.1zm-43.1.9c0 11.9 6.4 22.5 17.7 22.5 11.4 0 17.8-10.5 17.8-23 0-11-5.8-22.6-17.7-22.6-11.8-.1-17.8 10.9-17.8 23.1z"/></svg>