<?xml version="1.0" encoding="utf-8"?>
<!-- Generator: Adobe Illustrator 19.1.0, SVG Export Plug-In . SVG Version: 6.00 Build 0)  -->
<svg version="1.1" id="Layer_1" xmlns="http://www.w3.org/2000/svg" xmlns:xlink="http://www.w3.org/1999/xlink" x="0px" y="0px"
	 viewBox="0 0 2027.5 2236" style="enable-background:new 0 0 2027.5 2236;" xml:space="preserve">
<style type="text/css">
	.st0{fill:#4D4D4E;}
	.st1{fill:#999999;}
	.st2{fill:#CCCCCC;}
	.st3{fill:#E57755;}
	.st4{fill:#F2F2F2;}
</style>
<g>
	<rect class="st0" width="2027.5" height="2236"/>
	<g>
		<path class="st1" d="M1305.6,865.6c-4-2-8-3.8-12-5.4c4.1-4.3,18.9-23.6-1-64.7c0,0-15.5-29.1-20.4-2.4c0,0-4.1,27.3-46.6,52.2
			c-9.2-0.4-14.8-0.1-15-0.1c-83.3,0-156.3,44.2-196.8,110.5C973.3,889.4,900.3,845.1,817,845.1c-1.3,0-10.4-0.1-23.4,1.2
			c-40.5-24.5-44.4-50.9-44.4-50.9c-4.9-26.7-20.4,2.4-20.4,2.4c-19.7,40.8-5.4,60.1-1.1,64.6c-4.5,2-9,4.3-13.3,6.8
			c-75.7,37.8-127.7,115.9-127.7,206.3c0,127.2,103.1,230.4,230.4,230.4c83.3,0,156.3-44.2,196.8-110.5
			c40.5,66.3,113.4,110.5,196.8,110.5c127.2,0,230.4-103.1,230.4-230.4C1440.9,982.1,1385.4,901.8,1305.6,865.6z"/>
		<path d="M872.3,706V576.7c0-18.8,6.8-37,19.4-50.9c18.7-20.6,55.1-41.9,125.6-41.9c70.4,0,106.5,21.2,124.9,41.7
			c12.4,13.8,19,31.9,19,50.5V706l40.4-20c8.3-4.1,18.3-1.2,23.1,6.7v0c4.7,7.7,2.7,17.4-4.2,23.3c-68.9,58.3-294.9,77.5-409.4,1.7
			c-7.4-4.9-8.4-17.1-3.8-24.6l0.3-0.4c4.8-7.9,14.7-10.8,23-6.8L872.3,706z"/>
		<path class="st1" d="M895.4,1286.5c0,0,84.2-45.5,119.6-136c0,0,39.3,97.5,119.7,133.6c0,0,3,257.3,41.8,386.1
			c0,0-152.7,70.6-323.1,0C853.5,1670.2,905,1485.3,895.4,1286.5z"/>
		<path class="st2" d="M1414.5,1182.5c0,0-89.9,172.3-279.7,101.7c0,0-24.5,260.6,67.8,449
			C1202.5,1733.2,1461.1,1645.1,1414.5,1182.5z"/>
		<path class="st2" d="M615.6,1182.5c0,0,90.4,172.3,280.2,101.7c0,0,24,260.6-68.3,449C827.6,1733.2,569,1645.1,615.6,1182.5z"/>
		<path class="st3" d="M896.8,1725.4L896.8,1725.4c-6.7,0-12.2-5.5-12.2-12.2V1664c0-6.7,5.5-12.2,12.2-12.2h0
			c6.7,0,12.2,5.5,12.2,12.2v49.2C909,1719.9,903.5,1725.4,896.8,1725.4z"/>
		<path class="st3" d="M967.3,1725.4L967.3,1725.4c-6.7,0-12.2-5.5-12.2-12.2V1662c0-6.7,5.5-12.2,12.2-12.2h0
			c6.7,0,12.2,5.5,12.2,12.2v51.2C979.5,1719.9,974,1725.4,967.3,1725.4z"/>
		<path class="st3" d="M932.7,1752.1L932.7,1752.1c-6.7,0-12.2-5.5-12.2-12.2v-76.4c0-6.7,5.5-12.2,12.2-12.2h0
			c6.7,0,12.2,5.5,12.2,12.2v76.4C944.9,1746.6,939.4,1752.1,932.7,1752.1z"/>
		<path class="st3" d="M1058.9,1725.4L1058.9,1725.4c-6.7,0-12.2-5.5-12.2-12.2V1662c0-6.7,5.5-12.2,12.2-12.2l0,0
			c6.7,0,12.2,5.5,12.2,12.2v51.2C1071.1,1719.9,1065.7,1725.4,1058.9,1725.4z"/>
		<path class="st3" d="M1129.5,1725.4L1129.5,1725.4c-6.7,0-12.2-5.5-12.2-12.2V1664c0-6.7,5.5-12.2,12.2-12.2l0,0
			c6.7,0,12.2,5.5,12.2,12.2v49.2C1141.6,1719.9,1136.2,1725.4,1129.5,1725.4z"/>
		<path class="st3" d="M1094.8,1752.1L1094.8,1752.1c-6.7,0-12.2-5.5-12.2-12.2v-76.4c0-6.7,5.5-12.2,12.2-12.2l0,0
			c6.7,0,12.2,5.5,12.2,12.2v76.4C1107,1746.6,1101.6,1752.1,1094.8,1752.1z"/>
		<circle class="st4" cx="811.9" cy="1078.7" r="101.1"/>
		<circle class="st4" cx="1219.7" cy="1077.3" r="101.1"/>
		<circle cx="811.9" cy="1078.7" r="46.1"/>
		<path class="st4" d="M812.9,1047c6.8,3.1,22.2,11.4,33.5,26.6c0.6,0.8,1.9,0.3,1.8-0.7c-0.5-8.6-4.8-30.8-35-27.9
			C812.2,1045.1,811.9,1046.5,812.9,1047z"/>
		<circle cx="1219.3" cy="1078.7" r="46.1"/>
		<path class="st4" d="M1220.3,1047c6.8,3.1,22.2,11.4,33.5,26.6c0.6,0.8,1.9,0.3,1.8-0.7c-0.5-8.6-4.8-30.8-35-27.9
			C1219.6,1045.1,1219.3,1046.5,1220.3,1047z"/>
		<path d="M1173,949.1c-37.1,0-73.5,9.1-106.5,25.9c-16.2,8.2-34.4,15.3-49.6,15.6c-1.1,0-2.2,0.2-3.2,0.5c-1-0.3-2.1-0.5-3.2-0.5
			c-15.2-0.3-33.5-7.4-49.6-15.6c-33-16.8-69.5-25.9-106.5-25.9H624.3v61.3c0,0,28.7,4,32.7,40.5s5.4,157.7,146,158.2
			s171.7-142.4,171.7-142.4s10.6-41.5,35.7-41.5c1.2,0,2.2-0.1,3.2-0.2c1,0.1,2.1,0.2,3.2,0.2c25.1,0,35.7,41.5,35.7,41.5
			s31.2,142.9,171.7,142.4s142-121.6,146-158.2s32.7-40.5,32.7-40.5v-61.3H1173z M924.6,1140.5c-28.1,36.7-66.5,53.8-131.4,53.8
			c-37.3,0-64.2-15.4-82.9-34c-25.1-24.9-38.5-59.1-38.5-94.4v-40.7c0-16.7,7.3-32.7,20.1-43.5c0.3-0.2,0.5-0.4,0.8-0.7
			c15.7-12.9,35.7-19.4,56-19.4c25.4,0,75.9,0,124.4,0c8.8,0,16.7,0.8,23.9,2.2c35.8,7.1,61.2,39,61.2,75.4
			C958.2,1075.8,946.8,1111.6,924.6,1140.5z M1354.9,1065.8c0,35.3-13.4,69.6-38.5,94.4c-18.8,18.6-45.6,34-82.9,34
			c-64.9,0-103.2-17.1-131.4-53.8c-22.2-28.9-33.6-64.7-33.6-101.2v0c0-36.4,25.5-68.3,61.2-75.4c7.2-1.4,15.1-2.2,23.9-2.2
			c48.5-0.1,99,0,124.4,0c20.3,0,40.3,6.6,56,19.4c0.3,0.2,0.5,0.4,0.8,0.7c12.8,10.8,20.1,26.7,20.1,43.5V1065.8z"/>
		<rect x="636" y="961.8" class="st4" width="29.7" height="15.8"/>
		<rect x="1361" y="961.8" class="st4" width="29.7" height="15.8"/>
		<path class="st3" d="M1056.5,1165c0.1-9.1-7.6-16.5-16.9-16.5h-28.1h-1.6h-28.1c-9.2,0-17,7.3-16.9,16.5
			c0.3,26.7,40.6,62.5,48.7,69.9C1013.8,1234.9,1056.1,1191.7,1056.5,1165z"/>
		<path d="M1204.8,1276.1c-46.4-33.2-98.4-114.3-190.9-45.5c-88.8-68.2-140.7,12.7-187,45.8c-46.6,33.4-98.4,8.1-98.4,8.1
			s37.2,78.7,137.4,78.7c90.6,0,139.9-76,148.4-90.5c9.6,15.2,61.6,90.1,151.6,90.1c100.1,0,137.4-78.7,137.4-78.7
			S1251.5,1309.5,1204.8,1276.1z"/>
		<path class="st1" d="M892.2,857.7c0,0,119.6-34.5,243.1,0c0,0-65.5,29.1-121.6,97.9C1013.8,955.6,963.6,895.2,892.2,857.7z"/>
	</g>
</g>
</svg>
