<svg xmlns="http://www.w3.org/2000/svg" viewBox="-594 573 465.3 463.4" enable-background="new -594 573 465.3 463.4"><style type="text/css">.st0{fill:#D8ECDA;}</style><path id="Twitter" class="st0" d="M-360.5 573c68.3 0 136.6-.1 204.9.1 5 0 10.3.9 14.9 2.8 7.5 3.1 10.9 9.8 11.8 17.6.3 2.3.1 4.6.1 6.9 0 136 .1 272 0 408 0 5-.6 10.4-2.4 15-3.2 8.1-10.2 12-18.8 12.8-2 .2-4 .1-6 .1-136.9 0-273.7 0-410.6-.1-5 0-10.4-.8-15-2.6-7.8-3.2-11.5-10-12.3-18.2-.2-2.5-.1-5.1-.1-7.7l.1-406.3c0-2.6-.1-5.2.1-7.7.9-11.1 9.6-19.7 20.7-20.5 2.9-.2 5.7-.1 8.6-.1 68-.1 136-.1 204-.1zm-150.7 332.8c-.5-.3-.9-.5 0 0-1-.3-.5-.2 0 0 1.5 1.2 2.8 2.8 4.5 3.7 37.4 20.4 77.5 27.6 119.5 21.2 46.7-7.1 85.3-28.9 114.5-66.3 25.3-32.5 39.5-69.1 40.5-110.5.1-4.5 0-9.1 0-12.9 11-10.3 22.2-19.1 30.6-32.2-11.8 3-21.9 5.5-32 8 1.1-2.9 2.8-4.2 4.5-5.7 8.6-8 17-16.2 19.3-28.5l.4-.3-.3.4c-4.5 1.9-8.8 4.1-13.4 5.8-8.3 3-16.6 5.7-24.5 8.4-3.8-2.9-6.5-4.9-9.3-7-33.4-25.5-79.9-14.5-98.3 23.3-5.6 11.4-6.8 23.5-6 35.9.1 2.1 0 4.2 0 6.8-54.3-3.6-97.7-26.8-133.9-67.4-15 34.4-7.8 61.9 19.2 85.3l-1.2 1.5c-8.7-2.2-17.3-4.4-26.6-6.8 2.5 31.8 19.2 52.1 49.6 61.9-.2.6-.4 1.3-.5 1.9l-24.6 1.8c6.4 22.5 21.4 33.8 58.4 44.5-.6.9-1.9 1-2.8 1.7-13 9.1-27 16.1-42.4 20.3-14.9 4.1-30 5.4-45.2 5.2z"/></svg>