<?xml version="1.0" encoding="utf-8"?>
<!-- Generator: Adobe Illustrator 19.1.0, SVG Export Plug-In . SVG Version: 6.00 Build 0)  -->
<svg version="1.1" id="Layer_1" xmlns="http://www.w3.org/2000/svg" xmlns:xlink="http://www.w3.org/1999/xlink" x="0px" y="0px"
	 viewBox="-522 497.3 465.3 463.3" style="enable-background:new -522 497.3 465.3 463.3;" xml:space="preserve">
<style type="text/css">
	.st0{fill:#FFFFFF;}
</style>
<path id="Twitter" class="st0" d="M-288.5,497.3c68.3,0,136.6-0.1,204.9,0.1c5,0,10.3,0.9,14.9,2.8c7.5,3.1,10.9,9.8,11.8,17.6
	c0.3,2.3,0.1,4.6,0.1,6.9c0,136,0.1,272,0,408c0,5-0.6,10.4-2.4,15c-3.2,8.1-10.2,12-18.8,12.8c-2,0.2-4,0.1-6,0.1
	c-136.9,0-273.7,0-410.6-0.1c-5,0-10.4-0.8-15-2.6c-7.8-3.2-11.5-10-12.3-18.2c-0.2-2.5-0.1-5.1-0.1-7.7l0.1-406.3
	c0-2.6-0.1-5.2,0.1-7.7c0.9-11.1,9.6-19.7,20.7-20.5c2.9-0.2,5.7-0.1,8.6-0.1C-424.5,497.3-356.5,497.3-288.5,497.3L-288.5,497.3z
	 M-439.2,830.1C-439.7,829.8-440.1,829.6-439.2,830.1C-440.2,829.8-439.7,829.9-439.2,830.1c1.5,1.2,2.8,2.8,4.5,3.7
	c37.4,20.4,77.5,27.6,119.5,21.2c46.7-7.1,85.3-28.9,114.5-66.3c25.3-32.5,39.5-69.1,40.5-110.5c0.1-4.5,0-9.1,0-12.9
	c11-10.3,22.2-19.1,30.6-32.2c-11.8,3-21.9,5.5-32,8c1.1-2.9,2.8-4.2,4.5-5.7c8.6-8,17-16.2,19.3-28.5l0.4-0.3l-0.3,0.4
	c-4.5,1.9-8.8,4.1-13.4,5.8c-8.3,3-16.6,5.7-24.5,8.4c-3.8-2.9-6.5-4.9-9.3-7c-33.4-25.5-79.9-14.5-98.3,23.3
	c-5.6,11.4-6.8,23.5-6,35.9c0.1,2.1,0,4.2,0,6.8c-54.3-3.6-97.7-26.8-133.9-67.4c-15,34.4-7.8,61.9,19.2,85.3l-1.2,1.5
	c-8.7-2.2-17.3-4.4-26.6-6.8c2.5,31.8,19.2,52.1,49.6,61.9c-0.2,0.6-0.4,1.3-0.5,1.9l-24.6,1.8c6.4,22.5,21.4,33.8,58.4,44.5
	c-0.6,0.9-1.9,1-2.8,1.7c-13,9.1-27,16.1-42.4,20.3C-408.9,829-424,830.3-439.2,830.1L-439.2,830.1z"/>
</svg>
