<?xml version="1.0" encoding="utf-8"?>
<!-- Generator: Adobe Illustrator 19.1.0, SVG Export Plug-In . SVG Version: 6.00 Build 0)  -->
<svg version="1.1" id="Layer_1" xmlns="http://www.w3.org/2000/svg" xmlns:xlink="http://www.w3.org/1999/xlink" x="0px" y="0px"
	 viewBox="-90 355.1 430.8 82.9" style="enable-background:new -90 355.1 430.8 82.9;" xml:space="preserve">
<style type="text/css">
	.st0{fill:#276CA3;}
</style>
<path class="st0" d="M-90,401.1l0.2-0.3c0.2-0.3,0.4-0.7,0.8-1.1s0.9-0.8,1.5-1.2c0.9-0.5,1.5-1,2-1.3s0.8-0.6,0.9-0.7
	c0.2-0.3,0.4-0.5,0.5-0.7c0.3-0.2,0.6-0.5,1.1-0.9c0.4-0.4,0.9-0.8,1.4-1.3c0.2-0.1,0.4-0.3,0.6-0.6c0.2-0.3,0.4-0.6,0.6-1
	c0.3-0.2,0.7-0.5,1.2-0.9c0.4-0.4,0.9-0.8,1.5-1.4c0.7-0.7,1.4-1.5,2.2-2.3c0.8-0.8,1.7-1.7,2.8-2.6c0.3-0.2,0.7-0.3,1-0.4
	c0.3-0.1,0.6-0.1,0.9-0.1c1.2,0,2.1,0.3,2.6,0.8c0.6,0.6,0.9,1.4,0.9,2.4c0,0.3,0,0.7-0.1,1.3c-0.1,0.6-0.2,1.4-0.3,2.3
	c-0.4,2.6-0.6,4.2-0.8,4.8l-1.6,5.4c-0.2,0.5-0.4,1.1-0.6,1.8c-0.2,0.7-0.5,1.6-0.8,2.7c0.1,0.1,0.2,0.2,0.4,0.3
	c0.2,0,0.5-0.2,1-0.5c0.5-0.3,1.1-0.9,1.9-1.6c0.9-0.8,1.6-1.5,2.1-1.9s0.8-0.7,1-0.8c0.3,0.7,0.6,1.3,0.9,1.9
	c0.3,0.6,0.5,1.1,0.7,1.7c-0.3,0.2-0.6,0.4-0.9,0.7c-0.3,0.3-0.5,0.5-0.8,0.9c-0.5,0.4-1.2,0.8-1.9,1.2c-0.7,0.5-1.5,1-2.4,1.5
	c-0.4,0.4-0.9,0.9-1.6,1.4c-0.7,0.6-1.4,1.2-2.2,1.9l-0.7,0.2c-0.4,0.5-0.7,0.9-1,1.1c-0.3,0.3-0.6,0.4-0.9,0.5
	c-0.4,0.2-0.8,0.3-1.2,0.4c-0.9,0.1-1.4,0.2-1.9,0.4c-0.3-0.1-0.5-0.2-0.6-0.5c-0.1-0.3-0.2-0.6-0.2-1c-0.3-0.7-0.6-1.5-0.9-2.5
	c-0.2-0.9-0.3-1.9-0.3-3v-0.7l0.1-0.6c-0.2-0.7-0.3-1.1-0.3-1.2c0-0.8,0.3-1.4,0.9-1.9c0.6-0.5,1.3-0.8,2-0.8c0.4,0,0.7,0.2,0.8,0.6
	c0.2,0.4,0.3,0.6,0.5,0.6s0.4-0.4,0.6-1.1c0.2-0.7,0.4-1.8,0.6-3.1c0.2-1.2,0.3-2.2,0.4-3.1c0.1-0.9,0.1-1.6,0.1-2
	c0-0.3-0.1-0.6-0.2-0.8c-0.1-0.2-0.4-0.3-0.7-0.3s-1.4,0.8-3.3,2.3c-1.8,1.6-4.4,3.9-7.7,7c-0.1,0.2-0.3,0.4-0.4,0.7
	c-0.2,0.3-0.4,0.6-0.7,1c-0.1-0.4-0.3-0.9-0.5-1.4C-89.2,402.7-89.5,402-90,401.1z M-65.5,401.1c0.6-0.5,1-0.9,1.3-1.2
	c0.3-0.3,0.6-0.5,0.7-0.7c0.4-0.4,0.8-0.8,1-1.1c0.3-0.4,0.4-0.7,0.4-1l0.8-3.3c0,0,0.7-2.9,1.2-4.6c0.2-0.5,0.5-1.2,0.8-2
	c0.3-0.8,0.6-1.7,0.9-2.7c0.3-1.3,0.7-2.5,1.2-3.6c0.5-1.1,1-2,1.6-2.9c0.2-0.2,0.4-0.5,0.5-0.9c0.2-0.4,0.4-0.8,0.5-1.2
	c0.2-0.4,0.4-0.9,0.8-1.5c0.3-0.6,0.7-1.2,1.1-2c1.1-1.6,2-2.9,2.8-4l2-2.7c0.9-1.1,1.9-2.2,2.8-3.1c1-1,1.9-1.9,2.9-2.7
	c0.9-0.8,1.7-1.3,2.3-1.7c0.7-0.4,1.2-0.5,1.6-0.5c0.4,0.3,0.6,0.6,0.8,0.9c0.2,0,0.4,0,0.5-0.1c0.7,0,1.2,0.3,1.5,0.8
	s0.5,1.4,0.5,2.5c0,0.2,0,0.5-0.1,0.9s-0.2,0.8-0.3,1.4c-0.2,0.2-0.3,0.4-0.4,0.7l-0.2,0.9c0,0.4-0.1,0.7-0.1,0.9
	c-0.1,0.3-0.1,0.5-0.2,0.7c-0.3,0.6-0.7,1.4-1.1,2.3s-0.8,1.9-1.2,3.1c-0.3,0.4-0.6,1-1,1.8c-0.4,0.7-0.9,1.5-1.4,2.4
	c-0.3,0.5-0.6,1.1-1,1.9c-0.4,0.7-0.9,1.6-1.5,2.6c-0.2,0.4-0.4,0.8-0.8,1.2c-0.4,0.4-0.8,0.9-1.3,1.5c-0.3,0.3-0.7,1-1.4,2
	s-1.7,2.3-3,3.9c-0.6,0.8-1.4,1.8-2.4,3c-1,1.2-2.1,2.6-3.4,4.3c-0.5,2-0.9,3.7-1.1,5.2c-0.2,1.5-0.4,2.8-0.4,4c0,0.4,0,0.8,0.1,1
	c0.1,0.2,0.2,0.3,0.4,0.3c0.1-0.2,0.3-0.4,0.6-0.6l0.8-0.8c0.5-0.4,1.1-1.3,1.7-2.5c0.7-1.2,1.4-2.7,2.3-4.6c0.8-1.7,1.4-3,2-4
	c0.6-0.9,1.1-1.5,1.5-1.7l1.4-0.6c0.3-0.1,0.5-0.2,0.7-0.3s0.4-0.1,0.5-0.1c0.3,0,0.7,0.2,0.9,0.6c0.3,0.4,0.5,1,0.7,1.7
	c0.3,1.3,0.6,2.4,0.8,3.1c0.2,0.7,0.3,1.1,0.4,1.3c0.3,0.8,0.7,1.4,1.2,1.7c0.5,0.4,1.1,0.5,1.7,0.5c0.8-0.1,1.8-0.3,2.9-0.5
	c0.2,0.5,0.4,1.1,0.7,1.7s0.6,1.2,0.8,1.9l-1.9,1.2L-39,407c-0.4,0.2-1,0.4-1.8,0.5c-0.8,0.1-1.7,0.2-2.7,0.2
	c-1.6,0-2.8-0.7-3.7-2.2s-1.4-2.2-1.6-2.2H-49l-1.3,1.6c-0.5,0.5-0.9,1.1-1.3,1.7c-0.3,0.6-0.7,1.3-1.2,2.1s-1.1,1.6-1.9,2.6
	c-0.9,1-1.6,1.8-2.3,2.3s-1.2,0.8-1.7,0.8c-1,0-1.8-0.1-2.3-0.3c-0.6-0.2-0.9-0.6-1-1c-0.3-1.5-0.6-2.7-0.7-3.8
	c-0.2-1.1-0.3-2-0.3-2.8v-0.6c0-0.2,0.1-0.4,0.1-0.5c0.1-0.3,0.2-0.7,0.3-1.1c0-0.1,0-0.2-0.1-0.3c-0.1-0.1-0.2-0.1-0.3-0.1
	c-0.1,0.1-0.2,0.2-0.3,0.4c-0.1,0.1-0.3,0.3-0.5,0.4c-0.1-0.3-0.3-0.8-0.5-1.4C-64.8,402.7-65.1,402-65.5,401.1L-65.5,401.1z
	 M-40.1,365c-0.3,0-0.9,0.5-1.7,1.5c-0.9,1-2,2.5-3.3,4.6c-0.8,1.1-1.5,2.2-2.2,3.3l-2.1,3.3c-0.3,0.3-0.5,0.6-0.7,0.9
	c-0.1,0.3-0.2,0.6-0.2,1c-0.5,1.5-1,2.8-1.5,4.1c-0.5,1.4-0.9,2.4-1.2,3.2c-0.3,0.8-0.5,1.2-0.5,1.3l0.2,0.2c0.5-0.5,1-1,1.3-1.5
	c0.5-0.6,1.2-1.4,1.9-2.3c0.7-1,1.6-2.1,2.5-3.3c0.9-1.2,1.9-2.7,2.9-4.6c1-1.8,2.1-4,3.2-6.3c0.7-1.3,1.1-2.3,1.5-3.1
	c0.3-0.8,0.5-1.3,0.5-1.6c0-0.2,0-0.3-0.1-0.4C-39.8,365.1-39.9,365-40.1,365z M-35.6,399.4l3.6-2.3l0.5-0.5c0.2-0.2,0.4-0.5,0.6-1
	c0.2-0.3,0.4-0.6,0.7-0.9c0.3-0.2,0.6-0.4,1-0.6c0.2-0.3,0.5-0.6,0.9-1s0.9-0.8,1.5-1.4c0.3-0.2,0.7-0.4,1.1-0.7
	c0.4-0.3,0.9-0.7,1.4-1.2c2.4-2.2,4.4-3.9,6.2-5c1.8-1.1,3.3-1.7,4.5-1.7c0.7,0,1.2,0.1,1.5,0.4c0.3,0.3,0.5,0.7,0.5,1.2
	s-0.1,1-0.3,1.4c-0.2,0.4-0.5,0.8-0.9,1.1c-0.7,0.5-1.4,1-2.1,1.6c-0.4,0.5-0.9,1.1-1.5,1.7s-1.3,1.2-2.1,1.8
	c-0.3,0.3-0.5,0.6-0.7,0.9l-0.7,0.7c-0.4,0.3-0.8,0.7-1.4,1.2c-0.3,0.6-0.8,1.3-1.7,2.2c-0.9,0.9-2,2-3.5,3.3
	c-0.2,0.2-0.5,0.6-1,1.2c-0.5,0.7-1.1,1.5-1.8,2.6l0.3,0.4c0.6-0.2,1.2-0.5,1.8-0.9c0.6-0.4,1.3-1,2.1-1.8c0.9-0.8,1.6-1.5,2.2-2
	s1-0.8,1.2-1c0.2-0.1,0.4-0.2,0.5-0.3c0.2-0.1,0.4-0.2,0.6-0.4c1.2-1.4,2.3-2.5,3.4-3.2c1-0.7,2-1,2.9-1c0.5,0,1,0.2,1.2,0.6
	c0.3,0.4,0.5,1.1,0.5,1.9c-0.1,1.3-0.1,2.6-0.1,3.8c0,0.8,0.2,1.6,0.7,2.2c0.5,0.7,1.1,1,1.9,1c0.2,0,0.5-0.1,0.7-0.2
	s0.4-0.3,0.7-0.5c0.2-0.2,0.4-0.5,0.5-0.7l0.5-0.6c0.1-0.1,0.3-0.1,0.4-0.3c0.2-0.1,0.4-0.3,0.6-0.5c0.4,0.8,0.7,1.5,0.9,2.1
	c0.2,0.6,0.4,1.1,0.6,1.5c-0.6,0.5-1.2,1.1-1.8,1.7s-1.2,1.1-1.9,1.7c-0.8,0.6-1.5,1-2.3,1.3c-0.7,0.3-1.5,0.4-2.2,0.4
	c-1.7,0-3-0.5-3.9-1.4c-0.9-1-1.4-2.4-1.6-4.4c0-0.2,0-0.5-0.1-0.7c-0.1-0.2-0.2-0.5-0.4-0.8l-0.4,0.4c-0.2,0.1-0.3,0.3-0.5,0.6
	c-0.3,0.3-0.8,0.6-1.3,1c-0.5,0.4-1.1,0.9-1.8,1.4l-2.3,2.3c-0.6,0.6-1.1,1-1.3,1.3c-0.5,0.4-1.1,0.9-1.8,1.3s-1.5,0.9-2.3,1.4
	c-0.5,0.3-1,0.5-1.4,0.7c-0.4,0.2-0.7,0.4-0.9,0.4c-1.2,0-2.2-0.3-2.8-0.9s-0.9-1.6-0.9-2.8c0-0.7,0.2-1.4,0.4-2
	c0.3-0.6,0.7-1.3,1.3-1.9c0.1-0.3,0.1-0.6,0.1-0.8c0-0.1,0-0.3-0.1-0.4c-0.1-0.1-0.1-0.3-0.3-0.5l-0.5-1.2c-0.2-0.5-0.4-0.9-0.6-1.5
	c0.1-0.1,0.3-0.3,0.4-0.6C-36.1,400.2-35.9,399.8-35.6,399.4L-35.6,399.4z M-5.6,399.4l3.6-2.3l0.5-0.5c0.2-0.2,0.4-0.5,0.6-1
	c0.2-0.3,0.4-0.6,0.7-0.9c0.3-0.2,0.6-0.4,1-0.6c0.2-0.3,0.5-0.6,0.9-1s0.9-0.8,1.5-1.4c0.3-0.2,0.7-0.4,1.1-0.7
	c0.4-0.3,0.9-0.7,1.4-1.2c2.4-2.2,4.4-3.9,6.2-5c1.8-1.1,3.3-1.7,4.5-1.7c0.7,0,1.2,0.1,1.5,0.4c0.3,0.3,0.5,0.7,0.5,1.2
	s-0.1,1-0.3,1.4c-0.2,0.4-0.5,0.8-0.9,1.1c-0.7,0.5-1.4,1-2.1,1.6c-0.4,0.5-0.9,1.1-1.5,1.7s-1.3,1.2-2.1,1.8
	c-0.3,0.3-0.5,0.6-0.7,0.9l-0.7,0.7c-0.4,0.3-0.8,0.7-1.4,1.2c-0.3,0.6-0.8,1.3-1.7,2.2c-0.9,0.9-2,2-3.5,3.3
	c-0.2,0.2-0.5,0.6-1,1.2c-0.5,0.7-1.1,1.5-1.8,2.6l0.3,0.4c0.6-0.2,1.2-0.5,1.8-0.9c0.6-0.4,1.3-1,2.1-1.8c0.9-0.8,1.6-1.5,2.2-2
	s1-0.8,1.2-1c0.2-0.1,0.4-0.2,0.5-0.3c0.2-0.1,0.4-0.2,0.6-0.4c1.2-1.4,2.3-2.5,3.4-3.2c1-0.7,2-1,2.9-1c0.5,0,1,0.2,1.2,0.6
	c0.3,0.4,0.5,1.1,0.5,1.9c-0.1,1.3-0.1,2.6-0.1,3.8c0,0.8,0.2,1.6,0.7,2.2c0.5,0.7,1.1,1,1.9,1c0.2,0,0.5-0.1,0.7-0.2
	s0.4-0.3,0.7-0.5c0.2-0.2,0.4-0.5,0.5-0.7l0.5-0.6c0.1-0.1,0.3-0.1,0.4-0.3c0.2-0.1,0.4-0.3,0.6-0.5c0.4,0.8,0.7,1.5,0.9,2.1
	c0.2,0.6,0.4,1.1,0.6,1.5c-0.6,0.5-1.2,1.1-1.8,1.7s-1.2,1.1-1.9,1.7c-0.8,0.6-1.5,1-2.3,1.3c-0.7,0.3-1.5,0.4-2.2,0.4
	c-1.7,0-3-0.5-3.9-1.4c-0.9-1-1.4-2.4-1.6-4.4c0-0.2,0-0.5-0.1-0.7c-0.1-0.2-0.2-0.5-0.4-0.8l-0.4,0.4c-0.2,0.1-0.3,0.3-0.5,0.6
	c-0.3,0.3-0.8,0.6-1.3,1c-0.5,0.4-1.1,0.9-1.8,1.4L4.3,408c-0.6,0.6-1.1,1-1.3,1.3c-0.5,0.4-1.1,0.9-1.8,1.3s-1.5,0.9-2.3,1.4
	c-0.5,0.3-1,0.5-1.4,0.7c-0.4,0.2-0.7,0.4-0.9,0.4c-1.2,0-2.2-0.3-2.8-0.9c-0.6-0.6-0.9-1.6-0.9-2.8c0-0.7,0.2-1.4,0.4-2
	c0.3-0.6,0.7-1.3,1.3-1.9c0.1-0.3,0.1-0.6,0.1-0.8c0-0.1,0-0.3-0.1-0.4c-0.1-0.1-0.1-0.3-0.3-0.5l-0.5-1.2c-0.2-0.5-0.4-0.9-0.6-1.5
	c0.1-0.1,0.3-0.3,0.4-0.6C-6,400.2-5.8,399.8-5.6,399.4L-5.6,399.4z M23.2,401.1c0.6-0.6,1.5-1.4,2.8-2.3c1.2-0.9,2.2-1.6,2.8-2.2
	c0.4-0.5,0.9-1,1.5-1.7c0.6-0.7,1.4-1.5,2.2-2.4c0.5-0.5,1-0.8,1.5-1.1c0.5-0.3,1-0.4,1.5-0.4c0.6,0,1.1,0.2,1.5,0.5
	c0.4,0.3,0.5,0.8,0.5,1.5c0,1-0.4,2.7-1.2,4.9c-0.8,2.2-1.2,4-1.2,5.2c0,0.3,0.1,0.4,0.2,0.5s0.3,0.2,0.4,0.2h0.2
	c0.5-0.3,1.1-0.7,1.7-1.2c0.7-0.5,1.4-1.1,2.2-1.8c0.7-0.6,1.5-1.4,2.5-2.5l3.5-3.5c0.5-0.4,1.1-1,1.8-1.6c0.7-0.7,1.4-1.4,2.2-2.3
	c0.3-0.5,0.8-0.8,1.4-1.1c0.6-0.3,1.4-0.4,2.2-0.4c0.6,0,1,0.1,1.3,0.3s0.4,0.6,0.4,1c0,0.2,0,0.4-0.1,0.5l-0.1,0.5
	c-0.2,0.8-0.5,1.7-0.8,2.9c-0.4,1.1-0.8,2.5-1.3,4c-0.4,1-0.9,2.1-1.4,3.5c-0.5,1.3-1,2.8-1.5,4.4l0.3,0.4c0.5-0.3,1.4-0.9,2.4-1.9
	c1.1-1,2.4-2.3,4.1-3.9l1.6,3.6l-0.8,0.8c-0.3,0.3-0.7,0.6-1.2,1c-2.8,2-5.2,3.9-7.2,5.9c-2,1.9-3.6,3.9-4.7,5.8
	c-1.7,2.9-3.2,5.2-4.4,7s-2,3.1-2.5,3.8c-1.8,2.4-3.5,4.1-5.1,5.3c-1.6,1.1-3.2,1.7-4.7,1.7c-0.6,0-1-0.1-1.2-0.4
	c-0.3-0.2-0.4-0.6-0.4-1.1c0-0.3,0.1-0.6,0.2-1c0.1-0.4,0.4-0.8,0.7-1.2c0.5-0.7,0.9-1.4,1.4-2.2l1.2-1c0.1-0.3,0.2-0.6,0.2-0.7
	c0.1-0.1,0.3-0.3,0.4-0.5c0.2-0.2,0.4-0.4,0.7-0.6c0.2-0.5,0.7-1.2,1.5-2.3s1.9-2.5,3.3-4.2c1.1-1.2,2-2.4,2.9-3.3
	c0.9-1,1.6-1.8,2.3-2.5l0.3-0.7l0.3-0.9c0.3-0.7,0.7-1.5,1.1-2.5c0.4-1,0.9-2.1,1.5-3.4c0.3-0.8,0.5-1.6,0.7-2.6s0.4-2,0.5-3.2
	c-0.1-0.1-0.1-0.2-0.1-0.4c0-0.2-0.1-0.4-0.2-0.7c-0.5,0.2-1,0.6-1.5,1.1c-0.6,0.5-1.2,1-1.8,1.6c-0.9,1.1-1.7,2.1-2.6,2.8
	c-0.9,0.7-1.8,1.3-2.6,1.7c-0.6,1.1-1.3,1.9-2.2,2.5c-0.9,0.5-1.9,0.8-3.1,0.8c-0.9,0-1.5-0.2-2-0.6c-0.4-0.4-0.7-1-0.7-1.9
	c0-0.2,0-0.4,0.1-0.6c0.1-0.2,0.1-0.5,0.2-0.8c-0.1-0.3-0.2-0.6-0.4-1.1c0.1-0.4,0.2-0.9,0.3-1.5c0-0.8-0.1-1.4-0.2-1.8
	s-0.3-0.6-0.6-0.6l-0.2,0.1c-0.3,0.2-0.7,0.5-1.2,0.9c-0.5,0.4-1.1,0.9-1.9,1.5c-0.1-0.3-0.3-0.7-0.5-1.2s-0.4-1-0.6-1.6
	c-0.1-0.2-0.1-0.3-0.2-0.4C23.4,401.3,23.3,401.2,23.2,401.1L23.2,401.1z M58.2,399.4l3.6-2.3l0.5-0.5c0.2-0.2,0.4-0.5,0.6-1
	c0.2-0.3,0.4-0.6,0.7-0.9c0.3-0.2,0.6-0.4,1-0.6c0.2-0.3,0.5-0.6,0.9-1s0.9-0.8,1.5-1.4c0.3-0.2,0.7-0.4,1.1-0.7
	c0.4-0.3,0.9-0.7,1.4-1.2c2.4-2.2,4.4-3.9,6.2-5c1.8-1.1,3.3-1.7,4.5-1.7c0.7,0,1.2,0.1,1.5,0.4c0.3,0.3,0.5,0.7,0.5,1.2
	s-0.1,1-0.3,1.4s-0.5,0.8-0.9,1.1c-0.7,0.5-1.4,1-2.1,1.6c-0.4,0.5-0.9,1.1-1.5,1.7s-1.3,1.2-2.1,1.8c-0.3,0.3-0.5,0.6-0.7,0.9
	l-0.7,0.7c-0.4,0.3-0.8,0.7-1.4,1.2c-0.3,0.6-0.8,1.3-1.7,2.2c-0.9,0.9-2,2-3.5,3.3c-0.2,0.2-0.5,0.6-1,1.2
	c-0.5,0.7-1.1,1.5-1.8,2.6l0.3,0.4c0.6-0.2,1.2-0.5,1.8-0.9c0.6-0.4,1.3-1,2.1-1.8c0.9-0.8,1.6-1.5,2.2-2c0.6-0.5,1-0.8,1.2-1
	c0.2-0.1,0.4-0.2,0.5-0.3c0.2-0.1,0.4-0.2,0.6-0.4c1.2-1.4,2.3-2.5,3.4-3.2c1-0.7,2-1,2.9-1c0.5,0,1,0.2,1.2,0.6
	c0.3,0.4,0.5,1.1,0.5,1.9c-0.1,1.3-0.1,2.6-0.1,3.8c0,0.8,0.2,1.6,0.7,2.2c0.5,0.7,1.1,1,1.9,1c0.2,0,0.5-0.1,0.7-0.2
	s0.4-0.3,0.7-0.5c0.2-0.2,0.4-0.5,0.5-0.7l0.5-0.6c0.1-0.1,0.3-0.1,0.4-0.3c0.2-0.1,0.4-0.3,0.6-0.5c0.4,0.8,0.7,1.5,0.9,2.1
	s0.4,1.1,0.6,1.5c-0.6,0.5-1.2,1.1-1.8,1.7s-1.2,1.1-1.9,1.7c-0.8,0.6-1.5,1-2.3,1.3c-0.7,0.3-1.5,0.4-2.2,0.4c-1.7,0-3-0.5-3.9-1.4
	c-0.9-1-1.4-2.4-1.6-4.4c0-0.2,0-0.5-0.1-0.7c-0.1-0.2-0.2-0.5-0.4-0.8l-0.4,0.4c-0.2,0.1-0.3,0.3-0.5,0.6c-0.3,0.3-0.8,0.6-1.3,1
	c-0.5,0.4-1.1,0.9-1.8,1.4l-2.3,2.3c-0.6,0.6-1.1,1-1.3,1.3c-0.5,0.4-1.1,0.9-1.8,1.3s-1.5,0.9-2.3,1.4c-0.5,0.3-1,0.5-1.4,0.7
	c-0.4,0.2-0.7,0.3-0.9,0.3c-1.2,0-2.2-0.3-2.8-0.9s-0.9-1.6-0.9-2.8c0-0.7,0.2-1.4,0.4-2c0.3-0.6,0.7-1.3,1.3-1.9
	c0.1-0.3,0.1-0.6,0.1-0.8c0-0.1,0-0.3-0.1-0.4c-0.1-0.1-0.1-0.3-0.3-0.5l-0.5-1.2c-0.2-0.5-0.4-0.9-0.6-1.5c0.1-0.1,0.3-0.3,0.4-0.6
	C57.7,400.2,58,399.8,58.2,399.4L58.2,399.4z M88.3,399.4l3.6-2.3l0.5-0.5c0.2-0.2,0.4-0.5,0.6-1c0.2-0.3,0.4-0.6,0.7-0.9
	c0.3-0.2,0.6-0.4,1-0.6c0.2-0.3,0.5-0.6,0.9-1s0.9-0.8,1.5-1.4c0.3-0.2,0.7-0.4,1.1-0.7c0.4-0.3,0.9-0.7,1.4-1.2
	c2.4-2.2,4.4-3.9,6.2-5c1.8-1.1,3.3-1.7,4.5-1.7c0.7,0,1.2,0.1,1.5,0.4c0.3,0.3,0.5,0.7,0.5,1.2s-0.1,1-0.3,1.4s-0.5,0.8-0.9,1.1
	c-0.7,0.5-1.4,1-2.1,1.6c-0.4,0.5-0.9,1.1-1.5,1.7s-1.3,1.2-2.1,1.8c-0.3,0.3-0.5,0.6-0.7,0.9l-0.7,0.7c-0.4,0.3-0.8,0.7-1.4,1.2
	c-0.3,0.6-0.8,1.3-1.7,2.2c-0.9,0.9-2,2-3.5,3.3c-0.2,0.2-0.5,0.6-1,1.2c-0.5,0.7-1.1,1.5-1.8,2.6l0.3,0.4c0.6-0.2,1.2-0.5,1.8-0.9
	c0.6-0.4,1.3-1,2.1-1.8c0.9-0.8,1.6-1.5,2.2-2c0.6-0.5,1-0.8,1.2-1c0.2-0.1,0.4-0.2,0.5-0.3c0.2-0.1,0.4-0.2,0.6-0.4
	c1.2-1.4,2.3-2.5,3.4-3.2c1-0.7,2-1,2.9-1c0.5,0,1,0.2,1.2,0.6c0.3,0.4,0.5,1.1,0.5,1.9c-0.1,1.3-0.1,2.6-0.1,3.8
	c0,0.8,0.2,1.6,0.7,2.2c0.5,0.7,1.1,1,1.9,1c0.2,0,0.5-0.1,0.7-0.2s0.4-0.3,0.7-0.5c0.2-0.2,0.4-0.5,0.5-0.7l0.5-0.6
	c0.1-0.1,0.3-0.1,0.4-0.3c0.2-0.1,0.4-0.3,0.6-0.5c0.4,0.8,0.7,1.5,0.9,2.1s0.4,1.1,0.6,1.5c-0.6,0.5-1.2,1.1-1.8,1.7
	s-1.2,1.1-1.9,1.7c-0.8,0.6-1.5,1-2.3,1.3c-0.7,0.3-1.5,0.4-2.2,0.4c-1.7,0-3-0.5-3.9-1.4c-0.9-1-1.4-2.4-1.6-4.4
	c0-0.2,0-0.5-0.1-0.7c-0.1-0.2-0.2-0.5-0.4-0.8l-0.4,0.4c-0.2,0.1-0.3,0.3-0.5,0.6c-0.3,0.3-0.8,0.6-1.3,1c-0.5,0.4-1.1,0.9-1.8,1.4
	l-2.3,2.3c-0.6,0.6-1.1,1-1.3,1.3c-0.5,0.4-1.1,0.9-1.8,1.3s-1.5,0.9-2.3,1.4c-0.5,0.3-1,0.5-1.4,0.7c-0.4,0.2-0.7,0.3-0.9,0.3
	c-1.2,0-2.2-0.3-2.8-0.9s-0.9-1.6-0.9-2.8c0-0.7,0.2-1.4,0.4-2c0.3-0.6,0.7-1.3,1.3-1.9c0.1-0.3,0.1-0.6,0.1-0.8
	c0-0.1,0-0.3-0.1-0.4c-0.1-0.1-0.1-0.3-0.3-0.5l-0.5-1.2c-0.2-0.5-0.4-0.9-0.6-1.5c0.1-0.1,0.3-0.3,0.4-0.6
	C87.8,400.2,88,399.8,88.3,399.4L88.3,399.4z M117.1,401.1c0.1-0.2,0.2-0.4,0.4-0.6c0.2-0.2,0.4-0.5,0.6-0.8c0.3-0.2,0.6-0.5,1-0.9
	s0.9-0.8,1.4-1.4c0.5-0.5,1-1.2,1.7-1.9c0.7-0.8,1.5-1.7,2.5-2.8c0.4-0.4,0.9-1,1.6-1.7c0.6-0.7,1.4-1.5,2.2-2.5
	c0.7-0.9,1.5-1.5,2.3-1.9s1.7-0.6,2.7-0.6s1.6,0.3,2.1,0.9c0.4,0.6,0.7,1.4,0.7,2.6c0,0.6-0.2,1.7-0.7,3.4c-0.4,1.7-1.1,3.9-2.1,6.7
	l-0.7,1.5c-0.2,0.3-0.3,0.6-0.3,0.9c-0.1,0.3-0.1,0.5-0.1,0.6c0,0.2,0.1,0.4,0.3,0.6l0.4-0.3c0.1-0.1,0.3-0.3,0.4-0.5
	c0.2-0.4,0.5-0.8,1-1.2s0.9-0.9,1.5-1.4c0.2-0.4,0.5-0.9,0.9-1.3s0.8-0.8,1.3-1.2c0.1-0.1,0.2-0.3,0.4-0.5l0.6-0.7
	c0.3-0.3,0.7-0.7,1.2-1.1s1-0.7,1.6-1.1c0.7-0.4,1.3-0.7,1.9-0.9c0.6-0.2,1-0.3,1.5-0.3c0.8,0,1.5,0.2,2.1,0.6s1.2,1,1.6,1.8
	c0.5,1.6,1,3.1,1.5,4.5c0.3,0.8,0.6,1.4,1,1.8s0.7,0.6,1.2,0.6c0.3,0,0.6-0.1,0.9-0.2c0.3-0.1,0.5-0.3,0.8-0.6l1.6,3.6
	c-0.4,0.4-0.9,0.7-1.4,1.1s-0.9,0.8-1.4,1.1c-0.6,0.5-1.2,0.9-1.7,1.2c-0.5,0.2-1,0.3-1.6,0.3s-1.2-0.1-1.7-0.4
	c-0.5-0.3-1-0.7-1.4-1.2c-0.2-0.2-0.5-0.6-0.8-1.2c-0.3-0.6-0.7-1.3-1.1-2.1c-0.3-0.3-0.7-0.8-1.2-1.3c-0.4-0.6-0.9-1.2-1.5-2
	l-0.4-0.1c-0.5,0.2-1,0.4-1.5,0.7c-0.5,0.3-1,0.7-1.5,1.2c-1.2,1-2,1.7-2.5,2c-0.5,0.3-0.9,0.6-1.1,0.9c-0.4,0.6-1,1.4-1.9,2.4
	s-2,2.2-3.3,3.5l-1,1c-0.3,0.3-0.7,0.6-1,1c-0.3,0.3-0.7,0.5-1.2,0.6c-0.4,0.1-0.9,0.2-1.4,0.2c-1,0-1.6-0.4-1.7-1.1
	c-0.1-0.7-0.2-1.4-0.3-2.2c0.4-1.1,0.8-2.5,1.3-4.1c0.5-1.6,1.1-3.6,1.7-5.7c0-0.1,0-0.3,0.1-0.5s0.2-0.5,0.3-0.9l0.3-0.9
	c0.1-0.2,0.1-0.5,0.1-0.6c0-0.2-0.1-0.3-0.2-0.4c-0.1-0.1-0.3-0.2-0.6-0.2s-0.6,0.2-1,0.5c-0.4,0.3-0.9,0.8-1.5,1.5
	c-0.7,0.8-1.3,1.4-1.8,1.8c-0.4,0.4-0.7,0.7-0.9,0.8c-0.3,0.2-0.6,0.4-0.9,0.8l-1.2,1.1c-0.1,0.1-0.1,0.3-0.2,0.5
	c-0.1,0.2-0.3,0.4-0.5,0.7c-0.1-0.4-0.3-0.9-0.5-1.4C117.8,402.7,117.5,402,117.1,401.1L117.1,401.1z M174.4,401.1
	c0.5-0.5,1.2-1.2,2.2-2.1c1-0.9,2.3-2.1,3.8-3.4l1.2-1.3c0.6-0.7,1.5-1.8,2.7-3.1c0.5-0.5,1.2-1.2,2-2.1s1.7-1.9,2.7-3
	c0.7-0.9,1.3-1.6,1.9-2c0.6-0.5,1.3-0.7,1.9-0.7c0.8,0,1.3,0.2,1.7,0.6c0.4,0.4,0.5,0.9,0.5,1.6c0,0.4-0.1,1.1-0.2,2s-0.2,1.5-0.2,2
	c0,0.7-0.1,2-0.3,3.8c-0.2,1.8-0.6,4.2-1,7.1c0,0.2-0.1,0.5-0.2,0.9c-0.1,0.4-0.2,1-0.4,1.7c-0.2,0.5-0.3,1-0.3,1.4
	c-0.1,0.4-0.1,0.8-0.1,1.1v0.5c1.3-0.9,2.4-1.8,3.3-2.6c1-0.8,1.7-1.6,2.4-2.3l1.6,3.6c-0.3,0.1-2.1,1.7-5.5,4.8
	c-0.2,0.5-0.5,1-1,1.5s-1.3,1.1-2.2,1.6c-0.3,0.4-0.6,1-0.9,1.7c-0.4,0.7-0.8,1.6-1.2,2.5c-0.3,0.7-0.5,1.4-0.7,2
	c-0.2,0.6-0.4,1.2-0.5,1.7c-0.3,1-0.7,2.3-1.4,3.7c-0.7,1.4-1.4,3.1-2.4,5c-1.1,2.3-2.2,4-3.1,5.1c-0.9,1.1-1.6,1.7-2.2,1.6
	c-0.6-0.1-1.1-0.1-1.5-0.1s-0.6-0.1-0.7-0.1c-0.2-0.2-0.4-0.4-0.5-0.8c-0.1-0.4-0.1-0.9-0.1-1.5c0-0.4,0.1-1,0.2-1.8
	c0.1-0.8,0.3-1.8,0.6-3c0.2-0.8,0.4-1.6,0.7-2.4c0.3-0.8,0.6-1.6,1-2.4c0.3-0.8,0.7-1.5,1.1-2.2c0.4-0.7,0.7-1.5,1.1-2.3
	c0.9-1,1.7-2.2,2.5-3.4s1.6-2.6,2.5-4c0.2-0.5,0.3-1.2,0.5-2.1c0.2-0.8,0.3-1.9,0.5-3c0.2-1.2,0.4-2.4,0.6-3.4
	c0.1-0.9,0.2-1.6,0.3-2.1c0.1-0.5,0.1-0.9,0.1-1.1l-0.2-2l0.7-2.1c-0.1-0.3-0.2-0.6-0.4-0.7c-0.2-0.2-0.4-0.3-0.6-0.3
	c-0.5,0-1,0.1-1.4,0.4c-0.4,0.3-0.9,0.6-1.2,1.1c-0.4,0.6-1,1.2-1.6,1.9c-0.7,0.7-1.4,1.4-2.3,2.2c-1.1,1-2,1.8-2.7,2.4
	s-1.2,1.1-1.5,1.5c-0.1-0.3-0.3-0.7-0.5-1.2s-0.4-1-0.6-1.6c-0.1-0.2-0.1-0.3-0.2-0.4C174.6,401.3,174.5,401.2,174.4,401.1
	L174.4,401.1z M199.2,365c0.6,0,1,0.1,1.3,0.4c0.3,0.3,0.4,0.6,0.4,1.1s-0.1,1.1-0.3,1.9c-0.2,0.7-0.5,1.5-0.9,2.4l-0.9,2.1
	c-0.2,0.4-0.8,1-1.8,1.7c-1,0.7-1.8,1-2.3,1c-0.7,0-1.3,0-1.8-0.1c-0.5-0.1-0.9-0.2-1.1-0.4c-0.2-0.2-0.4-0.5-0.6-1
	c-0.1-0.5-0.2-1.1-0.2-1.9c0-1.2,1-2.7,3.1-4.5C196.3,365.9,197.9,365,199.2,365L199.2,365z M199.2,399.4l3.6-2.3l0.5-0.5
	c0.2-0.2,0.4-0.5,0.6-1c0.2-0.3,0.4-0.6,0.7-0.9c0.3-0.2,0.6-0.4,1-0.6c0.2-0.3,0.5-0.6,0.9-1s0.9-0.8,1.5-1.4
	c0.3-0.2,0.7-0.4,1.1-0.7c0.4-0.3,0.9-0.7,1.4-1.2c2.4-2.2,4.4-3.9,6.2-5c1.8-1.1,3.3-1.7,4.5-1.7c0.7,0,1.2,0.1,1.5,0.4
	c0.3,0.3,0.5,0.7,0.5,1.2s-0.1,1-0.3,1.4c-0.2,0.4-0.5,0.8-0.9,1.1c-0.7,0.5-1.4,1-2.1,1.6c-0.4,0.5-0.9,1.1-1.5,1.7
	s-1.3,1.2-2.1,1.8c-0.3,0.3-0.5,0.6-0.7,0.9l-0.7,0.7c-0.4,0.3-0.8,0.7-1.4,1.2c-0.3,0.6-0.8,1.3-1.7,2.2c-0.9,0.9-2,2-3.5,3.3
	c-0.2,0.2-0.5,0.6-1,1.2c-0.5,0.7-1.1,1.5-1.8,2.6l0.3,0.4c0.6-0.2,1.2-0.5,1.8-0.9c0.6-0.4,1.3-1,2.1-1.8c0.9-0.8,1.6-1.5,2.2-2
	s1-0.8,1.2-1c0.2-0.1,0.4-0.2,0.5-0.3c0.2-0.1,0.4-0.2,0.6-0.4c1.2-1.4,2.3-2.5,3.4-3.2c1-0.7,2-1,2.9-1c0.5,0,1,0.2,1.2,0.6
	c0.3,0.4,0.5,1.1,0.5,1.9c-0.1,1.3-0.1,2.6-0.1,3.8c0,0.8,0.2,1.6,0.7,2.2c0.5,0.7,1.1,1,1.9,1c0.2,0,0.5-0.1,0.7-0.2
	c0.2-0.1,0.4-0.3,0.7-0.5c0.2-0.2,0.4-0.5,0.5-0.7l0.5-0.6c0.1-0.1,0.3-0.1,0.4-0.3c0.2-0.1,0.4-0.3,0.6-0.5
	c0.4,0.8,0.7,1.5,0.9,2.1c0.2,0.6,0.4,1.1,0.6,1.5c-0.6,0.5-1.2,1.1-1.8,1.7s-1.2,1.1-1.9,1.7c-0.8,0.6-1.5,1-2.3,1.3
	c-0.7,0.3-1.5,0.4-2.2,0.4c-1.7,0-3-0.5-3.9-1.4c-0.9-1-1.4-2.4-1.6-4.4c0-0.2,0-0.5-0.1-0.7s-0.2-0.5-0.4-0.8l-0.4,0.4
	c-0.2,0.1-0.3,0.3-0.5,0.6c-0.3,0.3-0.8,0.6-1.3,1c-0.5,0.4-1.1,0.9-1.8,1.4l-2.3,2.3c-0.6,0.6-1.1,1-1.3,1.3
	c-0.5,0.4-1.1,0.9-1.8,1.3s-1.5,0.9-2.3,1.4c-0.5,0.3-1,0.5-1.4,0.7s-0.7,0.3-0.9,0.3c-1.2,0-2.2-0.3-2.8-0.9
	c-0.6-0.6-0.9-1.6-0.9-2.8c0-0.7,0.2-1.4,0.4-2c0.3-0.6,0.7-1.3,1.3-1.9c0.1-0.3,0.1-0.6,0.1-0.8c0-0.1,0-0.3-0.1-0.4
	s-0.1-0.3-0.3-0.5l-0.5-1.2c-0.2-0.5-0.4-0.9-0.6-1.5c0.1-0.1,0.3-0.3,0.4-0.6C198.7,400.2,198.9,399.8,199.2,399.4L199.2,399.4z
	 M228,401.1c0.2-0.2,0.3-0.4,0.5-0.7c0.2-0.3,0.4-0.6,0.7-1c1.1-1.4,2.3-2.7,3.3-3.8s2.1-2.1,3.1-3l1.8-1.8c0,0,1.5-1.6,2.5-2.6
	c0.9-0.4,2-0.8,3.1-1.2c0.7,0,1.2,0.2,1.6,0.7c0.3,0.5,0.5,1.1,0.5,2c0,0.7-0.1,1.5-0.2,2.4c-0.1,0.8-0.3,1.7-0.5,2.6
	c-0.2,0.7-0.4,1.4-0.6,2c0,0.2,0,0.3,0.1,0.4s0.2,0.1,0.4,0.1c0.4-0.2,1.1-0.8,2.3-2c1.1-1.1,2.6-2.7,4.4-4.7c1.6-1.7,2.9-3,4.1-3.8
	s2.1-1.3,2.8-1.3c0.8,0,1.3,0.3,1.7,0.8c0.4,0.6,0.5,1.4,0.5,2.5c0,1.6-0.1,3.1-0.4,4.6c-0.2,1.5-0.6,2.9-1.2,4.2
	c-0.1,0.3-0.2,0.5-0.2,0.7v0.5c0,0.2,0.2,0.4,0.5,0.5c0.2-0.2,0.4-0.4,0.7-0.8c0.3-0.3,0.6-0.8,1-1.3l1.8-1.5c0.6-0.5,1.2-1,2-1.5
	c0.7-0.6,1.5-1,2.2-1.3c0.8-0.3,1.5-0.4,2.2-0.4c0.1,0,0.3,0,0.4,0.1c0.1,0.1,0.3,0.2,0.4,0.3c0.6,0.5,1.1,1,1.5,1.4
	s0.7,0.8,0.8,1.1c1,2.1,1.9,3.6,2.7,4.7c0.8,1,1.5,1.5,2.1,1.5c0.1,0,0.3,0,0.4-0.1c0.1-0.1,0.3-0.1,0.4-0.3
	c0.6,1.3,1.1,2.5,1.5,3.6c-0.9,0.7-1.8,1.3-2.5,1.7c-0.7,0.4-1.4,0.6-1.9,0.6c-1.8,0-3.6-1.2-5.6-3.5c-1.9-2.3-3.4-3.5-4.4-3.5
	c-1.4,0-3.6,2-6.8,6c-3.1,4-5.1,6-5.9,6c-0.4,0-0.9,0-1.6-0.1c-0.2-0.1-0.4-0.2-0.5-0.5c-0.1-0.2-0.2-0.5-0.2-0.9
	c0-0.4,0.1-0.9,0.2-1.5c0.2-0.6,0.4-1.4,0.6-2.2c0.3-1.1,0.6-2,0.8-2.6c0.2-0.7,0.3-1.1,0.4-1.4c0.1-0.3,0.2-1,0.3-2
	c0.1-1,0.3-2.3,0.6-3.9c0-0.3-0.1-0.5-0.2-0.7s-0.3-0.2-0.5-0.2s-0.4,0.1-0.6,0.2s-0.5,0.3-0.8,0.6l-1,1c-0.4,0.3-1,0.8-1.8,1.4
	c-0.9,1-1.8,2.1-2.8,3.2l-2.9,3.3c-1.6,1.8-2.8,3.2-3.7,4c-0.9,0.9-1.5,1.3-1.8,1.3c-0.8,0-1.4-0.1-1.8-0.3s-0.6-0.5-0.6-0.8
	c0-0.9,0.5-2.6,1.4-5.4c0.9-2.7,1.4-4.6,1.4-5.8c0-0.2-0.1-0.3-0.2-0.4s-0.3-0.2-0.5-0.2c-0.3,0-0.7,0.2-1.1,0.5
	c-0.4,0.4-0.9,0.9-1.5,1.7c-0.4,0.4-0.8,0.9-1.3,1.4l-1.9,1.9l-0.3,0.6l-0.4,0.6c-0.1-0.4-0.3-0.9-0.5-1.4
	C228.7,402.7,228.4,402,228,401.1z M277.3,401.1c0.3-0.5,0.7-1.1,1.2-1.7c0.5-0.6,1.1-1.1,1.9-1.7c0.1-0.5,0.2-1,0.2-1.5
	s0.1-1,0.2-1.5c0.1-0.4,0.2-0.8,0.4-1.3s0.4-1,0.6-1.6s0.6-1.3,1-2.1c0.4-0.9,0.9-1.8,1.6-2.9c0.5-0.6,1.1-1.3,1.7-2
	s1.2-1.4,1.8-2.2l0.9-0.7c0.3-0.2,0.7-0.4,1-0.7c0.3-0.1,0.7-0.2,1.1-0.3c0.4-0.1,0.8-0.1,1.3-0.1c0.7,0,1.2,0.1,1.6,0.2
	c0.4,0.1,0.7,0.4,1,0.7c0.2,0.2,0.4,0.5,0.5,0.9c0.2,0.4,0.3,0.9,0.5,1.5c0.1,0.5,0.2,1.1,0.3,1.7c0-0.2,0-0.1-0.1,0.2
	c-0.1,0.3-0.2,0.7-0.4,1.4l-0.4,1.2c-0.4,1.2-1.2,2.7-2.5,4.3c-1.3,1.6-3,3.5-5.2,5.6c-0.2,0.2-0.3,0.4-0.5,0.7
	c-0.1,0.3-0.2,0.6-0.2,0.9c0,0.5,0.1,1,0.3,1.4c0.2,0.4,0.5,0.7,0.8,0.9c0.2,0.2,0.5,0.3,1,0.5s1,0.3,1.6,0.4c1-0.1,1.9-0.2,2.8-0.5
	c0.8-0.3,1.6-0.6,2.2-0.9c0.1-0.1,0.3-0.2,0.6-0.3c0.3-0.1,0.6-0.3,0.9-0.6c0.3,0.8,0.6,1.4,0.9,2s0.5,1.1,0.6,1.6
	c-1.5,1.5-2.8,2.6-4,3.3s-2.3,1.1-3.3,1.1c-0.4,0.3-0.9,0.4-1.4,0.6c-0.5,0.1-1.2,0.2-1.9,0.2c-1,0-1.8-0.1-2.6-0.4
	c-0.7-0.3-1.4-0.7-1.9-1.2c-0.3-0.3-0.5-0.6-0.8-1.2c-0.3-0.5-0.5-1.1-0.8-1.8c-0.2-0.6-0.5-1-0.7-1.3c-0.2-0.3-0.4-0.4-0.7-0.4
	c-0.2,0-0.4,0.1-0.7,0.3c-0.3,0.2-0.5,0.5-0.9,0.9c-0.1-0.4-0.3-0.9-0.5-1.4C278,402.7,277.7,402,277.3,401.1z M289.8,388.4
	c-0.6,0-1.3,0.7-2.3,2.2s-1.4,2.6-1.4,3.3c0,0.2,0,0.3,0.1,0.3c0.1,0.1,0.2,0.1,0.4,0.1c0.3,0,0.5-0.1,0.7-0.4
	c0.2-0.3,0.4-0.6,0.5-0.8c0.3-0.3,0.6-0.5,0.8-0.8l0.8-0.9c0.3-0.4,0.5-0.7,0.7-1.1s0.2-0.7,0.2-1.1c0-0.2,0-0.4-0.1-0.6
	C290.1,388.5,289.9,388.4,289.8,388.4L289.8,388.4z M296.9,401.1c0.3-0.5,0.7-1.1,1.2-1.7c0.5-0.6,1.1-1.1,1.9-1.7
	c0.1-0.5,0.2-1,0.2-1.5s0.1-1,0.2-1.5c0.1-0.4,0.2-0.8,0.4-1.3s0.4-1,0.6-1.6s0.6-1.3,1-2.1c0.4-0.9,0.9-1.8,1.6-2.9
	c0.5-0.6,1.1-1.3,1.7-2s1.2-1.4,1.8-2.2l0.9-0.7c0.3-0.2,0.7-0.4,1-0.7c0.3-0.1,0.7-0.2,1.1-0.3c0.4-0.1,0.8-0.1,1.3-0.1
	c0.7,0,1.2,0.1,1.6,0.2c0.4,0.1,0.7,0.4,1,0.7c0.2,0.2,0.4,0.5,0.5,0.9c0.2,0.4,0.3,0.9,0.5,1.5c0.1,0.5,0.2,1.1,0.3,1.7
	c0-0.2,0-0.1-0.1,0.2c-0.1,0.3-0.2,0.7-0.4,1.4l-0.4,1.2c-0.4,1.2-1.2,2.7-2.5,4.3c-1.3,1.6-3,3.5-5.2,5.6c-0.2,0.2-0.3,0.4-0.5,0.7
	c-0.1,0.3-0.2,0.6-0.2,0.9c0,0.5,0.1,1,0.3,1.4c0.2,0.4,0.5,0.7,0.8,0.9c0.2,0.2,0.5,0.3,1,0.5s1,0.3,1.6,0.4c1-0.1,1.9-0.2,2.8-0.5
	c0.8-0.3,1.6-0.6,2.2-0.9c0.1-0.1,0.3-0.2,0.6-0.3c0.3-0.1,0.6-0.3,0.9-0.6c0.3,0.8,0.6,1.4,0.9,2s0.5,1.1,0.6,1.6
	c-1.5,1.5-2.8,2.6-4,3.3s-2.3,1.1-3.3,1.1c-0.4,0.3-0.9,0.4-1.4,0.6c-0.5,0.1-1.2,0.2-1.9,0.2c-1,0-1.8-0.1-2.6-0.4
	c-0.7-0.3-1.4-0.7-1.9-1.2c-0.3-0.3-0.5-0.6-0.8-1.2c-0.3-0.5-0.5-1.1-0.8-1.8c-0.2-0.6-0.5-1-0.7-1.3c-0.2-0.3-0.4-0.4-0.7-0.4
	c-0.2,0-0.4,0.1-0.7,0.3c-0.3,0.2-0.5,0.5-0.9,0.9c-0.1-0.4-0.3-0.9-0.5-1.4C297.7,402.7,297.3,402,296.9,401.1z M309.4,388.4
	c-0.6,0-1.3,0.7-2.3,2.2s-1.4,2.6-1.4,3.3c0,0.2,0,0.3,0.1,0.3c0.1,0.1,0.2,0.1,0.4,0.1c0.3,0,0.5-0.1,0.7-0.4
	c0.2-0.3,0.4-0.6,0.5-0.8c0.3-0.3,0.6-0.5,0.8-0.8l0.8-0.9c0.3-0.4,0.5-0.7,0.7-1.1s0.2-0.7,0.2-1.1c0-0.2,0-0.4-0.1-0.6
	C309.7,388.5,309.6,388.4,309.4,388.4L309.4,388.4z M316.6,401.1c0.2-0.3,0.5-0.6,0.7-1s0.5-0.8,0.9-1.2l2.6-2.3
	c0.1-0.1,0.2-0.2,0.2-0.3v-0.5c0-0.3-0.1-0.6-0.1-0.8c0-0.6,0.1-1.6,0.4-3c0.3-1.4,0.4-2.3,0.6-2.5l-0.2-0.7
	c0.3-1.7,0.8-3.7,1.4-5.7c0.6-2.1,1.3-4.3,2.1-6.7c0.3-0.4,0.5-0.9,0.8-1.6c0.3-0.6,0.6-1.4,1-2.2c0.4-1.4,1-2.8,1.8-4.3
	c0.7-1.5,1.5-3,2.5-4.6c1.2-2.1,2.3-3.6,3.3-4.6s1.8-1.6,2.6-1.6c1.5,0,2.5,0.3,3.1,0.9c0.6,0.6,0.8,1.7,0.8,3.3
	c0,0.4-0.1,1.1-0.2,1.9c-0.1,0.9-0.2,1.5-0.2,2c0,0.4-0.1,1.1-0.4,1.9c-0.3,0.8-0.4,1.5-0.4,2.2c0,0.2-0.1,0.4-0.2,0.6v0.5
	c-0.1,0.4-0.3,0.8-0.5,1.3s-0.5,1.1-0.8,1.9c-0.2,0.7-0.4,1.4-0.7,2.3c-0.3,0.9-0.6,1.8-1,2.8c-0.2,0.3-0.4,0.6-0.6,1
	s-0.5,0.8-0.8,1.3c-0.1,0.3-0.2,0.7-0.4,1.2c-0.2,0.4-0.4,1-0.7,1.6l-0.6,1c-0.3,0.4-0.6,0.8-0.9,1.4c-0.2,0.3-0.3,0.6-0.5,1
	s-0.4,0.8-0.6,1.3c-0.3,0.4-0.7,1-1.1,1.6c-0.5,0.7-1,1.4-1.6,2.3c-0.8,1.4-1.6,2.8-2.5,4.1c0,2.5,0.5,4.4,1.5,5.7s2.5,1.9,4.5,1.9
	c0.1,0,0.5-0.1,1.2-0.3s1.5-0.5,2.7-0.9c0.3-0.2,0.7-0.5,1.2-0.9c0.5-0.4,1-0.8,1.6-1.3l1.5,3.6c-0.7,0.6-1.4,1.2-2,1.8l-2.1,1.8
	c-0.8,0.7-1.6,1.2-2.5,1.5c-0.8,0.4-1.7,0.5-2.5,0.5c-0.4,0-1.1,0-1.9-0.1c-0.9-0.1-1.5-0.1-2-0.1c-1.5,0-2.7-0.6-3.6-1.8
	c-1-1.2-1.6-2.9-2-5.3l-0.2-0.6c-0.1-0.2-0.3-0.4-0.5-0.6l-1.2,1.2c-0.5,0.5-1,1-1.7,1.6L316.6,401.1L316.6,401.1z M335.2,370.4
	l-0.3-0.2c-1.5,1.4-2.6,2.7-3.3,4s-1.1,2.5-1.1,3.6c0,0.2-0.1,0.5-0.3,0.9c-0.2,0.4-0.4,1-0.8,1.7c-0.4,0.8-0.8,1.7-1.3,2.7
	c-0.5,1.5-0.9,2.6-1.1,3.6c-0.3,0.9-0.4,1.6-0.4,2l0.2,0.3c0.2,0,0.5-0.3,0.9-0.7c0.3-0.4,0.7-1.1,1.2-2c0.2-0.5,0.5-1,0.9-1.6
	s0.8-1.4,1.3-2.2c0.4-0.6,1.1-2,2-4.4s1.4-3.9,1.5-4.5c0-0.5,0.1-1,0.2-1.5S335.1,370.9,335.2,370.4L335.2,370.4z"/>
</svg>
