<?xml version="1.0" encoding="utf-8"?>
<!-- Generator: Adobe Illustrator 19.2.0, SVG Export Plug-In . SVG Version: 6.00 Build 0)  -->
<svg version="1.1" id="Layer_1" xmlns="http://www.w3.org/2000/svg" xmlns:xlink="http://www.w3.org/1999/xlink" x="0px" y="0px"
	 width="431.1px" height="78.5px" viewBox="0 0 431.1 78.5" style="enable-background:new 0 0 431.1 78.5;" xml:space="preserve">
<style type="text/css">
	.st0{fill:#276CA3;}
</style>
<polygon class="st0" points="177.3,43.4 178.9,47 178.1,47.1 "/>
<polygon class="st0" points="147,43.5 146.7,43.6 148.3,47.2 149,46.4 "/>
<g>
	<path class="st0" d="M281.8,17.6c0.2,0.2,0.6,0.3,1.1,0.4c0.5,0.1,1.1,0.1,1.8,0.1c0.5,0,1.3-0.3,2.3-1s1.6-1.3,1.8-1.7l0.9-2.1
		c0.4-0.9,0.7-1.7,0.9-2.4c0.2-0.8,0.3-1.4,0.3-1.9s-0.1-0.8-0.4-1.1c-0.3-0.3-0.7-0.4-1.3-0.4c-1.3,0-2.9,0.9-5.1,2.7
		c-2.1,1.8-3.1,3.3-3.1,4.5c0,0.8,0.1,1.4,0.2,1.9C281.4,17.1,281.6,17.4,281.8,17.6z"/>
	<polygon class="st0" points="0,43.6 0,43.6 0,43.6 	"/>
	<polygon class="st0" points="24.5,43.6 24.5,43.6 24.5,43.6 	"/>
	<path class="st0" d="M430.3,0.9c-0.6-0.6-1.6-0.9-3.1-0.9c-0.8,0-1.6,0.6-2.6,1.6s-2.1,2.5-3.3,4.6c-1,1.6-1.8,3.1-2.5,4.6
		c-0.8,1.5-1.4,2.9-1.8,4.3c-0.4,0.8-0.7,1.6-1,2.2c-0.3,0.7-0.5,1.2-0.8,1.6c-0.8,2.4-1.5,4.6-2.1,6.7c-0.6,2-1.1,4-1.4,5.7
		l0.2,0.7c-0.2,0.2-0.3,1.1-0.6,2.5c-0.3,1.4-0.4,2.4-0.4,3c0,0.2,0.1,0.5,0.1,0.8v0.5c0,0.1-0.1,0.2-0.2,0.3l-2.6,2.3
		c-0.4,0.4-0.7,0.8-0.9,1.2c-0.2,0.4-0.5,0.7-0.7,1c0,0,0,0,0-0.1c-0.3,0.3-0.6,0.5-0.9,0.6c-0.3,0.1-0.5,0.2-0.6,0.3
		c-0.6,0.3-1.4,0.6-2.2,0.9c-0.9,0.3-1.8,0.4-2.8,0.5c-0.6-0.1-1.1-0.2-1.6-0.4s-0.8-0.3-1-0.5c-0.3-0.2-0.6-0.5-0.8-0.9
		c-0.2-0.4-0.3-0.9-0.3-1.4c0-0.3,0.1-0.6,0.2-0.9c0.2-0.3,0.3-0.5,0.5-0.7c2.2-2.1,3.9-4,5.2-5.6s2.1-3.1,2.5-4.3l0.4-1.2
		c0.2-0.7,0.3-1.1,0.4-1.4c0-0.1,0.1-0.2,0.1-0.3c-0.1-0.6-0.2-1.1-0.3-1.6c-0.2-0.6-0.3-1.1-0.5-1.5c-0.1-0.4-0.3-0.7-0.5-0.9
		c-0.3-0.3-0.6-0.6-1-0.7c-0.4-0.1-0.9-0.2-1.6-0.2c-0.5,0-0.9,0-1.3,0.1c-0.4,0.1-0.8,0.2-1.1,0.3c-0.3,0.3-0.7,0.5-1,0.7l-0.9,0.7
		c-0.6,0.8-1.2,1.5-1.8,2.2c-0.6,0.7-1.2,1.4-1.7,2c-0.7,1.1-1.2,2-1.6,2.9c-0.4,0.8-0.8,1.5-1,2.1c-0.2,0.6-0.4,1.1-0.6,1.6
		c-0.2,0.5-0.3,0.9-0.4,1.3c-0.1,0.5-0.2,1-0.2,1.5s-0.1,1-0.2,1.5c-0.8,0.6-1.4,1.1-1.9,1.7c-0.5,0.6-0.9,1.2-1.2,1.7
		c-0.3,0.3-0.5,0.4-0.8,0.5c-0.3,0.1-0.5,0.2-0.6,0.3c-0.6,0.3-1.4,0.6-2.2,0.9c-0.9,0.3-1.8,0.4-2.8,0.5c-0.6-0.1-1.1-0.2-1.6-0.4
		s-0.8-0.3-1-0.5c-0.3-0.2-0.6-0.5-0.8-0.9c-0.2-0.4-0.3-0.9-0.3-1.4c0-0.3,0.1-0.6,0.2-0.9c0.2-0.3,0.3-0.5,0.5-0.7
		c2.2-2.1,3.9-4,5.2-5.6s2.1-3.1,2.5-4.3l0.4-1.2c0.2-0.7,0.3-1.1,0.4-1.4c0-0.1,0.1-0.2,0.1-0.3c-0.1-0.6-0.2-1.1-0.3-1.6
		c-0.2-0.6-0.3-1.1-0.5-1.5c-0.1-0.4-0.3-0.7-0.5-0.9c-0.3-0.3-0.6-0.6-1-0.7c-0.4-0.1-0.9-0.2-1.6-0.2c-0.5,0-0.9,0-1.3,0.1
		c-0.4,0.1-0.8,0.2-1.1,0.3c-0.3,0.3-0.7,0.5-1,0.7l-0.9,0.7c-0.6,0.8-1.2,1.5-1.8,2.2c-0.6,0.7-1.2,1.4-1.7,2
		c-0.7,1.1-1.2,2-1.6,2.9c-0.4,0.8-0.8,1.5-1,2.1c-0.2,0.6-0.4,1.1-0.6,1.6c-0.2,0.5-0.3,0.9-0.4,1.3c-0.1,0.5-0.2,1-0.2,1.5
		s-0.1,1-0.2,1.5c-0.8,0.6-1.4,1.1-1.9,1.7c-0.5,0.6-0.9,1.2-1.2,1.7c0,0,0,0.1,0,0.1c-0.1,0.1-0.3,0.1-0.3,0.2
		c-0.1,0.1-0.3,0.1-0.4,0.1c-0.6,0-1.3-0.5-2.1-1.5c-0.8-1.1-1.7-2.6-2.7-4.7c-0.1-0.3-0.4-0.7-0.8-1.1c-0.4-0.4-0.9-0.9-1.5-1.4
		l-0.4-0.3c-0.1-0.1-0.3-0.1-0.4-0.1c-0.7,0-1.4,0.1-2.2,0.4c-0.7,0.3-1.5,0.7-2.2,1.3c-0.8,0.5-1.4,1-2,1.5l-1.8,1.5
		c-0.4,0.5-0.7,1-1,1.3c-0.3,0.4-0.5,0.6-0.7,0.8c-0.3-0.1-0.5-0.3-0.5-0.5v-0.5c0-0.2,0.1-0.4,0.2-0.7c0.6-1.3,1-2.7,1.2-4.2
		c0.3-1.5,0.4-3,0.4-4.6c0-1.1-0.1-1.9-0.5-2.5c-0.4-0.5-0.9-0.8-1.7-0.8c-0.7,0-1.6,0.5-2.8,1.3s-2.5,2.1-4.1,3.8
		c-1.8,2-3.3,3.6-4.4,4.7c-1.2,1.2-1.9,1.8-2.3,2c-0.2,0-0.3,0-0.4-0.1c-0.1-0.1-0.1-0.2-0.1-0.4c0.2-0.6,0.4-1.3,0.6-2
		c0.2-0.9,0.4-1.8,0.5-2.6c0.1-0.9,0.2-1.7,0.2-2.4c0-0.9-0.2-1.5-0.5-2c-0.4-0.5-0.9-0.7-1.6-0.7c-1.1,0.4-2.2,0.8-3.1,1.2
		c-1,1-2.5,2.6-2.5,2.6l-1.8,1.8c-1,0.9-2.1,1.9-3.1,3s-2.2,2.4-3.3,3.8c-0.3,0.4-0.5,0.7-0.7,1c-0.2,0.2-0.3,0.4-0.4,0.5
		c0,0,0,0,0,0c-0.2,0.2-0.4,0.4-0.6,0.5c-0.1,0.2-0.3,0.2-0.4,0.3l-0.5,0.6c-0.1,0.2-0.3,0.5-0.5,0.7c-0.3,0.2-0.5,0.4-0.7,0.5
		c-0.2,0.1-0.5,0.2-0.7,0.2c-0.8,0-1.4-0.3-1.9-1c-0.5-0.6-0.7-1.4-0.7-2.2c0-1.2,0-2.5,0.1-3.8c0-0.8-0.2-1.5-0.5-1.9
		c-0.2-0.4-0.7-0.6-1.2-0.6c-0.9,0-1.9,0.3-2.9,1c-1.1,0.7-2.2,1.8-3.4,3.2c-0.2,0.2-0.4,0.3-0.6,0.4c-0.1,0.1-0.3,0.2-0.5,0.3
		c-0.2,0.2-0.6,0.5-1.2,1s-1.3,1.2-2.2,2c-0.8,0.8-1.5,1.4-2.1,1.8c-0.6,0.4-1.2,0.7-1.8,0.9l-0.3-0.4c0.7-1.1,1.3-1.9,1.8-2.6
		c0.5-0.6,0.8-1,1-1.2c1.5-1.3,2.6-2.4,3.5-3.3c0.9-0.9,1.4-1.6,1.7-2.2c0.6-0.5,1-0.9,1.4-1.2l0.7-0.7c0.2-0.3,0.4-0.6,0.7-0.9
		c0.8-0.6,1.5-1.2,2.1-1.8c0.6-0.6,1.1-1.2,1.5-1.7c0.7-0.6,1.4-1.1,2.1-1.6c0.4-0.3,0.7-0.7,0.9-1.1c0.2-0.4,0.3-0.9,0.3-1.4
		s-0.2-0.9-0.5-1.2s-0.8-0.4-1.5-0.4c-1.2,0-2.7,0.6-4.5,1.7c-1.8,1.1-3.8,2.8-6.2,5c-0.5,0.5-1,0.9-1.4,1.2
		c-0.4,0.3-0.8,0.5-1.1,0.7c-0.6,0.6-1.1,1-1.5,1.4c-0.4,0.4-0.7,0.7-0.9,1c-0.4,0.2-0.7,0.4-1,0.6c-0.3,0.3-0.5,0.6-0.7,0.9
		c-0.2,0.5-0.4,0.8-0.6,1l-0.5,0.5l-3.6,2.3c-0.3,0.4-0.5,0.8-0.8,1c-0.1,0.3-0.3,0.5-0.4,0.6v0.2c-0.7,0.7-1.4,1.5-2.4,2.3
		c-0.9,0.8-2,1.7-3.3,2.6v-0.5c0-0.3,0-0.7,0.1-1.1c0-0.4,0.1-0.9,0.3-1.4c0.2-0.7,0.3-1.3,0.4-1.7c0.1-0.4,0.2-0.7,0.2-0.9
		c0.4-2.9,0.8-5.3,1-7.1s0.3-3.1,0.3-3.8c0-0.5,0.1-1.1,0.2-2c0.1-0.9,0.2-1.6,0.2-2c0-0.7-0.1-1.2-0.5-1.6
		c-0.4-0.4-0.9-0.6-1.7-0.6c-0.6,0-1.3,0.2-1.9,0.7c-0.6,0.4-1.2,1.1-1.9,2c-1,1.1-1.9,2.1-2.7,3c-0.8,0.9-1.5,1.6-2,2.1
		c-1.2,1.3-2.1,2.4-2.7,3.1l-1.2,1.3c-1.5,1.3-2.8,2.5-3.8,3.4c-1,0.9-1.7,1.6-2.2,2.1v0c0.1,0.1,0.2,0.2,0.5,0.4
		c0.1,0.1,0.1,0.2,0.2,0.4c0.2,0.6,0.4,1.1,0.6,1.6c0.2,0.5,0.4,0.9,0.5,1.2c0.3-0.4,0.8-0.9,1.5-1.5c0.7-0.6,1.6-1.4,2.7-2.4
		c0.9-0.8,1.6-1.5,2.3-2.2c0.6-0.7,1.2-1.3,1.6-1.9c0.3-0.5,0.8-0.8,1.2-1.1c0.4-0.3,0.9-0.4,1.4-0.4c0.2,0,0.4,0.1,0.6,0.3
		c0.2,0.1,0.3,0.4,0.4,0.7l-0.7,2.1l0.2,2c0,0.2,0,0.6-0.1,1.1c-0.1,0.5-0.2,1.2-0.3,2.1c-0.2,1-0.4,2.2-0.6,3.4
		c-0.2,1.1-0.3,2.2-0.5,3c-0.2,0.9-0.3,1.6-0.5,2.1c-0.9,1.4-1.7,2.8-2.5,4c-0.8,1.2-1.6,2.4-2.5,3.4c-0.4,0.8-0.7,1.6-1.1,2.3
		c-0.4,0.7-0.8,1.4-1.1,2.2c-0.4,0.8-0.7,1.6-1,2.4s-0.5,1.6-0.7,2.4c-0.3,1.2-0.5,2.2-0.6,3s-0.2,1.4-0.2,1.8c0,0.6,0,1.1,0.1,1.5
		c0.1,0.4,0.3,0.6,0.5,0.8c0.1,0,0.3,0.1,0.7,0.1c0.4,0,0.9,0,1.5,0.1c0.6,0.1,1.3-0.5,2.2-1.6c0.9-1.1,2-2.8,3.1-5.1
		c1-1.9,1.7-3.6,2.4-5s1.1-2.7,1.4-3.7c0.1-0.5,0.3-1.1,0.5-1.7c0.2-0.6,0.4-1.3,0.7-2c0.4-0.9,0.8-1.8,1.2-2.5
		c0.3-0.7,0.6-1.3,0.9-1.7c0.9-0.5,1.7-1.1,2.2-1.6s0.8-1,1-1.5c2.7-2.5,4.4-4,5.1-4.5l0.3-0.2c0,0.2,0,0.3-0.1,0.5
		c-0.6,0.6-1,1.3-1.3,1.9c-0.2,0.6-0.4,1.3-0.4,2c0,1.2,0.3,2.2,0.9,2.8c0.6,0.6,1.6,0.9,2.8,0.9c0.2,0,0.5-0.1,0.9-0.3
		c0.4-0.2,0.9-0.4,1.4-0.7c0.8-0.5,1.6-1,2.3-1.4c0.7-0.4,1.3-0.9,1.8-1.3c0.2-0.3,0.7-0.7,1.3-1.3l2.3-2.3c0.7-0.5,1.3-1,1.8-1.4
		c0.5-0.4,1-0.7,1.3-1c0.2-0.3,0.3-0.5,0.5-0.6l0.4-0.4c0.2,0.3,0.3,0.6,0.4,0.8c0.1,0.2,0.1,0.5,0.1,0.7c0.2,2,0.7,3.4,1.6,4.4
		c0.9,0.9,2.2,1.4,3.9,1.4c0.7,0,1.5-0.1,2.2-0.4c0.8-0.3,1.5-0.7,2.3-1.3c0.7-0.6,1.3-1.1,1.9-1.7c0.5-0.5,1.1-1.1,1.6-1.6
		c0,0.1,0,0.1,0.1,0.2l0.4-0.6l0.3-0.6l1.9-1.9c0.5-0.5,0.9-1,1.3-1.4c0.6-0.8,1.1-1.3,1.5-1.7c0.4-0.3,0.8-0.5,1.1-0.5
		c0.2,0,0.4,0.1,0.5,0.2c0.1,0.1,0.2,0.2,0.2,0.4c0,1.2-0.5,3.1-1.4,5.8c-0.9,2.8-1.4,4.5-1.4,5.4c0,0.3,0.2,0.6,0.6,0.8
		c0.4,0.2,1,0.3,1.8,0.3c0.3,0,0.9-0.4,1.8-1.3c0.9-0.8,2.1-2.2,3.7-4l2.9-3.3c1-1.1,1.9-2.2,2.8-3.2c0.8-0.6,1.4-1.1,1.8-1.4l1-1
		c0.3-0.3,0.6-0.5,0.8-0.6c0.2-0.1,0.4-0.2,0.6-0.2s0.4,0,0.5,0.2s0.2,0.4,0.2,0.7c-0.3,1.6-0.5,2.9-0.6,3.9c-0.1,1-0.2,1.7-0.3,2
		s-0.2,0.7-0.4,1.4c-0.2,0.6-0.5,1.5-0.8,2.6c-0.2,0.8-0.4,1.6-0.6,2.2c-0.1,0.6-0.2,1.1-0.2,1.5c0,0.4,0.1,0.7,0.2,0.9
		c0.1,0.3,0.3,0.4,0.5,0.5c0.7,0.1,1.2,0.1,1.6,0.1c0.8,0,2.8-2,5.9-6c3.2-4,5.4-6,6.8-6c1,0,2.5,1.2,4.4,3.5c2,2.3,3.8,3.5,5.6,3.5
		c0.5,0,1.2-0.2,1.9-0.6c0.7-0.4,1.6-1,2.5-1.7c0,0,0-0.1,0-0.1c0.3-0.4,0.5-0.6,0.8-0.8c0.3-0.2,0.5-0.3,0.7-0.3
		c0.3,0,0.5,0.1,0.7,0.4s0.5,0.7,0.7,1.3c0.3,0.7,0.5,1.3,0.8,1.8c0.3,0.6,0.5,0.9,0.8,1.2c0.5,0.5,1.2,0.9,1.9,1.2
		c0.8,0.3,1.6,0.4,2.6,0.4c0.7,0,1.4-0.1,1.9-0.2c0.5-0.2,1-0.3,1.4-0.6c1,0,2.1-0.4,3.3-1.1c1.2-0.7,2.4-1.8,3.9-3.2c0,0,0,0,0,0
		c0,0,0,0,0,0c0,0,0,0,0.1-0.1c0,0,0,0,0,0c0.3-0.3,0.5-0.6,0.8-0.8c0.3-0.2,0.5-0.3,0.7-0.3c0.3,0,0.5,0.1,0.7,0.4s0.5,0.7,0.7,1.3
		c0.3,0.7,0.5,1.3,0.8,1.8c0.3,0.6,0.5,0.9,0.8,1.2c0.5,0.5,1.2,0.9,1.9,1.2c0.8,0.3,1.6,0.4,2.6,0.4c0.7,0,1.4-0.1,1.9-0.2
		c0.5-0.2,1-0.3,1.4-0.6c1,0,2.1-0.4,3.3-1.1c1.2-0.7,2.5-1.8,4-3.3c-0.1-0.5-0.3-1-0.6-1.6c-0.2-0.5-0.5-1-0.7-1.6l1.6,3.2
		c0.7-0.6,1.2-1.1,1.7-1.6l1.2-1.2c0.2,0.2,0.4,0.4,0.5,0.6l0.2,0.6c0.4,2.4,1,4.1,2,5.3c0.9,1.2,2.1,1.8,3.6,1.8c0.5,0,1.1,0,2,0.1
		c0.8,0.1,1.5,0.1,1.9,0.1c0.8,0,1.7-0.1,2.5-0.5c0.9-0.3,1.7-0.8,2.5-1.5l2.1-1.8c0.6-0.6,1.3-1.2,2-1.8l-1.5-3.6
		c-0.6,0.5-1.1,0.9-1.6,1.3c-0.5,0.4-0.9,0.7-1.2,0.9l-2.7,0.9c-0.7,0.2-1.1,0.3-1.2,0.3c-2,0-3.5-0.6-4.5-1.9
		c-1-1.3-1.5-3.2-1.5-5.7c0.9-1.3,1.7-2.7,2.5-4.1c0.6-0.9,1.1-1.6,1.6-2.3c0.4-0.6,0.8-1.2,1.1-1.6c0.2-0.5,0.4-0.9,0.6-1.3
		c0.2-0.4,0.3-0.7,0.5-1c0.3-0.6,0.6-1,0.9-1.4l0.6-1c0.3-0.6,0.5-1.2,0.7-1.6c0.2-0.5,0.3-0.9,0.4-1.2c0.3-0.5,0.6-0.9,0.8-1.3
		c0.2-0.4,0.4-0.7,0.6-1c0.4-1,0.7-1.9,1-2.8c0.3-0.9,0.5-1.6,0.7-2.3c0.3-0.8,0.6-1.4,0.8-1.9s0.4-0.9,0.5-1.3v-0.5
		c0.1-0.2,0.2-0.4,0.2-0.6c0-0.7,0.1-1.4,0.4-2.2s0.4-1.5,0.4-1.9c0-0.5,0.1-1.1,0.2-2c0.1-0.8,0.2-1.5,0.2-1.9
		C431.1,2.6,430.9,1.5,430.3,0.9z M376.2,36.7c-0.1,0-0.1-0.1-0.1-0.3c0-0.7,0.4-1.8,1.4-3.3s1.7-2.2,2.3-2.2c0.1,0,0.3,0.1,0.4,0.2
		c0.1,0.2,0.1,0.4,0.1,0.6c0,0.4,0,0.7-0.2,1.1c-0.2,0.4-0.4,0.7-0.7,1.1l-0.8,0.9c-0.2,0.3-0.5,0.5-0.8,0.8
		c-0.1,0.2-0.3,0.5-0.5,0.8s-0.4,0.4-0.7,0.4C376.4,36.8,376.3,36.8,376.2,36.7z M395.8,36.7c-0.1,0-0.1-0.1-0.1-0.3
		c0-0.7,0.4-1.8,1.4-3.3s1.7-2.2,2.3-2.2h0c0.2,0,0.3,0.1,0.4,0.2c0.1,0.2,0.1,0.4,0.1,0.6c0,0.4,0,0.7-0.2,1.1
		c-0.2,0.4-0.4,0.7-0.7,1.1l-0.8,0.9c-0.2,0.3-0.5,0.5-0.8,0.8c-0.1,0.2-0.3,0.5-0.5,0.8s-0.4,0.4-0.7,0.4
		C396,36.8,395.9,36.8,395.8,36.7z M424.8,14.6c-0.1,0.5-0.2,1-0.2,1.5c-0.1,0.6-0.6,2.1-1.5,4.5c-0.9,2.4-1.6,3.8-2,4.4
		c-0.5,0.8-0.9,1.6-1.3,2.2c-0.4,0.6-0.7,1.1-0.9,1.6c-0.5,0.9-0.9,1.6-1.2,2c-0.4,0.4-0.7,0.7-0.9,0.7l-0.2-0.3
		c0-0.4,0.1-1.1,0.4-2c0.2-1,0.6-2.1,1.1-3.6c0.5-1,0.9-1.9,1.3-2.7c0.4-0.7,0.6-1.3,0.8-1.7c0.2-0.4,0.3-0.7,0.3-0.9
		c0-1.1,0.4-2.3,1.1-3.6c0.7-1.3,1.8-2.6,3.3-4l0.3,0.2l0,0C425.1,13.4,424.9,14.1,424.8,14.6z"/>
	<path class="st0" d="M405.7,28.2C405.7,28.2,405.7,28.3,405.7,28.2C405.7,28.2,405.7,28.2,405.7,28.2z"/>
	<path class="st0" d="M386.1,28.2C386.1,28.2,386.1,28.3,386.1,28.2C386.1,28.2,386.1,28.2,386.1,28.2z"/>
	<path class="st0" d="M148.3,47.2l-1.6-3.6c-1.7,1.6-3,2.9-4.1,3.9c-1,1-1.9,1.6-2.4,1.9l-0.3-0.4c0.5-1.6,1-3.1,1.5-4.4
		c0.5-1.4,1-2.5,1.4-3.5c0.5-1.5,0.9-2.9,1.3-4c0.3-1.2,0.6-2.1,0.8-2.9l0.1-0.5c0.1-0.1,0.1-0.3,0.1-0.5c0-0.4-0.1-0.8-0.4-1
		c-0.3-0.2-0.7-0.3-1.3-0.3c-0.8,0-1.6,0.1-2.2,0.4c-0.6,0.3-1.1,0.6-1.4,1.1c-0.8,0.9-1.5,1.6-2.2,2.3c-0.7,0.6-1.3,1.2-1.8,1.6
		l-3.5,3.5c-1,1.1-1.8,1.9-2.5,2.5c-0.8,0.7-1.5,1.3-2.2,1.8c-0.6,0.5-1.2,0.9-1.7,1.2h-0.2c-0.1,0-0.3-0.1-0.4-0.2
		c-0.1-0.1-0.2-0.2-0.2-0.5c0-1.2,0.4-3,1.2-5.2s1.2-3.9,1.2-4.9c0-0.7-0.1-1.2-0.5-1.5s-0.9-0.5-1.5-0.5c-0.5,0-1,0.1-1.5,0.4
		s-1,0.6-1.5,1.1c-0.8,0.9-1.6,1.7-2.2,2.4c-0.6,0.7-1.1,1.2-1.5,1.7c-0.6,0.6-1.6,1.3-2.8,2.2c-1.2,0.8-2.1,1.6-2.7,2.2
		c0,0,0,0,0-0.1c-0.2,0.2-0.4,0.4-0.6,0.5c-0.1,0.2-0.3,0.2-0.4,0.3l-0.5,0.6c-0.1,0.2-0.3,0.5-0.5,0.7c-0.3,0.2-0.5,0.4-0.7,0.5
		c-0.2,0.1-0.5,0.2-0.7,0.2c-0.8,0-1.4-0.3-1.9-1c-0.5-0.6-0.7-1.4-0.7-2.2c0-1.2,0-2.5,0.1-3.8c0-0.8-0.2-1.5-0.5-1.9
		c-0.2-0.4-0.7-0.6-1.2-0.6c-0.9,0-1.9,0.3-2.9,1c-1.1,0.7-2.2,1.8-3.4,3.2c-0.2,0.2-0.4,0.3-0.6,0.4c-0.1,0.1-0.3,0.2-0.5,0.3
		c-0.2,0.2-0.6,0.5-1.2,1c-0.6,0.5-1.3,1.2-2.2,2c-0.8,0.8-1.5,1.4-2.1,1.8c-0.6,0.4-1.2,0.7-1.8,0.9l-0.3-0.4
		c0.7-1.1,1.3-1.9,1.8-2.6c0.5-0.6,0.8-1,1-1.2c1.5-1.3,2.6-2.4,3.5-3.3c0.9-0.9,1.4-1.6,1.7-2.2c0.6-0.5,1-0.9,1.4-1.2l0.7-0.7
		c0.2-0.3,0.4-0.6,0.7-0.9c0.8-0.6,1.5-1.2,2.1-1.8c0.6-0.6,1.1-1.2,1.5-1.7c0.7-0.6,1.4-1.1,2.1-1.6c0.4-0.3,0.7-0.7,0.9-1.1
		c0.2-0.4,0.3-0.9,0.3-1.4s-0.2-0.9-0.5-1.2c-0.3-0.3-0.8-0.4-1.5-0.4c-1.2,0-2.7,0.6-4.5,1.7c-1.8,1.1-3.8,2.8-6.2,5
		c-0.5,0.5-1,0.9-1.4,1.2c-0.4,0.3-0.8,0.5-1.1,0.7c-0.6,0.6-1.1,1-1.5,1.4c-0.4,0.4-0.7,0.7-0.9,1c-0.4,0.2-0.7,0.4-1,0.6
		c-0.3,0.3-0.5,0.6-0.7,0.9c-0.2,0.5-0.4,0.8-0.6,1L88,39.6l-3.6,2.3c-0.2,0.4-0.4,0.8-0.8,1.1c-0.1,0.2-0.2,0.3-0.3,0.5
		c0,0,0,0,0-0.1c-0.2,0.2-0.4,0.4-0.6,0.5c-0.1,0.2-0.3,0.2-0.4,0.3l-0.5,0.6c-0.1,0.2-0.3,0.5-0.5,0.7c-0.3,0.2-0.5,0.4-0.7,0.5
		c-0.2,0.1-0.5,0.2-0.7,0.2c-0.8,0-1.4-0.3-1.9-1c-0.5-0.6-0.7-1.4-0.7-2.2c0-1.2,0-2.5,0.1-3.8c0-0.8-0.2-1.5-0.5-1.9
		c-0.2-0.4-0.7-0.6-1.2-0.6c-0.9,0-1.9,0.3-2.9,1c-1.1,0.7-2.2,1.8-3.4,3.2c-0.2,0.2-0.4,0.3-0.6,0.4c-0.1,0.1-0.3,0.2-0.5,0.3
		c-0.2,0.2-0.6,0.5-1.2,1c-0.6,0.5-1.3,1.2-2.2,2c-0.8,0.8-1.5,1.4-2.1,1.8c-0.6,0.4-1.2,0.7-1.8,0.9l-0.3-0.4
		c0.7-1.1,1.3-1.9,1.8-2.6c0.5-0.6,0.8-1,1-1.2c1.5-1.3,2.6-2.4,3.5-3.3c0.9-0.9,1.4-1.6,1.7-2.2c0.6-0.5,1-0.9,1.4-1.2l0.7-0.7
		c0.2-0.3,0.4-0.6,0.7-0.9c0.8-0.6,1.5-1.2,2.1-1.8c0.6-0.6,1.1-1.2,1.5-1.7c0.7-0.6,1.4-1.1,2.1-1.6c0.4-0.3,0.7-0.7,0.9-1.1
		c0.2-0.4,0.3-0.9,0.3-1.4s-0.2-0.9-0.5-1.2s-0.8-0.4-1.5-0.4c-1.2,0-2.7,0.6-4.5,1.7c-1.8,1.1-3.8,2.8-6.2,5
		c-0.5,0.5-1,0.9-1.4,1.2c-0.4,0.3-0.8,0.5-1.1,0.7c-0.6,0.6-1.1,1-1.5,1.4c-0.4,0.4-0.7,0.7-0.9,1c-0.4,0.2-0.7,0.4-1,0.6
		c-0.3,0.3-0.5,0.6-0.7,0.9c-0.2,0.5-0.4,0.8-0.6,1L58,39.6l-3.6,2.3c-0.3,0.4-0.5,0.8-0.8,1.1c-0.1,0.2-0.2,0.4-0.3,0.5
		c-1.1,0.2-2.1,0.4-2.9,0.5c-0.6,0-1.2-0.1-1.7-0.5c-0.5-0.3-0.9-0.9-1.2-1.7c-0.1-0.2-0.2-0.6-0.4-1.3c-0.2-0.7-0.5-1.8-0.8-3.1
		c-0.2-0.7-0.4-1.3-0.7-1.7c-0.2-0.4-0.6-0.6-0.9-0.6c-0.1,0-0.3,0-0.5,0.1s-0.4,0.2-0.7,0.3l-1.4,0.6c-0.4,0.2-0.9,0.8-1.5,1.7
		c-0.6,1-1.2,2.3-2,4c-0.9,1.9-1.6,3.4-2.3,4.6c-0.6,1.2-1.2,2.1-1.7,2.5l-0.8,0.8c-0.3,0.2-0.5,0.4-0.6,0.6c-0.2,0-0.3-0.1-0.4-0.3
		c-0.1-0.2-0.1-0.6-0.1-1c0-1.2,0.2-2.5,0.4-4c0.2-1.5,0.6-3.2,1.1-5.2c1.3-1.7,2.4-3.1,3.4-4.3s1.8-2.2,2.4-3
		c1.3-1.6,2.3-2.9,3-3.9s1.1-1.7,1.4-2c0.5-0.6,0.9-1.1,1.3-1.5c0.4-0.4,0.6-0.8,0.8-1.2c0.6-1,1.1-1.9,1.5-2.6
		c0.4-0.8,0.7-1.4,1-1.9c0.5-0.9,1-1.7,1.4-2.4c0.4-0.8,0.7-1.4,1-1.8c0.4-1.2,0.8-2.2,1.2-3.1c0.4-0.9,0.8-1.7,1.1-2.3
		c0.1-0.2,0.1-0.4,0.2-0.7c0-0.2,0.1-0.5,0.1-0.9l0.2-0.9c0.1-0.3,0.2-0.5,0.4-0.7c0.1-0.6,0.2-1,0.3-1.4C55,4.8,55,4.5,55,4.3
		c0-1.1-0.2-2-0.5-2.5S53.7,1,53,1c-0.1,0.1-0.3,0.1-0.5,0.1c-0.2-0.3-0.4-0.6-0.8-0.9c-0.4,0-0.9,0.1-1.6,0.5
		c-0.6,0.4-1.4,0.9-2.3,1.7c-1,0.8-1.9,1.7-2.9,2.7C44,6,43,7.1,42.1,8.2l-2,2.7c-0.8,1.1-1.7,2.4-2.8,4c-0.4,0.8-0.8,1.4-1.1,2
		c-0.4,0.6-0.6,1.1-0.8,1.5c-0.1,0.4-0.3,0.8-0.5,1.2c-0.1,0.4-0.3,0.7-0.5,0.9c-0.6,0.9-1.1,1.8-1.6,2.9c-0.5,1.1-0.9,2.3-1.2,3.6
		c-0.3,1-0.6,1.9-0.9,2.7s-0.6,1.5-0.8,2c-0.5,1.7-1.2,4.6-1.2,4.6l-0.8,3.3c0,0.3-0.1,0.6-0.4,1c-0.2,0.3-0.6,0.7-1,1.1
		c-0.1,0.2-0.4,0.4-0.7,0.7c-0.3,0.3-0.7,0.7-1.3,1.2c0.1,0.1,0.1,0.2,0.2,0.4c-0.2,0.1-0.4,0.4-0.8,0.6c-0.5,0.4-1.2,1.1-2.1,1.9
		c-0.8,0.7-1.4,1.3-1.9,1.6s-0.8,0.5-1,0.5c-0.2-0.1-0.3-0.2-0.4-0.3c0.3-1.1,0.6-2,0.8-2.7c0.2-0.7,0.4-1.3,0.6-1.8l1.6-5.4
		c0.2-0.6,0.4-2.2,0.8-4.8c0.1-0.9,0.2-1.7,0.3-2.3c0.1-0.6,0.1-1,0.1-1.3c0-1-0.3-1.8-0.9-2.4c-0.5-0.5-1.4-0.8-2.6-0.8
		c-0.3,0-0.6,0-0.9,0.1c-0.3,0.1-0.7,0.2-1,0.4c-1.1,0.9-2,1.8-2.8,2.6s-1.5,1.6-2.2,2.3c-0.6,0.6-1.1,1-1.5,1.4
		c-0.5,0.4-0.9,0.7-1.2,0.9c-0.2,0.4-0.4,0.7-0.6,1c-0.2,0.3-0.4,0.5-0.6,0.6c-0.5,0.5-1,0.9-1.4,1.3c-0.5,0.4-0.8,0.7-1.1,0.9
		c-0.1,0.2-0.3,0.4-0.5,0.7c-0.1,0.1-0.4,0.4-0.9,0.7s-1.1,0.8-2,1.3c-0.6,0.4-1.1,0.8-1.5,1.2c-0.4,0.4-0.6,0.8-0.8,1.1L0,43.6
		c0.5,0.9,0.8,1.6,1.2,2.2c0.2,0.5,0.4,1,0.5,1.4c0.3-0.4,0.5-0.7,0.7-1c0.1-0.3,0.3-0.5,0.4-0.7c3.3-3.1,5.9-5.4,7.7-7
		c1.9-1.5,3-2.3,3.3-2.3c0.3,0,0.6,0.1,0.7,0.3c0.1,0.2,0.2,0.5,0.2,0.8c0,0.4,0,1.1-0.1,2c-0.1,0.9-0.2,1.9-0.4,3.1
		c-0.2,1.3-0.4,2.4-0.6,3.1c-0.2,0.7-0.4,1.1-0.6,1.1s-0.3-0.2-0.5-0.6c-0.1-0.4-0.4-0.6-0.8-0.6c-0.7,0-1.4,0.3-2,0.8
		s-0.9,1.1-0.9,1.9c0,0.1,0.1,0.5,0.3,1.2L9,49.9v0.7c0,1.1,0.1,2.1,0.3,3c0.3,1,0.6,1.8,0.9,2.5c0,0.4,0.1,0.7,0.2,1
		c0.1,0.3,0.3,0.4,0.6,0.5c0.5-0.2,1-0.3,1.9-0.4c0.4-0.1,0.8-0.2,1.2-0.4c0.3-0.1,0.6-0.2,0.9-0.5c0.3-0.2,0.6-0.6,1-1.1l0.7-0.2
		c0.8-0.7,1.5-1.3,2.2-1.9c0.7-0.5,1.2-1,1.6-1.4c0.9-0.5,1.7-1,2.4-1.5c0.7-0.4,1.4-0.8,1.9-1.2c0.3-0.4,0.5-0.6,0.8-0.9
		c0.3-0.3,0.6-0.5,0.9-0.7c0-0.1-0.1-0.2-0.1-0.3c0.1-0.1,0.3-0.2,0.3-0.3c0.1-0.2,0.2-0.3,0.3-0.4c0.1,0,0.2,0,0.3,0.1
		c0.1,0.1,0.1,0.2,0.1,0.3c-0.1,0.4-0.2,0.8-0.3,1.1c0,0.1-0.1,0.3-0.1,0.5V49c0,0.8,0.1,1.7,0.3,2.8c0.1,1.1,0.4,2.3,0.7,3.8
		c0.1,0.4,0.4,0.8,1,1c0.5,0.2,1.3,0.3,2.3,0.3c0.5,0,1-0.3,1.7-0.8s1.4-1.3,2.3-2.3c0.8-1,1.4-1.8,1.9-2.6c0.5-0.8,0.9-1.5,1.2-2.1
		c0.4-0.6,0.8-1.2,1.3-1.7l1.3-1.6h0.2c0.2,0,0.7,0.7,1.6,2.2c0.9,1.5,2.1,2.2,3.7,2.2c1,0,1.9-0.1,2.7-0.2c0.8-0.1,1.4-0.3,1.8-0.5
		l1.9-1.2l1.8-1.1c0,0,0,0,0,0c0,0.2,0,0.5-0.1,0.8c-0.6,0.6-1,1.3-1.3,1.9c-0.2,0.6-0.4,1.3-0.4,2c0,1.2,0.3,2.2,0.9,2.8
		c0.6,0.6,1.6,0.9,2.8,0.9c0.2,0,0.5-0.2,0.9-0.4c0.4-0.2,0.9-0.4,1.4-0.7c0.8-0.5,1.6-1,2.3-1.4c0.7-0.4,1.3-0.9,1.8-1.3
		c0.2-0.3,0.7-0.7,1.3-1.3l2.3-2.3c0.7-0.5,1.3-1,1.8-1.4c0.5-0.4,1-0.7,1.3-1c0.2-0.3,0.3-0.5,0.5-0.6l0.4-0.4
		c0.2,0.3,0.3,0.6,0.4,0.8c0.1,0.2,0.1,0.5,0.1,0.7c0.2,2,0.7,3.4,1.6,4.4c0.9,0.9,2.2,1.4,3.9,1.4c0.7,0,1.5-0.1,2.2-0.4
		c0.8-0.3,1.5-0.7,2.3-1.3c0.7-0.6,1.3-1.1,1.9-1.7c0.6-0.6,1.1-1.1,1.7-1.6c0,0,0,0.1,0,0.1c0,0.2,0,0.5-0.1,0.8
		c-0.6,0.6-1,1.3-1.3,1.9c-0.2,0.6-0.4,1.3-0.4,2c0,1.2,0.3,2.2,0.9,2.8c0.6,0.6,1.6,0.9,2.8,0.9c0.2,0,0.5-0.2,0.9-0.4
		c0.4-0.2,0.9-0.4,1.4-0.7c0.8-0.5,1.6-1,2.3-1.4c0.7-0.4,1.3-0.9,1.8-1.3c0.2-0.3,0.7-0.7,1.3-1.3l2.3-2.3c0.7-0.5,1.3-1,1.8-1.4
		c0.5-0.4,1-0.7,1.3-1c0.2-0.3,0.3-0.5,0.5-0.6l0.4-0.4c0.2,0.3,0.3,0.6,0.4,0.8c0.1,0.2,0.1,0.5,0.1,0.7c0.2,2,0.7,3.4,1.6,4.4
		c0.9,0.9,2.2,1.4,3.9,1.4c0.7,0,1.5-0.1,2.2-0.4c0.8-0.3,1.5-0.7,2.3-1.3c0.7-0.6,1.3-1.1,1.9-1.7c0.5-0.5,1.1-1.1,1.6-1.5
		c0,0,0,0,0,0c0.8-0.6,1.4-1.1,1.9-1.5c0.5-0.4,0.9-0.7,1.2-0.9l0.2-0.1c0.3,0,0.5,0.2,0.6,0.6c0.1,0.4,0.2,1,0.2,1.8
		c-0.1,0.6-0.2,1.1-0.3,1.5c0.2,0.5,0.3,0.8,0.4,1.1c-0.1,0.3-0.1,0.6-0.2,0.8c-0.1,0.2-0.1,0.4-0.1,0.6c0,0.9,0.3,1.5,0.7,1.9
		c0.5,0.4,1.1,0.6,2,0.6c1.2,0,2.2-0.3,3.1-0.8c0.9-0.6,1.6-1.4,2.2-2.5c0.8-0.4,1.7-1,2.6-1.7c0.9-0.7,1.7-1.7,2.6-2.8
		c0.6-0.6,1.2-1.1,1.8-1.6c0.5-0.5,1-0.9,1.5-1.1c0.1,0.3,0.2,0.5,0.2,0.7c0,0.2,0,0.3,0.1,0.4c-0.1,1.2-0.3,2.2-0.5,3.2
		c-0.2,1-0.4,1.8-0.7,2.6c-0.6,1.3-1.1,2.4-1.5,3.4c-0.4,1-0.8,1.8-1.1,2.5l-0.3,0.9l-0.3,0.7c-0.7,0.7-1.4,1.5-2.3,2.5
		c-0.9,0.9-1.8,2.1-2.9,3.3c-1.4,1.7-2.5,3.1-3.3,4.2s-1.3,1.8-1.5,2.3c-0.3,0.2-0.5,0.4-0.7,0.6c-0.1,0.2-0.3,0.4-0.4,0.5
		c0,0.1-0.1,0.4-0.2,0.7l-1.2,1c-0.5,0.8-0.9,1.5-1.4,2.2c-0.3,0.4-0.6,0.8-0.7,1.2c-0.1,0.4-0.2,0.7-0.2,1c0,0.5,0.1,0.9,0.4,1.1
		c0.2,0.3,0.6,0.4,1.2,0.4c1.5,0,3.1-0.6,4.7-1.7c1.6-1.2,3.3-2.9,5.1-5.3c0.5-0.7,1.3-2,2.5-3.8s2.7-4.1,4.4-7
		c1.1-1.9,2.7-3.9,4.7-5.8c2-2,4.4-3.9,7.2-5.9c0.5-0.4,0.9-0.7,1.2-1L148.3,47.2z M37,29.4c0.3-0.8,0.7-1.8,1.2-3.2
		c0.5-1.3,1-2.6,1.5-4.1c0-0.4,0.1-0.7,0.2-1c0.2-0.3,0.4-0.6,0.7-0.9l2.1-3.3c0.7-1.1,1.4-2.2,2.2-3.3c1.3-2.1,2.4-3.6,3.3-4.6
		c0.8-1,1.4-1.5,1.7-1.5v0c0.2,0,0.3,0.1,0.5,0.3c0.1,0.1,0.1,0.2,0.1,0.4c0,0.3-0.2,0.8-0.5,1.6c-0.4,0.8-0.8,1.8-1.5,3.1
		c-1.1,2.3-2.2,4.5-3.2,6.3c-1,1.9-2,3.4-2.9,4.6c-0.9,1.2-1.8,2.3-2.5,3.3c-0.7,0.9-1.4,1.7-1.9,2.3c-0.3,0.5-0.8,1-1.3,1.5
		l-0.2-0.2C36.5,30.6,36.7,30.2,37,29.4z M113.2,43.6L113.2,43.6L113.2,43.6L113.2,43.6z"/>
	<path class="st0" d="M243.7,44.3c-0.3,0.1-0.6,0.2-0.9,0.2c-0.5,0-0.8-0.2-1.2-0.6c-0.4-0.4-0.7-1-1-1.8c-0.5-1.4-1-2.9-1.5-4.5
		c-0.4-0.8-1-1.4-1.6-1.8c-0.6-0.4-1.3-0.6-2.1-0.6c-0.5,0-0.9,0.1-1.5,0.3c-0.6,0.2-1.2,0.5-1.9,0.9c-0.6,0.4-1.1,0.7-1.6,1.1
		c-0.5,0.4-0.9,0.8-1.2,1.1l-0.6,0.7c-0.2,0.2-0.3,0.4-0.4,0.5c-0.5,0.4-0.9,0.8-1.3,1.2c-0.4,0.4-0.7,0.9-0.9,1.3
		c-0.6,0.5-1,1-1.5,1.4s-0.8,0.8-1,1.2c-0.1,0.2-0.3,0.4-0.4,0.5l-0.4,0.3c-0.2-0.2-0.3-0.4-0.3-0.6c0-0.1,0-0.3,0.1-0.6
		c0-0.3,0.1-0.6,0.3-0.9l0.7-1.5c1-2.8,1.7-5,2.1-6.7c0.5-1.7,0.7-2.8,0.7-3.4c0-1.2-0.3-2-0.7-2.6c-0.5-0.6-1.1-0.9-2.1-0.9
		s-1.9,0.2-2.7,0.6c-0.8,0.4-1.6,1-2.3,1.9c-0.8,1-1.6,1.8-2.2,2.5c-0.7,0.7-1.2,1.3-1.6,1.7c-1,1.1-1.8,2-2.5,2.8
		c-0.7,0.7-1.2,1.4-1.7,1.9c-0.5,0.6-1,1-1.4,1.4c-0.4,0.4-0.7,0.7-1,0.9c-0.2,0.3-0.4,0.6-0.6,0.8c-0.1,0.1-0.2,0.3-0.3,0.4
		c0,0,0,0,0,0c-0.2,0.2-0.4,0.4-0.6,0.5c-0.1,0.2-0.3,0.2-0.4,0.3l-0.5,0.6c-0.1,0.2-0.3,0.5-0.5,0.7c-0.3,0.2-0.5,0.4-0.7,0.5
		c-0.2,0.1-0.5,0.2-0.7,0.2c-0.8,0-1.4-0.3-1.9-1c-0.5-0.6-0.7-1.4-0.7-2.2c0-1.2,0-2.5,0.1-3.8c0-0.8-0.2-1.5-0.5-1.9
		c-0.2-0.4-0.7-0.6-1.2-0.6c-0.9,0-1.9,0.3-2.9,1c-1.1,0.7-2.2,1.8-3.4,3.2c-0.2,0.2-0.4,0.3-0.6,0.4c-0.1,0.1-0.3,0.2-0.5,0.3
		c-0.2,0.2-0.6,0.5-1.2,1s-1.3,1.2-2.2,2c-0.8,0.8-1.5,1.4-2.1,1.8c-0.6,0.4-1.2,0.7-1.8,0.9l-0.3-0.4c0.7-1.1,1.3-1.9,1.8-2.6
		c0.5-0.6,0.8-1,1-1.2c1.5-1.3,2.6-2.4,3.5-3.3c0.9-0.9,1.4-1.6,1.7-2.2c0.6-0.5,1-0.9,1.4-1.2l0.7-0.7c0.2-0.3,0.4-0.6,0.7-0.9
		c0.8-0.6,1.5-1.2,2.1-1.8c0.6-0.6,1.1-1.2,1.5-1.7c0.7-0.6,1.4-1.1,2.1-1.6c0.4-0.3,0.7-0.7,0.9-1.1c0.2-0.4,0.3-0.9,0.3-1.4
		s-0.2-0.9-0.5-1.2s-0.8-0.4-1.5-0.4c-1.2,0-2.7,0.6-4.5,1.7c-1.8,1.1-3.8,2.8-6.2,5c-0.5,0.5-1,0.9-1.4,1.2
		c-0.4,0.3-0.8,0.5-1.1,0.7c-0.6,0.6-1.1,1-1.5,1.4c-0.4,0.4-0.7,0.7-0.9,1c-0.4,0.2-0.7,0.4-1,0.6c-0.3,0.3-0.5,0.6-0.7,0.9
		c-0.2,0.5-0.4,0.8-0.6,1l-0.5,0.5l-3.6,2.3c-0.3,0.4-0.5,0.8-0.8,1c-0.1,0.3-0.3,0.5-0.4,0.6c0,0,0,0,0-0.1
		c-0.2,0.2-0.4,0.4-0.6,0.5c-0.1,0.2-0.3,0.2-0.4,0.3l-0.5,0.6c-0.1,0.2-0.3,0.5-0.5,0.7c-0.3,0.2-0.5,0.4-0.7,0.5
		c-0.2,0.1-0.5,0.2-0.7,0.2c-0.8,0-1.4-0.3-1.9-1c-0.5-0.6-0.7-1.4-0.7-2.2c0-1.2,0-2.5,0.1-3.8c0-0.8-0.2-1.5-0.5-1.9
		c-0.2-0.4-0.7-0.6-1.2-0.6c-0.9,0-1.9,0.3-2.9,1c-1.1,0.7-2.2,1.8-3.4,3.2c-0.2,0.2-0.4,0.3-0.6,0.4c-0.1,0.1-0.3,0.2-0.5,0.3
		c-0.2,0.2-0.6,0.5-1.2,1c-0.6,0.5-1.3,1.2-2.2,2c-0.8,0.8-1.5,1.4-2.1,1.8c-0.6,0.4-1.2,0.7-1.8,0.9l-0.3-0.4
		c0.7-1.1,1.3-1.9,1.8-2.6c0.5-0.6,0.8-1,1-1.2c1.5-1.3,2.6-2.4,3.5-3.3c0.9-0.9,1.4-1.6,1.7-2.2c0.6-0.5,1-0.9,1.4-1.2l0.7-0.7
		c0.2-0.3,0.4-0.6,0.7-0.9c0.8-0.6,1.5-1.2,2.1-1.8c0.6-0.6,1.1-1.2,1.5-1.7c0.7-0.6,1.4-1.1,2.1-1.6c0.4-0.3,0.7-0.7,0.9-1.1
		c0.2-0.4,0.3-0.9,0.3-1.4s-0.2-0.9-0.5-1.2s-0.8-0.4-1.5-0.4c-1.2,0-2.7,0.6-4.5,1.7c-1.8,1.1-3.8,2.8-6.2,5
		c-0.5,0.5-1,0.9-1.4,1.2c-0.4,0.3-0.8,0.5-1.1,0.7c-0.6,0.6-1.1,1-1.5,1.4c-0.4,0.4-0.7,0.7-0.9,1c-0.4,0.2-0.7,0.4-1,0.6
		c-0.3,0.3-0.5,0.6-0.7,0.9c-0.2,0.5-0.4,0.8-0.6,1l-0.5,0.5l-3.6,2.3h0c-0.2,0.4-0.5,0.8-0.8,1c-0.1,0.3-0.3,0.5-0.4,0.6
		c0.2,0.6,0.4,1,0.6,1.5l0.5,1.2c0.2,0.2,0.2,0.4,0.3,0.5c0.1,0.1,0.1,0.3,0.1,0.4c0,0.2,0,0.5-0.1,0.8c-0.6,0.6-1,1.3-1.3,1.9
		c-0.2,0.6-0.4,1.3-0.4,2c0,1.2,0.3,2.2,0.9,2.8c0.6,0.6,1.6,0.9,2.8,0.9c0.2,0,0.5-0.1,0.9-0.3c0.4-0.2,0.9-0.4,1.4-0.7
		c0.8-0.5,1.6-1,2.3-1.4c0.7-0.4,1.3-0.9,1.8-1.3c0.2-0.3,0.7-0.7,1.3-1.3l2.3-2.3c0.7-0.5,1.3-1,1.8-1.4c0.5-0.4,1-0.7,1.3-1
		c0.2-0.3,0.3-0.5,0.5-0.6l0.4-0.4c0.2,0.3,0.3,0.6,0.4,0.8s0.1,0.5,0.1,0.7c0.2,2,0.7,3.4,1.6,4.4c0.9,0.9,2.2,1.4,3.9,1.4
		c0.7,0,1.5-0.1,2.2-0.4c0.8-0.3,1.5-0.7,2.3-1.3c0.7-0.6,1.3-1.1,1.9-1.7c0.6-0.6,1.2-1.2,1.8-1.7c0,0,0,0.1,0,0.1
		c0,0.2,0,0.5-0.1,0.8c-0.6,0.6-1,1.3-1.3,1.9c-0.2,0.6-0.4,1.3-0.4,2c0,1.2,0.3,2.2,0.9,2.8c0.6,0.6,1.6,0.9,2.8,0.9
		c0.2,0,0.5-0.1,0.9-0.3s0.9-0.4,1.4-0.7c0.8-0.5,1.6-1,2.3-1.4c0.7-0.4,1.3-0.9,1.8-1.3c0.2-0.3,0.7-0.7,1.3-1.3l2.3-2.3
		c0.7-0.5,1.3-1,1.8-1.4c0.5-0.4,1-0.7,1.3-1c0.2-0.3,0.3-0.5,0.5-0.6l0.4-0.4c0.2,0.3,0.3,0.6,0.4,0.8c0.1,0.2,0.1,0.5,0.1,0.7
		c0.2,2,0.7,3.4,1.6,4.4c0.9,0.9,2.2,1.4,3.9,1.4c0.7,0,1.5-0.1,2.2-0.4c0.8-0.3,1.5-0.7,2.3-1.3c0.7-0.6,1.3-1.1,1.9-1.7
		c0.5-0.5,1-1,1.6-1.5c0,0,0,0.1,0,0.1c0.2-0.3,0.4-0.5,0.5-0.7c0.1-0.2,0.1-0.4,0.2-0.5l1.2-1.1c0.3-0.4,0.6-0.6,0.9-0.8
		c0.2-0.1,0.5-0.4,0.9-0.8c0.5-0.4,1.1-1,1.8-1.8c0.6-0.7,1.1-1.2,1.5-1.5c0.4-0.3,0.7-0.5,1-0.5s0.5,0.1,0.6,0.2
		c0.1,0.1,0.2,0.2,0.2,0.4c0,0.1,0,0.4-0.1,0.6l-0.3,0.9c-0.1,0.4-0.2,0.7-0.3,0.9c-0.1,0.2-0.1,0.4-0.1,0.5
		c-0.6,2.1-1.2,4.1-1.7,5.7c-0.5,1.6-0.9,3-1.3,4.1c0.1,0.8,0.2,1.5,0.3,2.2c0.1,0.7,0.7,1.1,1.7,1.1c0.5,0,1-0.1,1.4-0.2
		c0.5-0.1,0.9-0.3,1.2-0.6c0.3-0.4,0.7-0.7,1-1l1-1c1.3-1.3,2.4-2.5,3.3-3.5c0.9-1,1.5-1.8,1.9-2.4c0.2-0.3,0.6-0.6,1.1-0.9
		s1.3-1,2.5-2c0.5-0.5,1-0.9,1.5-1.2s1-0.5,1.5-0.7l0.4,0.1c0.6,0.8,1.1,1.4,1.5,2c0.5,0.5,0.9,1,1.2,1.3c0.4,0.8,0.8,1.5,1.1,2.1
		c0.3,0.6,0.6,1,0.8,1.2c0.4,0.5,0.9,0.9,1.4,1.2s1.1,0.4,1.7,0.4c0.6,0,1.1-0.1,1.6-0.3c0.5-0.3,1.1-0.7,1.7-1.2
		c0.5-0.3,0.9-0.7,1.4-1.1c0.5-0.4,1-0.7,1.4-1.1l-1.6-3.6C244.2,44,244,44.2,243.7,44.3z M178.3,46.3c0.1,0.2,0.1,0.3,0.2,0.4
		c0.1,0.1,0.1,0.2,0.1,0.3C178.5,46.8,178.4,46.6,178.3,46.3z"/>
</g>
</svg>
