<svg xmlns="http://www.w3.org/2000/svg" viewBox="0 0 430.8 82.9" enable-background="new 0 0 430.8 82.9"><style type="text/css">.st0{fill:#276CA3;}</style><path class="st0" d="M0 46l.2-.3c.2-.3.4-.7.8-1.1.4-.4.9-.8 1.5-1.2.9-.5 1.5-1 2-1.3.5-.3.8-.6.9-.7.2-.3.4-.5.5-.7.3-.2.6-.5 1.1-.9.4-.4.9-.8 1.4-1.3.2-.1.4-.3.6-.6.2-.3.4-.6.6-1 .3-.2.7-.5 1.2-.9.4-.4.9-.8 1.5-1.4.7-.7 1.4-1.5 2.2-2.3.8-.8 1.7-1.7 2.8-2.6.3-.2.7-.3 1-.4.3-.1.6-.1.9-.1 1.2 0 2.1.3 2.6.8.6.6.9 1.4.9 2.4 0 .3 0 .7-.1 1.3-.1.6-.2 1.4-.3 2.3-.4 2.6-.6 4.2-.8 4.8l-1.6 5.4c-.2.5-.4 1.1-.6 1.8-.2.7-.5 1.6-.8 2.7.1.1.2.2.4.3.2 0 .5-.2 1-.5s1.1-.9 1.9-1.6c.9-.8 1.6-1.5 2.1-1.9.5-.4.8-.7 1-.8.3.7.6 1.3.9 1.9.3.6.5 1.1.7 1.7-.3.2-.6.4-.9.7-.3.3-.5.5-.8.9-.5.4-1.2.8-1.9 1.2-.7.5-1.5 1-2.4 1.5-.4.4-.9.9-1.6 1.4-.7.6-1.4 1.2-2.2 1.9l-.7.2c-.4.5-.7.9-1 1.1-.3.3-.6.4-.9.5-.4.2-.8.3-1.2.4-.9.1-1.4.2-1.9.4-.3-.1-.5-.2-.6-.5-.1-.3-.2-.6-.2-1-.3-.7-.6-1.5-.9-2.5-.2-.9-.3-1.9-.3-3v-.7l.1-.6c-.2-.7-.3-1.1-.3-1.2 0-.8.3-1.4.9-1.9.6-.5 1.3-.8 2-.8.4 0 .7.2.8.6.2.4.3.6.5.6s.4-.4.6-1.1c.2-.7.4-1.8.6-3.1.2-1.2.3-2.2.4-3.1.1-.9.1-1.6.1-2 0-.3-.1-.6-.2-.8-.1-.2-.4-.3-.7-.3-.3 0-1.4.8-3.3 2.3-1.8 1.6-4.4 3.9-7.7 7-.1.2-.3.4-.4.7-.2.3-.4.6-.7 1-.1-.4-.3-.9-.5-1.4-.4-.6-.7-1.3-1.2-2.2zm24.5 0c.6-.5 1-.9 1.3-1.2.3-.3.6-.5.7-.7.4-.4.8-.8 1-1.1.3-.4.4-.7.4-1l.8-3.3s.7-2.9 1.2-4.6c.2-.5.5-1.2.8-2 .3-.8.6-1.7.9-2.7.3-1.3.7-2.5 1.2-3.6s1-2 1.6-2.9c.2-.2.4-.5.5-.9.2-.4.4-.8.5-1.2.2-.4.4-.9.8-1.5.3-.6.7-1.2 1.1-2 1.1-1.6 2-2.9 2.8-4l2-2.7c.9-1.1 1.9-2.2 2.8-3.1 1-1 1.9-1.9 2.9-2.7.9-.8 1.7-1.3 2.3-1.7.7-.4 1.2-.5 1.6-.5.4.3.6.6.8.9.2 0 .4 0 .5-.1.7 0 1.2.3 1.5.8s.5 1.4.5 2.5c0 .2 0 .5-.1.9s-.2.8-.3 1.4c-.2.2-.3.4-.4.7l-.2.9c0 .4-.1.7-.1.9-.1.3-.1.5-.2.7-.3.6-.7 1.4-1.1 2.3s-.8 1.9-1.2 3.1c-.3.4-.6 1-1 1.8-.4.7-.9 1.5-1.4 2.4-.3.5-.6 1.1-1 1.9-.4.7-.9 1.6-1.5 2.6-.2.4-.4.8-.8 1.2-.4.4-.8.9-1.3 1.5-.3.3-.7 1-1.4 2s-1.7 2.3-3 3.9c-.6.8-1.4 1.8-2.4 3s-2.1 2.6-3.4 4.3c-.5 2-.9 3.7-1.1 5.2-.2 1.5-.4 2.8-.4 4 0 .4 0 .8.1 1 .1.2.2.3.4.3.1-.2.3-.4.6-.6l.8-.8c.5-.4 1.1-1.3 1.7-2.5.7-1.2 1.4-2.7 2.3-4.6.8-1.7 1.4-3 2-4 .6-.9 1.1-1.5 1.5-1.7l1.4-.6c.3-.1.5-.2.7-.3.2-.1.4-.1.5-.1.3 0 .7.2.9.6.3.4.5 1 .7 1.7.3 1.3.6 2.4.8 3.1.2.7.3 1.1.4 1.3.3.8.7 1.4 1.2 1.7.5.4 1.1.5 1.7.5.8-.1 1.8-.3 2.9-.5.2.5.4 1.1.7 1.7.3.6.6 1.2.8 1.9l-1.9 1.2-1.9 1.2c-.4.2-1 .4-1.8.5s-1.7.2-2.7.2c-1.6 0-2.8-.7-3.7-2.2-.9-1.5-1.4-2.2-1.6-2.2h-.2l-1.3 1.6c-.5.5-.9 1.1-1.3 1.7-.3.6-.7 1.3-1.2 2.1s-1.1 1.6-1.9 2.6c-.9 1-1.6 1.8-2.3 2.3-.7.5-1.2.8-1.7.8-1 0-1.8-.1-2.3-.3-.6-.2-.9-.6-1-1-.3-1.5-.6-2.7-.7-3.8-.2-1.1-.3-2-.3-2.8v-.6c0-.2.1-.4.1-.5.1-.3.2-.7.3-1.1 0-.1 0-.2-.1-.3-.1-.1-.2-.1-.3-.1-.1.1-.2.2-.3.4-.1.1-.3.3-.5.4-.1-.3-.3-.8-.5-1.4-.5-.6-.8-1.3-1.2-2.2zm25.4-36.1c-.3 0-.9.5-1.7 1.5-.9 1-2 2.5-3.3 4.6-.8 1.1-1.5 2.2-2.2 3.3l-2.1 3.3c-.3.3-.5.6-.7.9-.1.3-.2.6-.2 1-.5 1.5-1 2.8-1.5 4.1-.5 1.4-.9 2.4-1.2 3.2-.3.8-.5 1.2-.5 1.3l.2.2c.5-.5 1-1 1.3-1.5.5-.6 1.2-1.4 1.9-2.3.7-1 1.6-2.1 2.5-3.3.9-1.2 1.9-2.7 2.9-4.6 1-1.8 2.1-4 3.2-6.3.7-1.3 1.1-2.3 1.5-3.1.3-.8.5-1.3.5-1.6 0-.2 0-.3-.1-.4-.2-.2-.3-.3-.5-.3zm4.5 34.4l3.6-2.3.5-.5c.2-.2.4-.5.6-1 .2-.3.4-.6.7-.9.3-.2.6-.4 1-.6.2-.3.5-.6.9-1s.9-.8 1.5-1.4c.3-.2.7-.4 1.1-.7.4-.3.9-.7 1.4-1.2 2.4-2.2 4.4-3.9 6.2-5 1.8-1.1 3.3-1.7 4.5-1.7.7 0 1.2.1 1.5.4.3.3.5.7.5 1.2s-.1 1-.3 1.4c-.2.4-.5.8-.9 1.1-.7.5-1.4 1-2.1 1.6-.4.5-.9 1.1-1.5 1.7-.6.6-1.3 1.2-2.1 1.8-.3.3-.5.6-.7.9l-.7.7c-.4.3-.8.7-1.4 1.2-.3.6-.8 1.3-1.7 2.2-.9.9-2 2-3.5 3.3-.2.2-.5.6-1 1.2-.5.7-1.1 1.5-1.8 2.6l.3.4c.6-.2 1.2-.5 1.8-.9.6-.4 1.3-1 2.1-1.8.9-.8 1.6-1.5 2.2-2 .6-.5 1-.8 1.2-1 .2-.1.4-.2.5-.3.2-.1.4-.2.6-.4 1.2-1.4 2.3-2.5 3.4-3.2 1-.7 2-1 2.9-1 .5 0 1 .2 1.2.6.3.4.5 1.1.5 1.9-.1 1.3-.1 2.6-.1 3.8 0 .8.2 1.6.7 2.2.5.7 1.1 1 1.9 1 .2 0 .5-.1.7-.2.2-.1.4-.3.7-.5.2-.2.4-.5.5-.7l.5-.6c.1-.1.3-.1.4-.3.2-.1.4-.3.6-.5.4.8.7 1.5.9 2.1.2.6.4 1.1.6 1.5-.6.5-1.2 1.1-1.8 1.7s-1.2 1.1-1.9 1.7c-.8.6-1.5 1-2.3 1.3-.7.3-1.5.4-2.2.4-1.7 0-3-.5-3.9-1.4-.9-1-1.4-2.4-1.6-4.4 0-.2 0-.5-.1-.7-.1-.2-.2-.5-.4-.8l-.4.4c-.2.1-.3.3-.5.6-.3.3-.8.6-1.3 1s-1.1.9-1.8 1.4l-2.3 2.3c-.6.6-1.1 1-1.3 1.3-.5.4-1.1.9-1.8 1.3s-1.5.9-2.3 1.4c-.5.3-1 .5-1.4.7s-.7.4-.9.4c-1.2 0-2.2-.3-2.8-.9-.6-.6-.9-1.6-.9-2.8 0-.7.2-1.4.4-2 .3-.6.7-1.3 1.3-1.9.1-.3.1-.6.1-.8 0-.1 0-.3-.1-.4-.1-.1-.1-.3-.3-.5l-.5-1.2c-.2-.5-.4-.9-.6-1.5.1-.1.3-.3.4-.6.3-.3.5-.7.8-1.1zm30 0l3.6-2.3.5-.5c.2-.2.4-.5.6-1 .2-.3.4-.6.7-.9.3-.2.6-.4 1-.6.2-.3.5-.6.9-1s.9-.8 1.5-1.4c.3-.2.7-.4 1.1-.7.4-.3.9-.7 1.4-1.2 2.4-2.2 4.4-3.9 6.2-5 1.8-1.1 3.3-1.7 4.5-1.7.7 0 1.2.1 1.5.4.3.3.5.7.5 1.2s-.1 1-.3 1.4c-.2.4-.5.8-.9 1.1-.7.5-1.4 1-2.1 1.6-.4.5-.9 1.1-1.5 1.7-.6.6-1.3 1.2-2.1 1.8-.3.3-.5.6-.7.9l-.7.7c-.4.3-.8.7-1.4 1.2-.3.6-.8 1.3-1.7 2.2-.9.9-2 2-3.5 3.3-.2.2-.5.6-1 1.2-.5.7-1.1 1.5-1.8 2.6l.3.4c.6-.2 1.2-.5 1.8-.9.6-.4 1.3-1 2.1-1.8.9-.8 1.6-1.5 2.2-2 .6-.5 1-.8 1.2-1 .2-.1.4-.2.5-.3.2-.1.4-.2.6-.4 1.2-1.4 2.3-2.5 3.4-3.2 1-.7 2-1 2.9-1 .5 0 1 .2 1.2.6.3.4.5 1.1.5 1.9-.1 1.3-.1 2.6-.1 3.8 0 .8.2 1.6.7 2.2.5.7 1.1 1 1.9 1 .2 0 .5-.1.7-.2.2-.1.4-.3.7-.5.2-.2.4-.5.5-.7l.5-.6c.1-.1.3-.1.4-.3.2-.1.4-.3.6-.5.4.8.7 1.5.9 2.1.2.6.4 1.1.6 1.5-.6.5-1.2 1.1-1.8 1.7s-1.2 1.1-1.9 1.7c-.8.6-1.5 1-2.3 1.3-.7.3-1.5.4-2.2.4-1.7 0-3-.5-3.9-1.4-.9-1-1.4-2.4-1.6-4.4 0-.2 0-.5-.1-.7-.1-.2-.2-.5-.4-.8l-.4.4c-.2.1-.3.3-.5.6-.3.3-.8.6-1.3 1s-1.1.9-1.8 1.4l-2.3 2.3c-.6.6-1.1 1-1.3 1.3-.5.4-1.1.9-1.8 1.3s-1.5.9-2.3 1.4c-.5.3-1 .5-1.4.7s-.7.4-.9.4c-1.2 0-2.2-.3-2.8-.9-.6-.6-.9-1.6-.9-2.8 0-.7.2-1.4.4-2 .3-.6.7-1.3 1.3-1.9.1-.3.1-.6.1-.8 0-.1 0-.3-.1-.4-.1-.1-.1-.3-.3-.5l-.5-1.2c-.2-.5-.4-.9-.6-1.5.1-.1.3-.3.4-.6.4-.3.6-.7.8-1.1zm28.8 1.7c.6-.6 1.5-1.4 2.8-2.3 1.2-.9 2.2-1.6 2.8-2.2.4-.5.9-1 1.5-1.7s1.4-1.5 2.2-2.4c.5-.5 1-.8 1.5-1.1.5-.3 1-.4 1.5-.4.6 0 1.1.2 1.5.5s.5.8.5 1.5c0 1-.4 2.7-1.2 4.9s-1.2 4-1.2 5.2c0 .3.1.4.2.5.1.1.3.2.4.2h.2c.5-.3 1.1-.7 1.7-1.2.7-.5 1.4-1.1 2.2-1.8.7-.6 1.5-1.4 2.5-2.5l3.5-3.5c.5-.4 1.1-1 1.8-1.6.7-.7 1.4-1.4 2.2-2.3.3-.5.8-.8 1.4-1.1.6-.3 1.4-.4 2.2-.4.6 0 1 .1 1.3.3.3.2.4.6.4 1 0 .2 0 .4-.1.5l-.1.5c-.2.8-.5 1.7-.8 2.9-.4 1.1-.8 2.5-1.3 4-.4 1-.9 2.1-1.4 3.5-.5 1.3-1 2.8-1.5 4.4l.3.4c.5-.3 1.4-.9 2.4-1.9 1.1-1 2.4-2.3 4.1-3.9l1.6 3.6-.8.8c-.3.3-.7.6-1.2 1-2.8 2-5.2 3.9-7.2 5.9-2 1.9-3.6 3.9-4.7 5.8-1.7 2.9-3.2 5.2-4.4 7-1.2 1.8-2 3.1-2.5 3.8-1.8 2.4-3.5 4.1-5.1 5.3-1.6 1.1-3.2 1.7-4.7 1.7-.6 0-1-.1-1.2-.4-.3-.2-.4-.6-.4-1.1 0-.3.1-.6.2-1s.4-.8.7-1.2c.5-.7.9-1.4 1.4-2.2l1.2-1c.1-.3.2-.6.2-.7.1-.1.3-.3.4-.5.2-.2.4-.4.7-.6.2-.5.7-1.2 1.5-2.3.8-1.1 1.9-2.5 3.3-4.2 1.1-1.2 2-2.4 2.9-3.3.9-1 1.6-1.8 2.3-2.5l.3-.7.3-.9c.3-.7.7-1.5 1.1-2.5.4-1 .9-2.1 1.5-3.4.3-.8.5-1.6.7-2.6.2-1 .4-2 .5-3.2-.1-.1-.1-.2-.1-.4s-.1-.4-.2-.7c-.5.2-1 .6-1.5 1.1-.6.5-1.2 1-1.8 1.6-.9 1.1-1.7 2.1-2.6 2.8-.9.7-1.8 1.3-2.6 1.7-.6 1.1-1.3 1.9-2.2 2.5-.9.5-1.9.8-3.1.8-.9 0-1.5-.2-2-.6-.4-.4-.7-1-.7-1.9 0-.2 0-.4.1-.6s.1-.5.2-.8c-.1-.3-.2-.6-.4-1.1.1-.4.2-.9.3-1.5 0-.8-.1-1.4-.2-1.8s-.3-.6-.6-.6l-.2.1c-.3.2-.7.5-1.2.9s-1.1.9-1.9 1.5c-.1-.3-.3-.7-.5-1.2s-.4-1-.6-1.6c-.1-.2-.1-.3-.2-.4.1-.2 0-.3-.1-.4zm35-1.7l3.6-2.3.5-.5c.2-.2.4-.5.6-1 .2-.3.4-.6.7-.9.3-.2.6-.4 1-.6.2-.3.5-.6.9-1s.9-.8 1.5-1.4c.3-.2.7-.4 1.1-.7.4-.3.9-.7 1.4-1.2 2.4-2.2 4.4-3.9 6.2-5 1.8-1.1 3.3-1.7 4.5-1.7.7 0 1.2.1 1.5.4.3.3.5.7.5 1.2s-.1 1-.3 1.4c-.2.4-.5.8-.9 1.1-.7.5-1.4 1-2.1 1.6-.4.5-.9 1.1-1.5 1.7-.6.6-1.3 1.2-2.1 1.8-.3.3-.5.6-.7.9l-.7.7c-.4.3-.8.7-1.4 1.2-.3.6-.8 1.3-1.7 2.2-.9.9-2 2-3.5 3.3-.2.2-.5.6-1 1.2-.5.7-1.1 1.5-1.8 2.6l.3.4c.6-.2 1.2-.5 1.8-.9.6-.4 1.3-1 2.1-1.8.9-.8 1.6-1.5 2.2-2 .6-.5 1-.8 1.2-1 .2-.1.4-.2.5-.3.2-.1.4-.2.6-.4 1.2-1.4 2.3-2.5 3.4-3.2 1-.7 2-1 2.9-1 .5 0 1 .2 1.2.6.3.4.5 1.1.5 1.9-.1 1.3-.1 2.6-.1 3.8 0 .8.2 1.6.7 2.2.5.7 1.1 1 1.9 1 .2 0 .5-.1.7-.2.2-.1.4-.3.7-.5.2-.2.4-.5.5-.7l.5-.6c.1-.1.3-.1.4-.3.2-.1.4-.3.6-.5.4.8.7 1.5.9 2.1.2.6.4 1.1.6 1.5-.6.5-1.2 1.1-1.8 1.7s-1.2 1.1-1.9 1.7c-.8.6-1.5 1-2.3 1.3-.7.3-1.5.4-2.2.4-1.7 0-3-.5-3.9-1.4-.9-1-1.4-2.4-1.6-4.4 0-.2 0-.5-.1-.7-.1-.2-.2-.5-.4-.8l-.4.4c-.2.1-.3.3-.5.6-.3.3-.8.6-1.3 1s-1.1.9-1.8 1.4l-2.3 2.3c-.6.6-1.1 1-1.3 1.3-.5.4-1.1.9-1.8 1.3s-1.5.9-2.3 1.4c-.5.3-1 .5-1.4.7s-.7.3-.9.3c-1.2 0-2.2-.3-2.8-.9-.6-.6-.9-1.6-.9-2.8 0-.7.2-1.4.4-2 .3-.6.7-1.3 1.3-1.9.1-.3.1-.6.1-.8 0-.1 0-.3-.1-.4-.1-.1-.1-.3-.3-.5l-.5-1.2c-.2-.5-.4-.9-.6-1.5.1-.1.3-.3.4-.6.3-.2.6-.6.8-1zm30.1 0l3.6-2.3.5-.5c.2-.2.4-.5.6-1 .2-.3.4-.6.7-.9.3-.2.6-.4 1-.6.2-.3.5-.6.9-1s.9-.8 1.5-1.4c.3-.2.7-.4 1.1-.7.4-.3.9-.7 1.4-1.2 2.4-2.2 4.4-3.9 6.2-5 1.8-1.1 3.3-1.7 4.5-1.7.7 0 1.2.1 1.5.4.3.3.5.7.5 1.2s-.1 1-.3 1.4c-.2.4-.5.8-.9 1.1-.7.5-1.4 1-2.1 1.6-.4.5-.9 1.1-1.5 1.7-.6.6-1.3 1.2-2.1 1.8-.3.3-.5.6-.7.9l-.7.7c-.4.3-.8.7-1.4 1.2-.3.6-.8 1.3-1.7 2.2-.9.9-2 2-3.5 3.3-.2.2-.5.6-1 1.2-.5.7-1.1 1.5-1.8 2.6l.3.4c.6-.2 1.2-.5 1.8-.9.6-.4 1.3-1 2.1-1.8.9-.8 1.6-1.5 2.2-2 .6-.5 1-.8 1.2-1 .2-.1.4-.2.5-.3.2-.1.4-.2.6-.4 1.2-1.4 2.3-2.5 3.4-3.2 1-.7 2-1 2.9-1 .5 0 1 .2 1.2.6.3.4.5 1.1.5 1.9-.1 1.3-.1 2.6-.1 3.8 0 .8.2 1.6.7 2.2.5.7 1.1 1 1.9 1 .2 0 .5-.1.7-.2.2-.1.4-.3.7-.5.2-.2.4-.5.5-.7l.5-.6c.1-.1.3-.1.4-.3.2-.1.4-.3.6-.5.4.8.7 1.5.9 2.1.2.6.4 1.1.6 1.5-.6.5-1.2 1.1-1.8 1.7s-1.2 1.1-1.9 1.7c-.8.6-1.5 1-2.3 1.3-.7.3-1.5.4-2.2.4-1.7 0-3-.5-3.9-1.4-.9-1-1.4-2.4-1.6-4.4 0-.2 0-.5-.1-.7-.1-.2-.2-.5-.4-.8l-.4.4c-.2.1-.3.3-.5.6-.3.3-.8.6-1.3 1s-1.1.9-1.8 1.4l-2.3 2.3c-.6.6-1.1 1-1.3 1.3-.5.4-1.1.9-1.8 1.3s-1.5.9-2.3 1.4c-.5.3-1 .5-1.4.7s-.7.3-.9.3c-1.2 0-2.2-.3-2.8-.9-.6-.6-.9-1.6-.9-2.8 0-.7.2-1.4.4-2 .3-.6.7-1.3 1.3-1.9.1-.3.1-.6.1-.8 0-.1 0-.3-.1-.4-.1-.1-.1-.3-.3-.5l-.5-1.2c-.2-.5-.4-.9-.6-1.5.1-.1.3-.3.4-.6.3-.2.5-.6.8-1zm28.8 1.7c.1-.2.2-.4.4-.6.2-.2.4-.5.6-.8.3-.2.6-.5 1-.9s.9-.8 1.4-1.4c.5-.5 1-1.2 1.7-1.9.7-.8 1.5-1.7 2.5-2.8.4-.4.9-1 1.6-1.7.6-.7 1.4-1.5 2.2-2.5.7-.9 1.5-1.5 2.3-1.9.8-.4 1.7-.6 2.7-.6s1.6.3 2.1.9c.4.6.7 1.4.7 2.6 0 .6-.2 1.7-.7 3.4-.4 1.7-1.1 3.9-2.1 6.7l-.7 1.5c-.2.3-.3.6-.3.9-.1.3-.1.5-.1.6 0 .2.1.4.3.6l.4-.3c.1-.1.3-.3.4-.5.2-.4.5-.8 1-1.2s.9-.9 1.5-1.4c.2-.4.5-.9.9-1.3s.8-.8 1.3-1.2c.1-.1.2-.3.4-.5l.6-.7c.3-.3.7-.7 1.2-1.1.5-.4 1-.7 1.6-1.1.7-.4 1.3-.7 1.9-.9.6-.2 1-.3 1.5-.3.8 0 1.5.2 2.1.6s1.2 1 1.6 1.8c.5 1.6 1 3.1 1.5 4.5.3.8.6 1.4 1 1.8s.7.6 1.2.6c.3 0 .6-.1.9-.2.3-.1.5-.3.8-.6l1.6 3.6c-.4.4-.9.7-1.4 1.1s-.9.8-1.4 1.1c-.6.5-1.2.9-1.7 1.2-.5.2-1 .3-1.6.3-.6 0-1.2-.1-1.7-.4-.5-.3-1-.7-1.4-1.2-.2-.2-.5-.6-.8-1.2-.3-.6-.7-1.3-1.1-2.1-.3-.3-.7-.8-1.2-1.3-.4-.6-.9-1.2-1.5-2l-.4-.1c-.5.2-1 .4-1.5.7-.5.3-1 .7-1.5 1.2-1.2 1-2 1.7-2.5 2-.5.3-.9.6-1.1.9-.4.6-1 1.4-1.9 2.4-.9 1-2 2.2-3.3 3.5l-1 1c-.3.3-.7.6-1 1-.3.3-.7.5-1.2.6-.4.1-.9.2-1.4.2-1 0-1.6-.4-1.7-1.1-.1-.7-.2-1.4-.3-2.2.4-1.1.8-2.5 1.3-4.1.5-1.6 1.1-3.6 1.7-5.7 0-.1 0-.3.1-.5s.2-.5.3-.9l.3-.9c.1-.2.1-.5.1-.6 0-.2-.1-.3-.2-.4-.1-.1-.3-.2-.6-.2s-.6.2-1 .5-.9.8-1.5 1.5c-.7.8-1.3 1.4-1.8 1.8-.4.4-.7.7-.9.8-.3.2-.6.4-.9.8l-1.2 1.1c-.1.1-.1.3-.2.5s-.3.4-.5.7c-.1-.4-.3-.9-.5-1.4-.2-.7-.5-1.4-.9-2.3zm57.3 0c.5-.5 1.2-1.2 2.2-2.1 1-.9 2.3-2.1 3.8-3.4l1.2-1.3c.6-.7 1.5-1.8 2.7-3.1.5-.5 1.2-1.2 2-2.1s1.7-1.9 2.7-3c.7-.9 1.3-1.6 1.9-2 .6-.5 1.3-.7 1.9-.7.8 0 1.3.2 1.7.6.4.4.5.9.5 1.6 0 .4-.1 1.1-.2 2-.1.9-.2 1.5-.2 2 0 .7-.1 2-.3 3.8-.2 1.8-.6 4.2-1 7.1 0 .2-.1.5-.2.9s-.2 1-.4 1.7c-.2.5-.3 1-.3 1.4-.1.4-.1.8-.1 1.1v.5c1.3-.9 2.4-1.8 3.3-2.6 1-.8 1.7-1.6 2.4-2.3l1.6 3.6c-.3.1-2.1 1.7-5.5 4.8-.2.5-.5 1-1 1.5s-1.3 1.1-2.2 1.6c-.3.4-.6 1-.9 1.7-.4.7-.8 1.6-1.2 2.5-.3.7-.5 1.4-.7 2-.2.6-.4 1.2-.5 1.7-.3 1-.7 2.3-1.4 3.7-.7 1.4-1.4 3.1-2.4 5-1.1 2.3-2.2 4-3.1 5.1-.9 1.1-1.6 1.7-2.2 1.6-.6-.1-1.1-.1-1.5-.1-.4 0-.6-.1-.7-.1-.2-.2-.4-.4-.5-.8-.1-.4-.1-.9-.1-1.5 0-.4.1-1 .2-1.8s.3-1.8.6-3c.2-.8.4-1.6.7-2.4.3-.8.6-1.6 1-2.4.3-.8.7-1.5 1.1-2.2.4-.7.7-1.5 1.1-2.3.9-1 1.7-2.2 2.5-3.4.8-1.2 1.6-2.6 2.5-4 .2-.5.3-1.2.5-2.1.2-.8.3-1.9.5-3 .2-1.2.4-2.4.6-3.4.1-.9.2-1.6.3-2.1.1-.5.1-.9.1-1.1l-.2-2 .7-2.1c-.1-.3-.2-.6-.4-.7-.2-.2-.4-.3-.6-.3-.5 0-1 .1-1.4.4-.4.3-.9.6-1.2 1.1-.4.6-1 1.2-1.6 1.9-.7.7-1.4 1.4-2.3 2.2-1.1 1-2 1.8-2.7 2.4-.7.6-1.2 1.1-1.5 1.5-.1-.3-.3-.7-.5-1.2s-.4-1-.6-1.6c-.1-.2-.1-.3-.2-.4-.3-.2-.4-.3-.5-.4zm24.8-36.1c.6 0 1 .1 1.3.4.3.3.4.6.4 1.1 0 .5-.1 1.1-.3 1.9-.2.7-.5 1.5-.9 2.4l-.9 2.1c-.2.4-.8 1-1.8 1.7s-1.8 1-2.3 1c-.7 0-1.3 0-1.8-.1s-.9-.2-1.1-.4c-.2-.2-.4-.5-.6-1-.1-.5-.2-1.1-.2-1.9 0-1.2 1-2.7 3.1-4.5 2.2-1.8 3.8-2.7 5.1-2.7zm0 34.4l3.6-2.3.5-.5c.2-.2.4-.5.6-1 .2-.3.4-.6.7-.9.3-.2.6-.4 1-.6.2-.3.5-.6.9-1s.9-.8 1.5-1.4c.3-.2.7-.4 1.1-.7.4-.3.9-.7 1.4-1.2 2.4-2.2 4.4-3.9 6.2-5 1.8-1.1 3.3-1.7 4.5-1.7.7 0 1.2.1 1.5.4.3.3.5.7.5 1.2s-.1 1-.3 1.4c-.2.4-.5.8-.9 1.1-.7.5-1.4 1-2.1 1.6-.4.5-.9 1.1-1.5 1.7-.6.6-1.3 1.2-2.1 1.8-.3.3-.5.6-.7.9l-.7.7c-.4.3-.8.7-1.4 1.2-.3.6-.8 1.3-1.7 2.2-.9.9-2 2-3.5 3.3-.2.2-.5.6-1 1.2-.5.7-1.1 1.5-1.8 2.6l.3.4c.6-.2 1.2-.5 1.8-.9.6-.4 1.3-1 2.1-1.8.9-.8 1.6-1.5 2.2-2 .6-.5 1-.8 1.2-1 .2-.1.4-.2.5-.3.2-.1.4-.2.6-.4 1.2-1.4 2.3-2.5 3.4-3.2 1-.7 2-1 2.9-1 .5 0 1 .2 1.2.6.3.4.5 1.1.5 1.9-.1 1.3-.1 2.6-.1 3.8 0 .8.2 1.6.7 2.2.5.7 1.1 1 1.9 1 .2 0 .5-.1.7-.2.2-.1.4-.3.7-.5.2-.2.4-.5.5-.7l.5-.6c.1-.1.3-.1.4-.3.2-.1.4-.3.6-.5.4.8.7 1.5.9 2.1.2.6.4 1.1.6 1.5-.6.5-1.2 1.1-1.8 1.7s-1.2 1.1-1.9 1.7c-.8.6-1.5 1-2.3 1.3-.7.3-1.5.4-2.2.4-1.7 0-3-.5-3.9-1.4-.9-1-1.4-2.4-1.6-4.4 0-.2 0-.5-.1-.7-.1-.2-.2-.5-.4-.8l-.4.4c-.2.1-.3.3-.5.6-.3.3-.8.6-1.3 1s-1.1.9-1.8 1.4l-2.3 2.3c-.6.6-1.1 1-1.3 1.3-.5.4-1.1.9-1.8 1.3s-1.5.9-2.3 1.4c-.5.3-1 .5-1.4.7s-.7.3-.9.3c-1.2 0-2.2-.3-2.8-.9-.6-.6-.9-1.6-.9-2.8 0-.7.2-1.4.4-2 .3-.6.7-1.3 1.3-1.9.1-.3.1-.6.1-.8 0-.1 0-.3-.1-.4-.1-.1-.1-.3-.3-.5l-.5-1.2c-.2-.5-.4-.9-.6-1.5.1-.1.3-.3.4-.6.3-.2.5-.6.8-1zm28.8 1.7c.2-.2.3-.4.5-.7.2-.3.4-.6.7-1 1.1-1.4 2.3-2.7 3.3-3.8s2.1-2.1 3.1-3l1.8-1.8s1.5-1.6 2.5-2.6c.9-.4 2-.8 3.1-1.2.7 0 1.2.2 1.6.7.3.5.5 1.1.5 2 0 .7-.1 1.5-.2 2.4-.1.8-.3 1.7-.5 2.6-.2.7-.4 1.4-.6 2 0 .2 0 .3.1.4.1.1.2.1.4.1.4-.2 1.1-.8 2.3-2 1.1-1.1 2.6-2.7 4.4-4.7 1.6-1.7 2.9-3 4.1-3.8 1.2-.8 2.1-1.3 2.8-1.3.8 0 1.3.3 1.7.8.4.6.5 1.4.5 2.5 0 1.6-.1 3.1-.4 4.6-.2 1.5-.6 2.9-1.2 4.2-.1.3-.2.5-.2.7v.5c0 .2.2.4.5.5.2-.2.4-.4.7-.8.3-.3.6-.8 1-1.3l1.8-1.5c.6-.5 1.2-1 2-1.5.7-.6 1.5-1 2.2-1.3.8-.3 1.5-.4 2.2-.4.1 0 .3 0 .4.1s.3.2.4.3c.6.5 1.1 1 1.5 1.4.4.4.7.8.8 1.1 1 2.1 1.9 3.6 2.7 4.7.8 1 1.5 1.5 2.1 1.5.1 0 .3 0 .4-.1.1-.1.3-.1.4-.3.6 1.3 1.1 2.5 1.5 3.6-.9.7-1.8 1.3-2.5 1.7-.7.4-1.4.6-1.9.6-1.8 0-3.6-1.2-5.6-3.5-1.9-2.3-3.4-3.5-4.4-3.5-1.4 0-3.6 2-6.8 6-3.1 4-5.1 6-5.9 6-.4 0-.9 0-1.6-.1-.2-.1-.4-.2-.5-.5-.1-.2-.2-.5-.2-.9s.1-.9.2-1.5c.2-.6.4-1.4.6-2.2.3-1.1.6-2 .8-2.6.2-.7.3-1.1.4-1.4.1-.3.2-1 .3-2 .1-1 .3-2.3.6-3.9 0-.3-.1-.5-.2-.7s-.3-.2-.5-.2-.4.1-.6.2c-.2.1-.5.3-.8.6l-1 1c-.4.3-1 .8-1.8 1.4-.9 1-1.8 2.1-2.8 3.2l-2.9 3.3c-1.6 1.8-2.8 3.2-3.7 4-.9.9-1.5 1.3-1.8 1.3-.8 0-1.4-.1-1.8-.3-.4-.2-.6-.5-.6-.8 0-.9.5-2.6 1.4-5.4.9-2.7 1.4-4.6 1.4-5.8 0-.2-.1-.3-.2-.4s-.3-.2-.5-.2c-.3 0-.7.2-1.1.5-.4.4-.9.9-1.5 1.7-.4.4-.8.9-1.3 1.4l-1.9 1.9-.3.6-.4.6c-.1-.4-.3-.9-.5-1.4-.3-.7-.6-1.4-1-2.3zm49.3 0c.3-.5.7-1.1 1.2-1.7.5-.6 1.1-1.1 1.9-1.7.1-.5.2-1 .2-1.5s.1-1 .2-1.5c.1-.4.2-.8.4-1.3s.4-1 .6-1.6c.2-.6.6-1.3 1-2.1.4-.9.9-1.8 1.6-2.9.5-.6 1.1-1.3 1.7-2 .6-.7 1.2-1.4 1.8-2.2l.9-.7c.3-.2.7-.4 1-.7.3-.1.7-.2 1.1-.3s.8-.1 1.3-.1c.7 0 1.2.1 1.6.2.4.1.7.4 1 .7.2.2.4.5.5.9.2.4.3.9.5 1.5.1.5.2 1.1.3 1.7 0-.2 0-.1-.1.2-.1.3-.2.7-.4 1.4l-.4 1.2c-.4 1.2-1.2 2.7-2.5 4.3-1.3 1.6-3 3.5-5.2 5.6-.2.2-.3.4-.5.7-.1.3-.2.6-.2.9 0 .5.1 1 .3 1.4.2.4.5.7.8.9.2.2.5.3 1 .5s1 .3 1.6.4c1-.1 1.9-.2 2.8-.5.8-.3 1.6-.6 2.2-.9.1-.1.3-.2.6-.3.3-.1.6-.3.9-.6.3.8.6 1.4.9 2 .3.6.5 1.1.6 1.6-1.5 1.5-2.8 2.6-4 3.3s-2.3 1.1-3.3 1.1c-.4.3-.9.4-1.4.6-.5.1-1.2.2-1.9.2-1 0-1.8-.1-2.6-.4-.7-.3-1.4-.7-1.9-1.2-.3-.3-.5-.6-.8-1.2-.3-.5-.5-1.1-.8-1.8-.2-.6-.5-1-.7-1.3-.2-.3-.4-.4-.7-.4-.2 0-.4.1-.7.3-.3.2-.5.5-.9.9-.1-.4-.3-.9-.5-1.4-.3-.6-.6-1.3-1-2.2zm12.5-12.7c-.6 0-1.3.7-2.3 2.2-1 1.5-1.4 2.6-1.4 3.3 0 .2 0 .3.1.3.1.1.2.1.4.1.3 0 .5-.1.7-.4.2-.3.4-.6.5-.8.3-.3.6-.5.8-.8l.8-.9c.3-.4.5-.7.7-1.1.2-.4.2-.7.2-1.1 0-.2 0-.4-.1-.6-.1-.1-.3-.2-.4-.2zm7.1 12.7c.3-.5.7-1.1 1.2-1.7.5-.6 1.1-1.1 1.9-1.7.1-.5.2-1 .2-1.5s.1-1 .2-1.5c.1-.4.2-.8.4-1.3s.4-1 .6-1.6c.2-.6.6-1.3 1-2.1.4-.9.9-1.8 1.6-2.9.5-.6 1.1-1.3 1.7-2 .6-.7 1.2-1.4 1.8-2.2l.9-.7c.3-.2.7-.4 1-.7.3-.1.7-.2 1.1-.3s.8-.1 1.3-.1c.7 0 1.2.1 1.6.2.4.1.7.4 1 .7.2.2.4.5.5.9.2.4.3.9.5 1.5.1.5.2 1.1.3 1.7 0-.2 0-.1-.1.2-.1.3-.2.7-.4 1.4l-.4 1.2c-.4 1.2-1.2 2.7-2.5 4.3-1.3 1.6-3 3.5-5.2 5.6-.2.2-.3.4-.5.7-.1.3-.2.6-.2.9 0 .5.1 1 .3 1.4.2.4.5.7.8.9.2.2.5.3 1 .5s1 .3 1.6.4c1-.1 1.9-.2 2.8-.5.8-.3 1.6-.6 2.2-.9.1-.1.3-.2.6-.3.3-.1.6-.3.9-.6.3.8.6 1.4.9 2 .3.6.5 1.1.6 1.6-1.5 1.5-2.8 2.6-4 3.3s-2.3 1.1-3.3 1.1c-.4.3-.9.4-1.4.6-.5.1-1.2.2-1.9.2-1 0-1.8-.1-2.6-.4-.7-.3-1.4-.7-1.9-1.2-.3-.3-.5-.6-.8-1.2-.3-.5-.5-1.1-.8-1.8-.2-.6-.5-1-.7-1.3-.2-.3-.4-.4-.7-.4-.2 0-.4.1-.7.3-.3.2-.5.5-.9.9-.1-.4-.3-.9-.5-1.4-.2-.6-.6-1.3-1-2.2zm12.5-12.7c-.6 0-1.3.7-2.3 2.2-1 1.5-1.4 2.6-1.4 3.3 0 .2 0 .3.1.3.1.1.2.1.4.1.3 0 .5-.1.7-.4.2-.3.4-.6.5-.8.3-.3.6-.5.8-.8l.8-.9c.3-.4.5-.7.7-1.1.2-.4.2-.7.2-1.1 0-.2 0-.4-.1-.6-.1-.1-.2-.2-.4-.2zm7.2 12.7c.2-.3.5-.6.7-1 .2-.4.5-.8.9-1.2l2.6-2.3c.1-.1.2-.2.2-.3v-.5c0-.3-.1-.6-.1-.8 0-.6.1-1.6.4-3s.4-2.3.6-2.5l-.2-.7c.3-1.7.8-3.7 1.4-5.7.6-2.1 1.3-4.3 2.1-6.7.3-.4.5-.9.8-1.6.3-.6.6-1.4 1-2.2.4-1.4 1-2.8 1.8-4.3.7-1.5 1.5-3 2.5-4.6 1.2-2.1 2.3-3.6 3.3-4.6 1-1 1.8-1.6 2.6-1.6 1.5 0 2.5.3 3.1.9.6.6.8 1.7.8 3.3 0 .4-.1 1.1-.2 1.9-.1.9-.2 1.5-.2 2 0 .4-.1 1.1-.4 1.9-.3.8-.4 1.5-.4 2.2 0 .2-.1.4-.2.6v.5c-.1.4-.3.8-.5 1.3s-.5 1.1-.8 1.9c-.2.7-.4 1.4-.7 2.3-.3.9-.6 1.8-1 2.8-.2.3-.4.6-.6 1-.2.4-.5.8-.8 1.3-.1.3-.2.7-.4 1.2-.2.4-.4 1-.7 1.6l-.6 1c-.3.4-.6.8-.9 1.4-.2.3-.3.6-.5 1s-.4.8-.6 1.3c-.3.4-.7 1-1.1 1.6-.5.7-1 1.4-1.6 2.3-.8 1.4-1.6 2.8-2.5 4.1 0 2.5.5 4.4 1.5 5.7 1 1.3 2.5 1.9 4.5 1.9.1 0 .5-.1 1.2-.3.7-.2 1.5-.5 2.7-.9.3-.2.7-.5 1.2-.9s1-.8 1.6-1.3l1.5 3.6c-.7.6-1.4 1.2-2 1.8l-2.1 1.8c-.8.7-1.6 1.2-2.5 1.5-.8.4-1.7.5-2.5.5-.4 0-1.1 0-1.9-.1-.9-.1-1.5-.1-2-.1-1.5 0-2.7-.6-3.6-1.8-1-1.2-1.6-2.9-2-5.3l-.2-.6c-.1-.2-.3-.4-.5-.6l-1.2 1.2c-.5.5-1 1-1.7 1.6l-1.8-3.5zm18.6-30.7l-.3-.2c-1.5 1.4-2.6 2.7-3.3 4s-1.1 2.5-1.1 3.6c0 .2-.1.5-.3.9-.2.4-.4 1-.8 1.7-.4.8-.8 1.7-1.3 2.7-.5 1.5-.9 2.6-1.1 3.6-.3.9-.4 1.6-.4 2l.2.3c.2 0 .5-.3.9-.7.3-.4.7-1.1 1.2-2 .2-.5.5-1 .9-1.6s.8-1.4 1.3-2.2c.4-.6 1.1-2 2-4.4.9-2.4 1.4-3.9 1.5-4.5 0-.5.1-1 .2-1.5s.3-1.2.4-1.7z"/></svg>