<?xml version="1.0" encoding="utf-8"?>
<!-- Generator: Adobe Illustrator 19.1.0, SVG Export Plug-In . SVG Version: 6.00 Build 0)  -->
<svg version="1.1" id="Layer_1" xmlns="http://www.w3.org/2000/svg" xmlns:xlink="http://www.w3.org/1999/xlink" x="0px" y="0px"
	 viewBox="0 0 430.8 82.9" style="enable-background:new 0 0 430.8 82.9;" xml:space="preserve">
<style type="text/css">
	.st0{fill:#276CA3;}
</style>
<g>
	<path class="st0" d="M0,46l0.2-0.3C0.4,45.4,0.6,45,1,44.6c0.4-0.4,0.9-0.8,1.5-1.2c0.9-0.5,1.5-1,2-1.3c0.5-0.3,0.8-0.6,0.9-0.7
		c0.2-0.3,0.4-0.5,0.5-0.7c0.3-0.2,0.6-0.5,1.1-0.9c0.4-0.4,0.9-0.8,1.4-1.3c0.2-0.1,0.4-0.3,0.6-0.6c0.2-0.3,0.4-0.6,0.6-1
		c0.3-0.2,0.7-0.5,1.2-0.9c0.4-0.4,0.9-0.8,1.5-1.4c0.7-0.7,1.4-1.5,2.2-2.3c0.8-0.8,1.7-1.7,2.8-2.6c0.3-0.2,0.7-0.3,1-0.4
		c0.3-0.1,0.6-0.1,0.9-0.1c1.2,0,2.1,0.3,2.6,0.8c0.6,0.6,0.9,1.4,0.9,2.4c0,0.3,0,0.7-0.1,1.3c-0.1,0.6-0.2,1.4-0.3,2.3
		c-0.4,2.6-0.6,4.2-0.8,4.8c-0.2,0.6-0.7,2.4-1.6,5.4c-0.2,0.5-0.4,1.1-0.6,1.8c-0.2,0.7-0.5,1.6-0.8,2.7c0.1,0.1,0.2,0.2,0.4,0.3
		c0.2,0,0.5-0.2,1-0.5s1.1-0.9,1.9-1.6c0.9-0.8,1.6-1.5,2.1-1.9c0.5-0.4,0.8-0.7,1-0.8c0.3,0.7,0.6,1.3,0.9,1.9
		c0.3,0.6,0.5,1.1,0.7,1.7c-0.3,0.2-0.6,0.4-0.9,0.7c-0.3,0.3-0.5,0.5-0.8,0.9c-0.5,0.4-1.2,0.8-1.9,1.2c-0.7,0.5-1.5,1-2.4,1.5
		c-0.4,0.4-0.9,0.9-1.6,1.4c-0.7,0.6-1.4,1.2-2.2,1.9l-0.7,0.2c-0.4,0.5-0.7,0.9-1,1.1c-0.3,0.3-0.6,0.4-0.9,0.5
		c-0.4,0.2-0.8,0.3-1.2,0.4C12,59.7,11.5,59.8,11,60c-0.3-0.1-0.5-0.2-0.6-0.5c-0.1-0.3-0.2-0.6-0.2-1C9.9,57.8,9.6,57,9.3,56
		C9.1,55.1,9,54.1,9,53c0-0.2,0-0.4,0-0.7c0-0.2,0.1-0.4,0.1-0.6c-0.2-0.7-0.3-1.1-0.3-1.2c0-0.8,0.3-1.4,0.9-1.9
		c0.6-0.5,1.3-0.8,2-0.8c0.4,0,0.7,0.2,0.8,0.6c0.2,0.4,0.3,0.6,0.5,0.6c0.2,0,0.4-0.4,0.6-1.1c0.2-0.7,0.4-1.8,0.6-3.1
		c0.2-1.2,0.3-2.2,0.4-3.1c0.1-0.9,0.1-1.6,0.1-2c0-0.3-0.1-0.6-0.2-0.8c-0.1-0.2-0.4-0.3-0.7-0.3c-0.3,0-1.4,0.8-3.3,2.3
		c-1.8,1.6-4.4,3.9-7.7,7c-0.1,0.2-0.3,0.4-0.4,0.7c-0.2,0.3-0.4,0.6-0.7,1c-0.1-0.4-0.3-0.9-0.5-1.4C0.8,47.6,0.5,46.9,0,46z"/>
	<path class="st0" d="M24.5,46c0.6-0.5,1-0.9,1.3-1.2c0.3-0.3,0.6-0.5,0.7-0.7c0.4-0.4,0.8-0.8,1-1.1c0.3-0.4,0.4-0.7,0.4-1
		c0.2-0.9,0.5-2,0.8-3.3s0.7-2.9,1.2-4.6c0.2-0.5,0.5-1.2,0.8-2c0.3-0.8,0.6-1.7,0.9-2.7c0.3-1.3,0.7-2.5,1.2-3.6
		c0.5-1.1,1-2,1.6-2.9c0.2-0.2,0.4-0.5,0.5-0.9c0.2-0.4,0.4-0.8,0.5-1.2c0.2-0.4,0.4-0.9,0.8-1.5c0.3-0.6,0.7-1.2,1.1-2
		c1.1-1.6,2-2.9,2.8-4c0.8-1.1,1.5-2,2-2.7c0.9-1.1,1.9-2.2,2.8-3.1c1-1,1.9-1.9,2.9-2.7c0.9-0.8,1.7-1.3,2.3-1.7
		c0.7-0.4,1.2-0.5,1.6-0.5c0.4,0.3,0.6,0.6,0.8,0.9c0.2,0,0.4,0,0.5-0.1c0.7,0,1.2,0.3,1.5,0.8S55,5.6,55,6.7c0,0.2,0,0.5-0.1,0.9
		C54.8,8,54.7,8.4,54.6,9c-0.2,0.2-0.3,0.4-0.4,0.7c-0.1,0.3-0.1,0.6-0.2,0.9c0,0.4-0.1,0.7-0.1,0.9c-0.1,0.3-0.1,0.5-0.2,0.7
		c-0.3,0.6-0.7,1.4-1.1,2.3s-0.8,1.9-1.2,3.1c-0.3,0.4-0.6,1-1,1.8c-0.4,0.7-0.9,1.5-1.4,2.4c-0.3,0.5-0.6,1.1-1,1.9
		c-0.4,0.7-0.9,1.6-1.5,2.6c-0.2,0.4-0.4,0.8-0.8,1.2c-0.4,0.4-0.8,0.9-1.3,1.5C44.1,29.3,43.7,30,43,31c-0.7,1-1.7,2.3-3,3.9
		c-0.6,0.8-1.4,1.8-2.4,3c-1,1.2-2.1,2.6-3.4,4.3c-0.5,2-0.9,3.7-1.1,5.2c-0.2,1.5-0.4,2.8-0.4,4c0,0.4,0,0.8,0.1,1
		c0.1,0.2,0.2,0.3,0.4,0.3c0.1-0.2,0.3-0.4,0.6-0.6c0.2-0.2,0.5-0.5,0.8-0.8c0.5-0.4,1.1-1.3,1.7-2.5c0.7-1.2,1.4-2.7,2.3-4.6
		c0.8-1.7,1.4-3,2-4c0.6-0.9,1.1-1.5,1.5-1.7l1.4-0.6c0.3-0.1,0.5-0.2,0.7-0.3c0.2-0.1,0.4-0.1,0.5-0.1c0.3,0,0.7,0.2,0.9,0.6
		c0.3,0.4,0.5,1,0.7,1.7c0.3,1.3,0.6,2.4,0.8,3.1c0.2,0.7,0.3,1.1,0.4,1.3c0.3,0.8,0.7,1.4,1.2,1.7c0.5,0.4,1.1,0.5,1.7,0.5
		c0.8-0.1,1.8-0.3,2.9-0.5c0.2,0.5,0.4,1.1,0.7,1.7c0.3,0.6,0.6,1.2,0.8,1.9c-0.6,0.4-1.3,0.8-1.9,1.2c-0.6,0.4-1.3,0.8-1.9,1.2
		c-0.4,0.2-1,0.4-1.8,0.5s-1.7,0.2-2.7,0.2c-1.6,0-2.8-0.7-3.7-2.2c-0.9-1.5-1.4-2.2-1.6-2.2h-0.2c-0.4,0.5-0.9,1.1-1.3,1.6
		c-0.5,0.5-0.9,1.1-1.3,1.7c-0.3,0.6-0.7,1.3-1.2,2.1c-0.5,0.8-1.1,1.6-1.9,2.6c-0.9,1-1.6,1.8-2.3,2.3c-0.7,0.5-1.2,0.8-1.7,0.8
		c-1,0-1.8-0.1-2.3-0.3c-0.6-0.2-0.9-0.6-1-1c-0.3-1.5-0.6-2.7-0.7-3.8c-0.2-1.1-0.3-2-0.3-2.8c0-0.2,0-0.4,0-0.6
		c0-0.2,0.1-0.4,0.1-0.5c0.1-0.3,0.2-0.7,0.3-1.1c0-0.1,0-0.2-0.1-0.3c-0.1-0.1-0.2-0.1-0.3-0.1c-0.1,0.1-0.2,0.2-0.3,0.4
		c-0.1,0.1-0.3,0.3-0.5,0.4c-0.1-0.3-0.3-0.8-0.5-1.4C25.2,47.6,24.9,46.9,24.5,46z M49.9,9.9c-0.3,0-0.9,0.5-1.7,1.5
		c-0.9,1-2,2.5-3.3,4.6c-0.8,1.1-1.5,2.2-2.2,3.3c-0.7,1.1-1.4,2.2-2.1,3.3c-0.3,0.3-0.5,0.6-0.7,0.9c-0.1,0.3-0.2,0.6-0.2,1
		c-0.5,1.5-1,2.8-1.5,4.1c-0.5,1.4-0.9,2.4-1.2,3.2c-0.3,0.8-0.5,1.2-0.5,1.3l0.2,0.2c0.5-0.5,1-1,1.3-1.5c0.5-0.6,1.2-1.4,1.9-2.3
		c0.7-1,1.6-2.1,2.5-3.3c0.9-1.2,1.9-2.7,2.9-4.6c1-1.8,2.1-4,3.2-6.3c0.7-1.3,1.1-2.3,1.5-3.1c0.3-0.8,0.5-1.3,0.5-1.6
		c0-0.2,0-0.3-0.1-0.4C50.2,10,50.1,9.9,49.9,9.9z"/>
	<path class="st0" d="M54.4,44.3l3.6-2.3c0.1-0.1,0.3-0.3,0.5-0.5c0.2-0.2,0.4-0.5,0.6-1c0.2-0.3,0.4-0.6,0.7-0.9
		c0.3-0.2,0.6-0.4,1-0.6c0.2-0.3,0.5-0.6,0.9-1s0.9-0.8,1.5-1.4c0.3-0.2,0.7-0.4,1.1-0.7c0.4-0.3,0.9-0.7,1.4-1.2
		c2.4-2.2,4.4-3.9,6.2-5c1.8-1.1,3.3-1.7,4.5-1.7c0.7,0,1.2,0.1,1.5,0.4c0.3,0.3,0.5,0.7,0.5,1.2c0,0.5-0.1,1-0.3,1.4
		c-0.2,0.4-0.5,0.8-0.9,1.1c-0.7,0.5-1.4,1-2.1,1.6c-0.4,0.5-0.9,1.1-1.5,1.7c-0.6,0.6-1.3,1.2-2.1,1.8c-0.3,0.3-0.5,0.6-0.7,0.9
		c-0.1,0.1-0.4,0.4-0.7,0.7c-0.4,0.3-0.8,0.7-1.4,1.2c-0.3,0.6-0.8,1.3-1.7,2.2c-0.9,0.9-2,2-3.5,3.3c-0.2,0.2-0.5,0.6-1,1.2
		c-0.5,0.7-1.1,1.5-1.8,2.6l0.3,0.4c0.6-0.2,1.2-0.5,1.8-0.9c0.6-0.4,1.3-1,2.1-1.8c0.9-0.8,1.6-1.5,2.2-2c0.6-0.5,1-0.8,1.2-1
		c0.2-0.1,0.4-0.2,0.5-0.3c0.2-0.1,0.4-0.2,0.6-0.4c1.2-1.4,2.3-2.5,3.4-3.2c1-0.7,2-1,2.9-1c0.5,0,1,0.2,1.2,0.6
		c0.3,0.4,0.5,1.1,0.5,1.9c-0.1,1.3-0.1,2.6-0.1,3.8c0,0.8,0.2,1.6,0.7,2.2c0.5,0.7,1.1,1,1.9,1c0.2,0,0.5-0.1,0.7-0.2
		c0.2-0.1,0.4-0.3,0.7-0.5c0.2-0.2,0.4-0.5,0.5-0.7c0.2-0.2,0.3-0.4,0.5-0.6c0.1-0.1,0.3-0.1,0.4-0.3c0.2-0.1,0.4-0.3,0.6-0.5
		c0.4,0.8,0.7,1.5,0.9,2.1c0.2,0.6,0.4,1.1,0.6,1.5c-0.6,0.5-1.2,1.1-1.8,1.7s-1.2,1.1-1.9,1.7c-0.8,0.6-1.5,1-2.3,1.3
		c-0.7,0.3-1.5,0.4-2.2,0.4c-1.7,0-3-0.5-3.9-1.4c-0.9-1-1.4-2.4-1.6-4.4c0-0.2,0-0.5-0.1-0.7c-0.1-0.2-0.2-0.5-0.4-0.8
		c-0.1,0.1-0.3,0.3-0.4,0.4c-0.2,0.1-0.3,0.3-0.5,0.6c-0.3,0.3-0.8,0.6-1.3,1s-1.1,0.9-1.8,1.4c-0.9,0.9-1.7,1.7-2.3,2.3
		c-0.6,0.6-1.1,1-1.3,1.3c-0.5,0.4-1.1,0.9-1.8,1.3c-0.7,0.4-1.5,0.9-2.3,1.4c-0.5,0.3-1,0.5-1.4,0.7S56.8,58,56.6,58
		c-1.2,0-2.2-0.3-2.8-0.9c-0.6-0.6-0.9-1.6-0.9-2.8c0-0.7,0.2-1.4,0.4-2c0.3-0.6,0.7-1.3,1.3-1.9c0.1-0.3,0.1-0.6,0.1-0.8
		c0-0.1,0-0.3-0.1-0.4c-0.1-0.1-0.1-0.3-0.3-0.5c-0.2-0.4-0.3-0.8-0.5-1.2c-0.2-0.5-0.4-0.9-0.6-1.5c0.1-0.1,0.3-0.3,0.4-0.6
		C53.9,45.1,54.1,44.7,54.4,44.3z"/>
	<path class="st0" d="M84.4,44.3l3.6-2.3c0.1-0.1,0.3-0.3,0.5-0.5c0.2-0.2,0.4-0.5,0.6-1c0.2-0.3,0.4-0.6,0.7-0.9
		c0.3-0.2,0.6-0.4,1-0.6c0.2-0.3,0.5-0.6,0.9-1s0.9-0.8,1.5-1.4c0.3-0.2,0.7-0.4,1.1-0.7c0.4-0.3,0.9-0.7,1.4-1.2
		c2.4-2.2,4.4-3.9,6.2-5c1.8-1.1,3.3-1.7,4.5-1.7c0.7,0,1.2,0.1,1.5,0.4c0.3,0.3,0.5,0.7,0.5,1.2c0,0.5-0.1,1-0.3,1.4
		c-0.2,0.4-0.5,0.8-0.9,1.1c-0.7,0.5-1.4,1-2.1,1.6c-0.4,0.5-0.9,1.1-1.5,1.7c-0.6,0.6-1.3,1.2-2.1,1.8c-0.3,0.3-0.5,0.6-0.7,0.9
		c-0.1,0.1-0.4,0.4-0.7,0.7c-0.4,0.3-0.8,0.7-1.4,1.2c-0.3,0.6-0.8,1.3-1.7,2.2c-0.9,0.9-2,2-3.5,3.3c-0.2,0.2-0.5,0.6-1,1.2
		c-0.5,0.7-1.1,1.5-1.8,2.6l0.3,0.4c0.6-0.2,1.2-0.5,1.8-0.9c0.6-0.4,1.3-1,2.1-1.8c0.9-0.8,1.6-1.5,2.2-2c0.6-0.5,1-0.8,1.2-1
		c0.2-0.1,0.4-0.2,0.5-0.3c0.2-0.1,0.4-0.2,0.6-0.4c1.2-1.4,2.3-2.5,3.4-3.2c1-0.7,2-1,2.9-1c0.5,0,1,0.2,1.2,0.6
		c0.3,0.4,0.5,1.1,0.5,1.9c-0.1,1.3-0.1,2.6-0.1,3.8c0,0.8,0.2,1.6,0.7,2.2c0.5,0.7,1.1,1,1.9,1c0.2,0,0.5-0.1,0.7-0.2
		c0.2-0.1,0.4-0.3,0.7-0.5c0.2-0.2,0.4-0.5,0.5-0.7c0.2-0.2,0.3-0.4,0.5-0.6c0.1-0.1,0.3-0.1,0.4-0.3c0.2-0.1,0.4-0.3,0.6-0.5
		c0.4,0.8,0.7,1.5,0.9,2.1c0.2,0.6,0.4,1.1,0.6,1.5c-0.6,0.5-1.2,1.1-1.8,1.7s-1.2,1.1-1.9,1.7c-0.8,0.6-1.5,1-2.3,1.3
		c-0.7,0.3-1.5,0.4-2.2,0.4c-1.7,0-3-0.5-3.9-1.4c-0.9-1-1.4-2.4-1.6-4.4c0-0.2,0-0.5-0.1-0.7c-0.1-0.2-0.2-0.5-0.4-0.8
		c-0.1,0.1-0.3,0.3-0.4,0.4c-0.2,0.1-0.3,0.3-0.5,0.6c-0.3,0.3-0.8,0.6-1.3,1s-1.1,0.9-1.8,1.4c-0.9,0.9-1.7,1.7-2.3,2.3
		c-0.6,0.6-1.1,1-1.3,1.3c-0.5,0.4-1.1,0.9-1.8,1.3c-0.7,0.4-1.5,0.9-2.3,1.4c-0.5,0.3-1,0.5-1.4,0.7S86.8,58,86.6,58
		c-1.2,0-2.2-0.3-2.8-0.9c-0.6-0.6-0.9-1.6-0.9-2.8c0-0.7,0.2-1.4,0.4-2c0.3-0.6,0.7-1.3,1.3-1.9c0.1-0.3,0.1-0.6,0.1-0.8
		c0-0.1,0-0.3-0.1-0.4c-0.1-0.1-0.1-0.3-0.3-0.5c-0.2-0.4-0.3-0.8-0.5-1.2c-0.2-0.5-0.4-0.9-0.6-1.5c0.1-0.1,0.3-0.3,0.4-0.6
		C84,45.1,84.2,44.7,84.4,44.3z"/>
	<path class="st0" d="M113.2,46c0.6-0.6,1.5-1.4,2.8-2.3c1.2-0.9,2.2-1.6,2.8-2.2c0.4-0.5,0.9-1,1.5-1.7c0.6-0.7,1.4-1.5,2.2-2.4
		c0.5-0.5,1-0.8,1.5-1.1c0.5-0.3,1-0.4,1.5-0.4c0.6,0,1.1,0.2,1.5,0.5s0.5,0.8,0.5,1.5c0,1-0.4,2.7-1.2,4.9s-1.2,4-1.2,5.2
		c0,0.3,0.1,0.4,0.2,0.5c0.1,0.1,0.3,0.2,0.4,0.2l0.2,0c0.5-0.3,1.1-0.7,1.7-1.2c0.7-0.5,1.4-1.1,2.2-1.8c0.7-0.6,1.5-1.4,2.5-2.5
		c1-1,2.2-2.2,3.5-3.5c0.5-0.4,1.1-1,1.8-1.6c0.7-0.7,1.4-1.4,2.2-2.3c0.3-0.5,0.8-0.8,1.4-1.1c0.6-0.3,1.4-0.4,2.2-0.4
		c0.6,0,1,0.1,1.3,0.3c0.3,0.2,0.4,0.6,0.4,1c0,0.2,0,0.4-0.1,0.5c0,0.2-0.1,0.3-0.1,0.5c-0.2,0.8-0.5,1.7-0.8,2.9
		c-0.4,1.1-0.8,2.5-1.3,4c-0.4,1-0.9,2.1-1.4,3.5c-0.5,1.3-1,2.8-1.5,4.4l0.3,0.4c0.5-0.3,1.4-0.9,2.4-1.9c1.1-1,2.4-2.3,4.1-3.9
		l1.6,3.6c-0.2,0.2-0.5,0.5-0.8,0.8c-0.3,0.3-0.7,0.6-1.2,1c-2.8,2-5.2,3.9-7.2,5.9c-2,1.9-3.6,3.9-4.7,5.8c-1.7,2.9-3.2,5.2-4.4,7
		c-1.2,1.8-2,3.1-2.5,3.8c-1.8,2.4-3.5,4.1-5.1,5.3c-1.6,1.1-3.2,1.7-4.7,1.7c-0.6,0-1-0.1-1.2-0.4c-0.3-0.2-0.4-0.6-0.4-1.1
		c0-0.3,0.1-0.6,0.2-1c0.1-0.4,0.4-0.8,0.7-1.2c0.5-0.7,0.9-1.4,1.4-2.2l1.2-1c0.1-0.3,0.2-0.6,0.2-0.7c0.1-0.1,0.3-0.3,0.4-0.5
		c0.2-0.2,0.4-0.4,0.7-0.6c0.2-0.5,0.7-1.2,1.5-2.3c0.8-1.1,1.9-2.5,3.3-4.2c1.1-1.2,2-2.4,2.9-3.3c0.9-1,1.6-1.8,2.3-2.5
		c0.1-0.2,0.2-0.5,0.3-0.7c0.1-0.3,0.2-0.6,0.3-0.9c0.3-0.7,0.7-1.5,1.1-2.5c0.4-1,0.9-2.1,1.5-3.4c0.3-0.8,0.5-1.6,0.7-2.6
		c0.2-1,0.4-2,0.5-3.2c-0.1-0.1-0.1-0.2-0.1-0.4c0-0.2-0.1-0.4-0.2-0.7c-0.5,0.2-1,0.6-1.5,1.1c-0.6,0.5-1.2,1-1.8,1.6
		c-0.9,1.1-1.7,2.1-2.6,2.8c-0.9,0.7-1.8,1.3-2.6,1.7c-0.6,1.1-1.3,1.9-2.2,2.5c-0.9,0.5-1.9,0.8-3.1,0.8c-0.9,0-1.5-0.2-2-0.6
		c-0.4-0.4-0.7-1-0.7-1.9c0-0.2,0-0.4,0.1-0.6s0.1-0.5,0.2-0.8c-0.1-0.3-0.2-0.6-0.4-1.1c0.1-0.4,0.2-0.9,0.3-1.5
		c0-0.8-0.1-1.4-0.2-1.8s-0.3-0.6-0.6-0.6l-0.2,0.1c-0.3,0.2-0.7,0.5-1.2,0.9c-0.5,0.4-1.1,0.9-1.9,1.5c-0.1-0.3-0.3-0.7-0.5-1.2
		s-0.4-1-0.6-1.6c-0.1-0.2-0.1-0.3-0.2-0.4C113.4,46.2,113.3,46.1,113.2,46z"/>
	<path class="st0" d="M148.2,44.3l3.6-2.3c0.1-0.1,0.3-0.3,0.5-0.5c0.2-0.2,0.4-0.5,0.6-1c0.2-0.3,0.4-0.6,0.7-0.9
		c0.3-0.2,0.6-0.4,1-0.6c0.2-0.3,0.5-0.6,0.9-1s0.9-0.8,1.5-1.4c0.3-0.2,0.7-0.4,1.1-0.7c0.4-0.3,0.9-0.7,1.4-1.2
		c2.4-2.2,4.4-3.9,6.2-5c1.8-1.1,3.3-1.7,4.5-1.7c0.7,0,1.2,0.1,1.5,0.4c0.3,0.3,0.5,0.7,0.5,1.2c0,0.5-0.1,1-0.3,1.4
		c-0.2,0.4-0.5,0.8-0.9,1.1c-0.7,0.5-1.4,1-2.1,1.6c-0.4,0.5-0.9,1.1-1.5,1.7c-0.6,0.6-1.3,1.2-2.1,1.8c-0.3,0.3-0.5,0.6-0.7,0.9
		c-0.1,0.1-0.4,0.4-0.7,0.7c-0.4,0.3-0.8,0.7-1.4,1.2c-0.3,0.6-0.8,1.3-1.7,2.2c-0.9,0.9-2,2-3.5,3.3c-0.2,0.2-0.5,0.6-1,1.2
		c-0.5,0.7-1.1,1.5-1.8,2.6l0.3,0.4c0.6-0.2,1.2-0.5,1.8-0.9c0.6-0.4,1.3-1,2.1-1.8c0.9-0.8,1.6-1.5,2.2-2c0.6-0.5,1-0.8,1.2-1
		c0.2-0.1,0.4-0.2,0.5-0.3c0.2-0.1,0.4-0.2,0.6-0.4c1.2-1.4,2.3-2.5,3.4-3.2c1-0.7,2-1,2.9-1c0.5,0,1,0.2,1.2,0.6
		c0.3,0.4,0.5,1.1,0.5,1.9c-0.1,1.3-0.1,2.6-0.1,3.8c0,0.8,0.2,1.6,0.7,2.2c0.5,0.7,1.1,1,1.9,1c0.2,0,0.5-0.1,0.7-0.2
		c0.2-0.1,0.4-0.3,0.7-0.5c0.2-0.2,0.4-0.5,0.5-0.7c0.2-0.2,0.3-0.4,0.5-0.6c0.1-0.1,0.3-0.1,0.4-0.3c0.2-0.1,0.4-0.3,0.6-0.5
		c0.4,0.8,0.7,1.5,0.9,2.1c0.2,0.6,0.4,1.1,0.6,1.5c-0.6,0.5-1.2,1.1-1.8,1.7s-1.2,1.1-1.9,1.7c-0.8,0.6-1.5,1-2.3,1.3
		c-0.7,0.3-1.5,0.4-2.2,0.4c-1.7,0-3-0.5-3.9-1.4c-0.9-1-1.4-2.4-1.6-4.4c0-0.2,0-0.5-0.1-0.7c-0.1-0.2-0.2-0.5-0.4-0.8
		c-0.1,0.1-0.3,0.3-0.4,0.4c-0.2,0.1-0.3,0.3-0.5,0.6c-0.3,0.3-0.8,0.6-1.3,1s-1.1,0.9-1.8,1.4c-0.9,0.9-1.7,1.7-2.3,2.3
		c-0.6,0.6-1.1,1-1.3,1.3c-0.5,0.4-1.1,0.9-1.8,1.3c-0.7,0.4-1.5,0.9-2.3,1.4c-0.5,0.3-1,0.5-1.4,0.7s-0.7,0.3-0.9,0.3
		c-1.2,0-2.2-0.3-2.8-0.9c-0.6-0.6-0.9-1.6-0.9-2.8c0-0.7,0.2-1.4,0.4-2c0.3-0.6,0.7-1.3,1.3-1.9c0.1-0.3,0.1-0.6,0.1-0.8
		c0-0.1,0-0.3-0.1-0.4c-0.1-0.1-0.1-0.3-0.3-0.5c-0.2-0.4-0.3-0.8-0.5-1.2c-0.2-0.5-0.4-0.9-0.6-1.5c0.1-0.1,0.3-0.3,0.4-0.6
		C147.7,45.1,148,44.7,148.2,44.3z"/>
	<path class="st0" d="M178.3,44.3l3.6-2.3c0.1-0.1,0.3-0.3,0.5-0.5c0.2-0.2,0.4-0.5,0.6-1c0.2-0.3,0.4-0.6,0.7-0.9
		c0.3-0.2,0.6-0.4,1-0.6c0.2-0.3,0.5-0.6,0.9-1s0.9-0.8,1.5-1.4c0.3-0.2,0.7-0.4,1.1-0.7c0.4-0.3,0.9-0.7,1.4-1.2
		c2.4-2.2,4.4-3.9,6.2-5c1.8-1.1,3.3-1.7,4.5-1.7c0.7,0,1.2,0.1,1.5,0.4c0.3,0.3,0.5,0.7,0.5,1.2c0,0.5-0.1,1-0.3,1.4
		c-0.2,0.4-0.5,0.8-0.9,1.1c-0.7,0.5-1.4,1-2.1,1.6c-0.4,0.5-0.9,1.1-1.5,1.7c-0.6,0.6-1.3,1.2-2.1,1.8c-0.3,0.3-0.5,0.6-0.7,0.9
		c-0.1,0.1-0.4,0.4-0.7,0.7c-0.4,0.3-0.8,0.7-1.4,1.2c-0.3,0.6-0.8,1.3-1.7,2.2c-0.9,0.9-2,2-3.5,3.3c-0.2,0.2-0.5,0.6-1,1.2
		c-0.5,0.7-1.1,1.5-1.8,2.6l0.3,0.4c0.6-0.2,1.2-0.5,1.8-0.9c0.6-0.4,1.3-1,2.1-1.8c0.9-0.8,1.6-1.5,2.2-2c0.6-0.5,1-0.8,1.2-1
		c0.2-0.1,0.4-0.2,0.5-0.3c0.2-0.1,0.4-0.2,0.6-0.4c1.2-1.4,2.3-2.5,3.4-3.2c1-0.7,2-1,2.9-1c0.5,0,1,0.2,1.2,0.6
		c0.3,0.4,0.5,1.1,0.5,1.9c-0.1,1.3-0.1,2.6-0.1,3.8c0,0.8,0.2,1.6,0.7,2.2c0.5,0.7,1.1,1,1.9,1c0.2,0,0.5-0.1,0.7-0.2
		c0.2-0.1,0.4-0.3,0.7-0.5c0.2-0.2,0.4-0.5,0.5-0.7c0.2-0.2,0.3-0.4,0.5-0.6c0.1-0.1,0.3-0.1,0.4-0.3c0.2-0.1,0.4-0.3,0.6-0.5
		c0.4,0.8,0.7,1.5,0.9,2.1c0.2,0.6,0.4,1.1,0.6,1.5c-0.6,0.5-1.2,1.1-1.8,1.7s-1.2,1.1-1.9,1.7c-0.8,0.6-1.5,1-2.3,1.3
		c-0.7,0.3-1.5,0.4-2.2,0.4c-1.7,0-3-0.5-3.9-1.4c-0.9-1-1.4-2.4-1.6-4.4c0-0.2,0-0.5-0.1-0.7c-0.1-0.2-0.2-0.5-0.4-0.8
		c-0.1,0.1-0.3,0.3-0.4,0.4c-0.2,0.1-0.3,0.3-0.5,0.6c-0.3,0.3-0.8,0.6-1.3,1s-1.1,0.9-1.8,1.4c-0.9,0.9-1.7,1.7-2.3,2.3
		c-0.6,0.6-1.1,1-1.3,1.3c-0.5,0.4-1.1,0.9-1.8,1.3c-0.7,0.4-1.5,0.9-2.3,1.4c-0.5,0.3-1,0.5-1.4,0.7s-0.7,0.3-0.9,0.3
		c-1.2,0-2.2-0.3-2.8-0.9c-0.6-0.6-0.9-1.6-0.9-2.8c0-0.7,0.2-1.4,0.4-2c0.3-0.6,0.7-1.3,1.3-1.9c0.1-0.3,0.1-0.6,0.1-0.8
		c0-0.1,0-0.3-0.1-0.4c-0.1-0.1-0.1-0.3-0.3-0.5c-0.2-0.4-0.3-0.8-0.5-1.2c-0.2-0.5-0.4-0.9-0.6-1.5c0.1-0.1,0.3-0.3,0.4-0.6
		C177.8,45.1,178,44.7,178.3,44.3z"/>
	<path class="st0" d="M207.1,46c0.1-0.2,0.2-0.4,0.4-0.6c0.2-0.2,0.4-0.5,0.6-0.8c0.3-0.2,0.6-0.5,1-0.9c0.4-0.4,0.9-0.8,1.4-1.4
		c0.5-0.5,1-1.2,1.7-1.9c0.7-0.8,1.5-1.7,2.5-2.8c0.4-0.4,0.9-1,1.6-1.7c0.6-0.7,1.4-1.5,2.2-2.5c0.7-0.9,1.5-1.5,2.3-1.9
		c0.8-0.4,1.7-0.6,2.7-0.6s1.6,0.3,2.1,0.9c0.4,0.6,0.7,1.4,0.7,2.6c0,0.6-0.2,1.7-0.7,3.4c-0.4,1.7-1.1,3.9-2.1,6.7
		c-0.2,0.5-0.5,1-0.7,1.5c-0.2,0.3-0.3,0.6-0.3,0.9c-0.1,0.3-0.1,0.5-0.1,0.6c0,0.2,0.1,0.4,0.3,0.6c0.1-0.1,0.3-0.2,0.4-0.3
		c0.1-0.1,0.3-0.3,0.4-0.5c0.2-0.4,0.5-0.8,1-1.2s0.9-0.9,1.5-1.4c0.2-0.4,0.5-0.9,0.9-1.3c0.4-0.4,0.8-0.8,1.3-1.2
		c0.1-0.1,0.2-0.3,0.4-0.5c0.2-0.2,0.4-0.5,0.6-0.7c0.3-0.3,0.7-0.7,1.2-1.1c0.5-0.4,1-0.7,1.6-1.1c0.7-0.4,1.3-0.7,1.9-0.9
		c0.6-0.2,1-0.3,1.5-0.3c0.8,0,1.5,0.2,2.1,0.6s1.2,1,1.6,1.8c0.5,1.6,1,3.1,1.5,4.5c0.3,0.8,0.6,1.4,1,1.8s0.7,0.6,1.2,0.6
		c0.3,0,0.6-0.1,0.9-0.2c0.3-0.1,0.5-0.3,0.8-0.6l1.6,3.6c-0.4,0.4-0.9,0.7-1.4,1.1s-0.9,0.8-1.4,1.1c-0.6,0.5-1.2,0.9-1.7,1.2
		c-0.5,0.2-1,0.3-1.6,0.3c-0.6,0-1.2-0.1-1.7-0.4c-0.5-0.3-1-0.7-1.4-1.2c-0.2-0.2-0.5-0.6-0.8-1.2c-0.3-0.6-0.7-1.3-1.1-2.1
		c-0.3-0.3-0.7-0.8-1.2-1.3c-0.4-0.6-0.9-1.2-1.5-2l-0.4-0.1c-0.5,0.2-1,0.4-1.5,0.7c-0.5,0.3-1,0.7-1.5,1.2c-1.2,1-2,1.7-2.5,2
		c-0.5,0.3-0.9,0.6-1.1,0.9c-0.4,0.6-1,1.4-1.9,2.4c-0.9,1-2,2.2-3.3,3.5c-0.3,0.3-0.7,0.7-1,1c-0.3,0.3-0.7,0.6-1,1
		c-0.3,0.3-0.7,0.5-1.2,0.6c-0.4,0.1-0.9,0.2-1.4,0.2c-1,0-1.6-0.4-1.7-1.1c-0.1-0.7-0.2-1.4-0.3-2.2c0.4-1.1,0.8-2.5,1.3-4.1
		c0.5-1.6,1.1-3.6,1.7-5.7c0-0.1,0-0.3,0.1-0.5c0.1-0.2,0.2-0.5,0.3-0.9c0.1-0.3,0.2-0.6,0.3-0.9c0.1-0.2,0.1-0.5,0.1-0.6
		c0-0.2-0.1-0.3-0.2-0.4c-0.1-0.1-0.3-0.2-0.6-0.2c-0.3,0-0.6,0.2-1,0.5s-0.9,0.8-1.5,1.5c-0.7,0.8-1.3,1.4-1.8,1.8
		c-0.4,0.4-0.7,0.7-0.9,0.8c-0.3,0.2-0.6,0.4-0.9,0.8c-0.4,0.3-0.7,0.7-1.2,1.1c-0.1,0.1-0.1,0.3-0.2,0.5c-0.1,0.2-0.3,0.4-0.5,0.7
		c-0.1-0.4-0.3-0.9-0.5-1.4C207.8,47.6,207.5,46.9,207.1,46z"/>
	<path class="st0" d="M264.4,46c0.5-0.5,1.2-1.2,2.2-2.1c1-0.9,2.3-2.1,3.8-3.4c0.2-0.1,0.5-0.6,1.2-1.3c0.6-0.7,1.5-1.8,2.7-3.1
		c0.5-0.5,1.2-1.2,2-2.1s1.7-1.9,2.7-3c0.7-0.9,1.3-1.6,1.9-2c0.6-0.5,1.3-0.7,1.9-0.7c0.8,0,1.3,0.2,1.7,0.6
		c0.4,0.4,0.5,0.9,0.5,1.6c0,0.4-0.1,1.1-0.2,2c-0.1,0.9-0.2,1.5-0.2,2c0,0.7-0.1,2-0.3,3.8c-0.2,1.8-0.6,4.2-1,7.1
		c0,0.2-0.1,0.5-0.2,0.9c-0.1,0.4-0.2,1-0.4,1.7c-0.2,0.5-0.3,1-0.3,1.4c-0.1,0.4-0.1,0.8-0.1,1.1c0,0.2,0,0.4,0,0.5
		c1.3-0.9,2.4-1.8,3.3-2.6c1-0.8,1.7-1.6,2.4-2.3l1.6,3.6c-0.3,0.1-2.1,1.7-5.5,4.8c-0.2,0.5-0.5,1-1,1.5c-0.5,0.5-1.3,1.1-2.2,1.6
		c-0.3,0.4-0.6,1-0.9,1.7c-0.4,0.7-0.8,1.6-1.2,2.5c-0.3,0.7-0.5,1.4-0.7,2c-0.2,0.6-0.4,1.2-0.5,1.7c-0.3,1-0.7,2.3-1.4,3.7
		c-0.7,1.4-1.4,3.1-2.4,5c-1.1,2.3-2.2,4-3.1,5.1c-0.9,1.1-1.6,1.7-2.2,1.6c-0.6-0.1-1.1-0.1-1.5-0.1c-0.4,0-0.6-0.1-0.7-0.1
		c-0.2-0.2-0.4-0.4-0.5-0.8c-0.1-0.4-0.1-0.9-0.1-1.5c0-0.4,0.1-1,0.2-1.8s0.3-1.8,0.6-3c0.2-0.8,0.4-1.6,0.7-2.4
		c0.3-0.8,0.6-1.6,1-2.4c0.3-0.8,0.7-1.5,1.1-2.2c0.4-0.7,0.7-1.5,1.1-2.3c0.9-1,1.7-2.2,2.5-3.4c0.8-1.2,1.6-2.6,2.5-4
		c0.2-0.5,0.3-1.2,0.5-2.1c0.2-0.8,0.3-1.9,0.5-3c0.2-1.2,0.4-2.4,0.6-3.4c0.1-0.9,0.2-1.6,0.3-2.1c0.1-0.5,0.1-0.9,0.1-1.1l-0.2-2
		l0.7-2.1c-0.1-0.3-0.2-0.6-0.4-0.7c-0.2-0.2-0.4-0.3-0.6-0.3c-0.5,0-1,0.1-1.4,0.4c-0.4,0.3-0.9,0.6-1.2,1.1
		c-0.4,0.6-1,1.2-1.6,1.9c-0.7,0.7-1.4,1.4-2.3,2.2c-1.1,1-2,1.8-2.7,2.4c-0.7,0.6-1.2,1.1-1.5,1.5c-0.1-0.3-0.3-0.7-0.5-1.2
		s-0.4-1-0.6-1.6c-0.1-0.2-0.1-0.3-0.2-0.4C264.6,46.2,264.5,46.1,264.4,46z M289.2,9.9c0.6,0,1,0.1,1.3,0.4
		c0.3,0.3,0.4,0.6,0.4,1.1c0,0.5-0.1,1.1-0.3,1.9c-0.2,0.7-0.5,1.5-0.9,2.4c-0.3,0.7-0.6,1.4-0.9,2.1c-0.2,0.4-0.8,1-1.8,1.7
		c-1,0.7-1.8,1-2.3,1c-0.7,0-1.3,0-1.8-0.1c-0.5-0.1-0.9-0.2-1.1-0.4c-0.2-0.2-0.4-0.5-0.6-1c-0.1-0.5-0.2-1.1-0.2-1.9
		c0-1.2,1-2.7,3.1-4.5C286.3,10.8,287.9,9.9,289.2,9.9z"/>
	<path class="st0" d="M289.2,44.3l3.6-2.3c0.1-0.1,0.3-0.3,0.5-0.5c0.2-0.2,0.4-0.5,0.6-1c0.2-0.3,0.4-0.6,0.7-0.9
		c0.3-0.2,0.6-0.4,1-0.6c0.2-0.3,0.5-0.6,0.9-1s0.9-0.8,1.5-1.4c0.3-0.2,0.7-0.4,1.1-0.7c0.4-0.3,0.9-0.7,1.4-1.2
		c2.4-2.2,4.4-3.9,6.2-5c1.8-1.1,3.3-1.7,4.5-1.7c0.7,0,1.2,0.1,1.5,0.4c0.3,0.3,0.5,0.7,0.5,1.2c0,0.5-0.1,1-0.3,1.4
		c-0.2,0.4-0.5,0.8-0.9,1.1c-0.7,0.5-1.4,1-2.1,1.6c-0.4,0.5-0.9,1.1-1.5,1.7c-0.6,0.6-1.3,1.2-2.1,1.8c-0.3,0.3-0.5,0.6-0.7,0.9
		c-0.1,0.1-0.4,0.4-0.7,0.7c-0.4,0.3-0.8,0.7-1.4,1.2c-0.3,0.6-0.8,1.3-1.7,2.2c-0.9,0.9-2,2-3.5,3.3c-0.2,0.2-0.5,0.6-1,1.2
		c-0.5,0.7-1.1,1.5-1.8,2.6l0.3,0.4c0.6-0.2,1.2-0.5,1.8-0.9c0.6-0.4,1.3-1,2.1-1.8c0.9-0.8,1.6-1.5,2.2-2c0.6-0.5,1-0.8,1.2-1
		c0.2-0.1,0.4-0.2,0.5-0.3c0.2-0.1,0.4-0.2,0.6-0.4c1.2-1.4,2.3-2.5,3.4-3.2c1-0.7,2-1,2.9-1c0.5,0,1,0.2,1.2,0.6
		c0.3,0.4,0.5,1.1,0.5,1.9c-0.1,1.3-0.1,2.6-0.1,3.8c0,0.8,0.2,1.6,0.7,2.2c0.5,0.7,1.1,1,1.9,1c0.2,0,0.5-0.1,0.7-0.2
		c0.2-0.1,0.4-0.3,0.7-0.5c0.2-0.2,0.4-0.5,0.5-0.7c0.2-0.2,0.3-0.4,0.5-0.6c0.1-0.1,0.3-0.1,0.4-0.3c0.2-0.1,0.4-0.3,0.6-0.5
		c0.4,0.8,0.7,1.5,0.9,2.1c0.2,0.6,0.4,1.1,0.6,1.5c-0.6,0.5-1.2,1.1-1.8,1.7s-1.2,1.1-1.9,1.7c-0.8,0.6-1.5,1-2.3,1.3
		c-0.7,0.3-1.5,0.4-2.2,0.4c-1.7,0-3-0.5-3.9-1.4c-0.9-1-1.4-2.4-1.6-4.4c0-0.2,0-0.5-0.1-0.7c-0.1-0.2-0.2-0.5-0.4-0.8
		c-0.1,0.1-0.3,0.3-0.4,0.4c-0.2,0.1-0.3,0.3-0.5,0.6c-0.3,0.3-0.8,0.6-1.3,1s-1.1,0.9-1.8,1.4c-0.9,0.9-1.7,1.7-2.3,2.3
		c-0.6,0.6-1.1,1-1.3,1.3c-0.5,0.4-1.1,0.9-1.8,1.3c-0.7,0.4-1.5,0.9-2.3,1.4c-0.5,0.3-1,0.5-1.4,0.7s-0.7,0.3-0.9,0.3
		c-1.2,0-2.2-0.3-2.8-0.9c-0.6-0.6-0.9-1.6-0.9-2.8c0-0.7,0.2-1.4,0.4-2c0.3-0.6,0.7-1.3,1.3-1.9c0.1-0.3,0.1-0.6,0.1-0.8
		c0-0.1,0-0.3-0.1-0.4c-0.1-0.1-0.1-0.3-0.3-0.5c-0.2-0.4-0.3-0.8-0.5-1.2c-0.2-0.5-0.4-0.9-0.6-1.5c0.1-0.1,0.3-0.3,0.4-0.6
		C288.7,45.1,288.9,44.7,289.2,44.3z"/>
	<path class="st0" d="M318,46c0.2-0.2,0.3-0.4,0.5-0.7c0.2-0.3,0.4-0.6,0.7-1c1.1-1.4,2.3-2.7,3.3-3.8s2.1-2.1,3.1-3
		c0.5-0.5,1.1-1.1,1.8-1.8s1.5-1.6,2.5-2.6c0.9-0.4,2-0.8,3.1-1.2c0.7,0,1.2,0.2,1.6,0.7c0.3,0.5,0.5,1.1,0.5,2
		c0,0.7-0.1,1.5-0.2,2.4c-0.1,0.8-0.3,1.7-0.5,2.6c-0.2,0.7-0.4,1.4-0.6,2c0,0.2,0,0.3,0.1,0.4c0.1,0.1,0.2,0.1,0.4,0.1
		c0.4-0.2,1.1-0.8,2.3-2c1.1-1.1,2.6-2.7,4.4-4.7c1.6-1.7,2.9-3,4.1-3.8c1.2-0.8,2.1-1.3,2.8-1.3c0.8,0,1.3,0.3,1.7,0.8
		c0.4,0.6,0.5,1.4,0.5,2.5c0,1.6-0.1,3.1-0.4,4.6c-0.2,1.5-0.6,2.9-1.2,4.2c-0.1,0.3-0.2,0.5-0.2,0.7c0,0.2,0,0.4,0,0.5
		c0,0.2,0.2,0.4,0.5,0.5c0.2-0.2,0.4-0.4,0.7-0.8c0.3-0.3,0.6-0.8,1-1.3c0.6-0.5,1.2-1,1.8-1.5c0.6-0.5,1.2-1,2-1.5
		c0.7-0.6,1.5-1,2.2-1.3c0.8-0.3,1.5-0.4,2.2-0.4c0.1,0,0.3,0,0.4,0.1s0.3,0.2,0.4,0.3c0.6,0.5,1.1,1,1.5,1.4
		c0.4,0.4,0.7,0.8,0.8,1.1c1,2.1,1.9,3.6,2.7,4.7c0.8,1,1.5,1.5,2.1,1.5c0.1,0,0.3,0,0.4-0.1c0.1-0.1,0.3-0.1,0.4-0.3
		c0.6,1.3,1.1,2.5,1.5,3.6c-0.9,0.7-1.8,1.3-2.5,1.7c-0.7,0.4-1.4,0.6-1.9,0.6c-1.8,0-3.6-1.2-5.6-3.5c-1.9-2.3-3.4-3.5-4.4-3.5
		c-1.4,0-3.6,2-6.8,6c-3.1,4-5.1,6-5.9,6c-0.4,0-0.9,0-1.6-0.1c-0.2-0.1-0.4-0.2-0.5-0.5c-0.1-0.2-0.2-0.5-0.2-0.9
		c0-0.4,0.1-0.9,0.2-1.5c0.2-0.6,0.4-1.4,0.6-2.2c0.3-1.1,0.6-2,0.8-2.6c0.2-0.7,0.3-1.1,0.4-1.4c0.1-0.3,0.2-1,0.3-2
		c0.1-1,0.3-2.3,0.6-3.9c0-0.3-0.1-0.5-0.2-0.7s-0.3-0.2-0.5-0.2c-0.2,0-0.4,0.1-0.6,0.2c-0.2,0.1-0.5,0.3-0.8,0.6
		c-0.3,0.3-0.7,0.7-1,1c-0.4,0.3-1,0.8-1.8,1.4c-0.9,1-1.8,2.1-2.8,3.2c-1,1.1-1.9,2.2-2.9,3.3c-1.6,1.8-2.8,3.2-3.7,4
		c-0.9,0.9-1.5,1.3-1.8,1.3c-0.8,0-1.4-0.1-1.8-0.3c-0.4-0.2-0.6-0.5-0.6-0.8c0-0.9,0.5-2.6,1.4-5.4c0.9-2.7,1.4-4.6,1.4-5.8
		c0-0.2-0.1-0.3-0.2-0.4s-0.3-0.2-0.5-0.2c-0.3,0-0.7,0.2-1.1,0.5c-0.4,0.4-0.9,0.9-1.5,1.7c-0.4,0.4-0.8,0.9-1.3,1.4
		c-0.5,0.5-1.2,1.2-1.9,1.9c-0.1,0.2-0.2,0.4-0.3,0.6c-0.1,0.2-0.3,0.4-0.4,0.6c-0.1-0.4-0.3-0.9-0.5-1.4
		C318.7,47.6,318.4,46.9,318,46z"/>
	<path class="st0" d="M367.3,46c0.3-0.5,0.7-1.1,1.2-1.7c0.5-0.6,1.1-1.1,1.9-1.7c0.1-0.5,0.2-1,0.2-1.5s0.1-1,0.2-1.5
		c0.1-0.4,0.2-0.8,0.4-1.3c0.2-0.5,0.4-1,0.6-1.6c0.2-0.6,0.6-1.3,1-2.1c0.4-0.9,0.9-1.8,1.6-2.9c0.5-0.6,1.1-1.3,1.7-2
		c0.6-0.7,1.2-1.4,1.8-2.2c0.3-0.2,0.6-0.5,0.9-0.7c0.3-0.2,0.7-0.4,1-0.7c0.3-0.1,0.7-0.2,1.1-0.3s0.8-0.1,1.3-0.1
		c0.7,0,1.2,0.1,1.6,0.2c0.4,0.1,0.7,0.4,1,0.7c0.2,0.2,0.4,0.5,0.5,0.9c0.2,0.4,0.3,0.9,0.5,1.5c0.1,0.5,0.2,1.1,0.3,1.7
		c0-0.2,0-0.1-0.1,0.2c-0.1,0.3-0.2,0.7-0.4,1.4l-0.4,1.2c-0.4,1.2-1.2,2.7-2.5,4.3c-1.3,1.6-3,3.5-5.2,5.6
		c-0.2,0.2-0.3,0.4-0.5,0.7c-0.1,0.3-0.2,0.6-0.2,0.9c0,0.5,0.1,1,0.3,1.4c0.2,0.4,0.5,0.7,0.8,0.9c0.2,0.2,0.5,0.3,1,0.5
		c0.5,0.2,1,0.3,1.6,0.4c1-0.1,1.9-0.2,2.8-0.5c0.8-0.3,1.6-0.6,2.2-0.9c0.1-0.1,0.3-0.2,0.6-0.3c0.3-0.1,0.6-0.3,0.9-0.6
		c0.3,0.8,0.6,1.4,0.9,2c0.3,0.6,0.5,1.1,0.6,1.6c-1.5,1.5-2.8,2.6-4,3.3s-2.3,1.1-3.3,1.1c-0.4,0.3-0.9,0.4-1.4,0.6
		c-0.5,0.1-1.2,0.2-1.9,0.2c-1,0-1.8-0.1-2.6-0.4c-0.7-0.3-1.4-0.7-1.9-1.2c-0.3-0.3-0.5-0.6-0.8-1.2c-0.3-0.5-0.5-1.1-0.8-1.8
		c-0.2-0.6-0.5-1-0.7-1.3c-0.2-0.3-0.4-0.4-0.7-0.4c-0.2,0-0.4,0.1-0.7,0.3c-0.3,0.2-0.5,0.5-0.9,0.9c-0.1-0.4-0.3-0.9-0.5-1.4
		C368,47.6,367.7,46.9,367.3,46z M379.8,33.3c-0.6,0-1.3,0.7-2.3,2.2c-1,1.5-1.4,2.6-1.4,3.3c0,0.2,0,0.3,0.1,0.3
		c0.1,0.1,0.2,0.1,0.4,0.1c0.3,0,0.5-0.1,0.7-0.4c0.2-0.3,0.4-0.6,0.5-0.8c0.3-0.3,0.6-0.5,0.8-0.8c0.3-0.3,0.5-0.6,0.8-0.9
		c0.3-0.4,0.5-0.7,0.7-1.1c0.2-0.4,0.2-0.7,0.2-1.1c0-0.2,0-0.4-0.1-0.6C380.1,33.4,379.9,33.3,379.8,33.3z"/>
	<path class="st0" d="M386.9,46c0.3-0.5,0.7-1.1,1.2-1.7c0.5-0.6,1.1-1.1,1.9-1.7c0.1-0.5,0.2-1,0.2-1.5s0.1-1,0.2-1.5
		c0.1-0.4,0.2-0.8,0.4-1.3c0.2-0.5,0.4-1,0.6-1.6c0.2-0.6,0.6-1.3,1-2.1c0.4-0.9,0.9-1.8,1.6-2.9c0.5-0.6,1.1-1.3,1.7-2
		c0.6-0.7,1.2-1.4,1.8-2.2c0.3-0.2,0.6-0.5,0.9-0.7c0.3-0.2,0.7-0.4,1-0.7c0.3-0.1,0.7-0.2,1.1-0.3s0.8-0.1,1.3-0.1
		c0.7,0,1.2,0.1,1.6,0.2c0.4,0.1,0.7,0.4,1,0.7c0.2,0.2,0.4,0.5,0.5,0.9c0.2,0.4,0.3,0.9,0.5,1.5c0.1,0.5,0.2,1.1,0.3,1.7
		c0-0.2,0-0.1-0.1,0.2c-0.1,0.3-0.2,0.7-0.4,1.4l-0.4,1.2c-0.4,1.2-1.2,2.7-2.5,4.3c-1.3,1.6-3,3.5-5.2,5.6
		c-0.2,0.2-0.3,0.4-0.5,0.7c-0.1,0.3-0.2,0.6-0.2,0.9c0,0.5,0.1,1,0.3,1.4c0.2,0.4,0.5,0.7,0.8,0.9c0.2,0.2,0.5,0.3,1,0.5
		c0.5,0.2,1,0.3,1.6,0.4c1-0.1,1.9-0.2,2.8-0.5c0.8-0.3,1.6-0.6,2.2-0.9c0.1-0.1,0.3-0.2,0.6-0.3c0.3-0.1,0.6-0.3,0.9-0.6
		c0.3,0.8,0.6,1.4,0.9,2c0.3,0.6,0.5,1.1,0.6,1.6c-1.5,1.5-2.8,2.6-4,3.3s-2.3,1.1-3.3,1.1c-0.4,0.3-0.9,0.4-1.4,0.6
		c-0.5,0.1-1.2,0.2-1.9,0.2c-1,0-1.8-0.1-2.6-0.4c-0.7-0.3-1.4-0.7-1.9-1.2c-0.3-0.3-0.5-0.6-0.8-1.2c-0.3-0.5-0.5-1.1-0.8-1.8
		c-0.2-0.6-0.5-1-0.7-1.3c-0.2-0.3-0.4-0.4-0.7-0.4c-0.2,0-0.4,0.1-0.7,0.3c-0.3,0.2-0.5,0.5-0.9,0.9c-0.1-0.4-0.3-0.9-0.5-1.4
		C387.7,47.6,387.3,46.9,386.9,46z M399.4,33.3c-0.6,0-1.3,0.7-2.3,2.2c-1,1.5-1.4,2.6-1.4,3.3c0,0.2,0,0.3,0.1,0.3
		c0.1,0.1,0.2,0.1,0.4,0.1c0.3,0,0.5-0.1,0.7-0.4c0.2-0.3,0.4-0.6,0.5-0.8c0.3-0.3,0.6-0.5,0.8-0.8c0.3-0.3,0.5-0.6,0.8-0.9
		c0.3-0.4,0.5-0.7,0.7-1.1c0.2-0.4,0.2-0.7,0.2-1.1c0-0.2,0-0.4-0.1-0.6C399.7,33.4,399.6,33.3,399.4,33.3z"/>
	<path class="st0" d="M406.6,46c0.2-0.3,0.5-0.6,0.7-1c0.2-0.4,0.5-0.8,0.9-1.2l2.6-2.3c0.1-0.1,0.2-0.2,0.2-0.3c0-0.1,0-0.3,0-0.5
		c0-0.3-0.1-0.6-0.1-0.8c0-0.6,0.1-1.6,0.4-3s0.4-2.3,0.6-2.5l-0.2-0.7c0.3-1.7,0.8-3.7,1.4-5.7c0.6-2.1,1.3-4.3,2.1-6.7
		c0.3-0.4,0.5-0.9,0.8-1.6c0.3-0.6,0.6-1.4,1-2.2c0.4-1.4,1-2.8,1.8-4.3c0.7-1.5,1.5-3,2.5-4.6c1.2-2.1,2.3-3.6,3.3-4.6
		c1-1,1.8-1.6,2.6-1.6c1.5,0,2.5,0.3,3.1,0.9c0.6,0.6,0.8,1.7,0.8,3.3c0,0.4-0.1,1.1-0.2,1.9c-0.1,0.9-0.2,1.5-0.2,2
		c0,0.4-0.1,1.1-0.4,1.9c-0.3,0.8-0.4,1.5-0.4,2.2c0,0.2-0.1,0.4-0.2,0.6l0,0.5c-0.1,0.4-0.3,0.8-0.5,1.3c-0.2,0.5-0.5,1.1-0.8,1.9
		c-0.2,0.7-0.4,1.4-0.7,2.3c-0.3,0.9-0.6,1.8-1,2.8c-0.2,0.3-0.4,0.6-0.6,1c-0.2,0.4-0.5,0.8-0.8,1.3c-0.1,0.3-0.2,0.7-0.4,1.2
		c-0.2,0.4-0.4,1-0.7,1.6c-0.2,0.3-0.4,0.7-0.6,1c-0.3,0.4-0.6,0.8-0.9,1.4c-0.2,0.3-0.3,0.6-0.5,1c-0.2,0.4-0.4,0.8-0.6,1.3
		c-0.3,0.4-0.7,1-1.1,1.6c-0.5,0.7-1,1.4-1.6,2.3c-0.8,1.4-1.6,2.8-2.5,4.1c0,2.5,0.5,4.4,1.5,5.7c1,1.3,2.5,1.9,4.5,1.9
		c0.1,0,0.5-0.1,1.2-0.3c0.7-0.2,1.5-0.5,2.7-0.9c0.3-0.2,0.7-0.5,1.2-0.9c0.5-0.4,1-0.8,1.6-1.3l1.5,3.6c-0.7,0.6-1.4,1.2-2,1.8
		c-0.7,0.6-1.4,1.2-2.1,1.8c-0.8,0.7-1.6,1.2-2.5,1.5c-0.8,0.4-1.7,0.5-2.5,0.5c-0.4,0-1.1,0-1.9-0.1c-0.9-0.1-1.5-0.1-2-0.1
		c-1.5,0-2.7-0.6-3.6-1.8c-1-1.2-1.6-2.9-2-5.3c-0.1-0.2-0.1-0.4-0.2-0.6c-0.1-0.2-0.3-0.4-0.5-0.6c-0.3,0.3-0.7,0.7-1.2,1.2
		c-0.5,0.5-1,1-1.7,1.6L406.6,46z M425.2,15.3l-0.3-0.2c-1.5,1.4-2.6,2.7-3.3,4s-1.1,2.5-1.1,3.6c0,0.2-0.1,0.5-0.3,0.9
		c-0.2,0.4-0.4,1-0.8,1.7c-0.4,0.8-0.8,1.7-1.3,2.7c-0.5,1.5-0.9,2.6-1.1,3.6c-0.3,0.9-0.4,1.6-0.4,2l0.2,0.3c0.2,0,0.5-0.3,0.9-0.7
		c0.3-0.4,0.7-1.1,1.2-2c0.2-0.5,0.5-1,0.9-1.6s0.8-1.4,1.3-2.2c0.4-0.6,1.1-2,2-4.4c0.9-2.4,1.4-3.9,1.5-4.5c0-0.5,0.1-1,0.2-1.5
		S425.1,15.8,425.2,15.3z"/>
</g>
</svg>
